<svg xmlns="http://www.w3.org/2000/svg" xmlns:xlink="http://www.w3.org/1999/xlink" width="130" height="130" viewBox="0 0 130 130">
  <defs>
    <filter id="Ellipse_91" x="0" y="0" width="130" height="130" filterUnits="userSpaceOnUse">
      <feOffset dy="3" input="SourceAlpha"/>
      <feGaussianBlur stdDeviation="3" result="blur"/>
      <feFlood flood-opacity="0.161"/>
      <feComposite operator="in" in2="blur"/>
      <feComposite in="SourceGraphic"/>
    </filter>
  </defs>
  <g id="Group_332" data-name="Group 332" transform="translate(-1198 -1258)">
    <g transform="matrix(1, 0, 0, 1, 1198, 1258)" filter="url(#Ellipse_91)">
      <circle id="Ellipse_91-2" data-name="Ellipse 91" cx="56" cy="56" r="56" transform="translate(9 6)" fill="#fff"/>
    </g>
    <g id="Group_327" data-name="Group 327" transform="translate(1228.095 1287.667)">
      <path id="Path_1194" data-name="Path 1194" d="M-1178.457,557.8h16.509c.009-.155.025-.3.025-.44q0-1.857,0-3.714c0-1.732.413-2.318,2.081-2.905v-.42q0-1.918,0-3.836c0-.819-.347-1.171-1.181-1.174-1.776-.006-3.553,0-5.329-.005a3.09,3.09,0,0,1-2.625-1.343,3.015,3.015,0,0,1-.292-3.21,2.955,2.955,0,0,1,2.7-1.814c2.179-.05,4.362-.076,6.539.008a7.12,7.12,0,0,1,6.688,6.964q.017,2.241,0,4.481c0,.271.066.393.345.471a2.266,2.266,0,0,1,1.735,2.331c.008,1.386.013,2.773-.005,4.159,0,.357.078.485.464.479,1.494-.024,2.988-.011,4.481-.008a1.5,1.5,0,0,1,1.632,1.106c.631,1.6,1.269,3.2,1.876,4.809a1.343,1.343,0,0,1,.033.8q-1.81,6.025-3.662,12.037a.764.764,0,0,0,.143.8,11.9,11.9,0,0,1-3.279,17.535,12.487,12.487,0,0,1-18.372-6.677,11.692,11.692,0,0,1-.065-6.877c.04-.139.071-.281.122-.487h-.474q-1.494,0-2.988,0a2.6,2.6,0,0,1-2.8-2.233c-1.322-4.6-3.149-8.956-6.6-12.439a38.416,38.416,0,0,0-5.585-4.5,8.488,8.488,0,0,0-2.057-1.326,8.588,8.588,0,0,0-2.445-.07c-1.965,0-3.93.012-5.895-.006a10.978,10.978,0,0,0-3.535.738,20.807,20.807,0,0,0-10,6.928c-.242.3-.458.631-.677.954a1.241,1.241,0,0,1-1.69.432,1.181,1.181,0,0,1-.406-1.716,35.151,35.151,0,0,1,2.59-3.187,20.736,20.736,0,0,1,5.4-4.047.663.663,0,0,0,.409-.683q-.015-11.951-.007-23.9a3.163,3.163,0,0,1,3.333-3.354q9.75,0,19.5,0a3.169,3.169,0,0,1,3.358,3.372q.005,10.679,0,21.358Zm-2.5-2.864c.016-.179.027-.245.027-.311q0-9.427,0-18.855a.729.729,0,0,0-.84-.838q-9.771,0-19.541,0c-.61,0-.86.247-.86.856q0,10.8-.009,21.6c0,.37.122.447.464.442,1.224-.019,2.45-.023,3.674,0,.387.008.5-.1.5-.492-.018-2.476-.01-4.953-.01-7.429,0-1.655,0-3.311,0-4.966a1.2,1.2,0,0,1,1.219-1.27,1.232,1.232,0,0,1,1.247,1.376q0,6.117,0,12.233c0,.168.015.337.023.5h13.76l-5.214-3.944c-.4.692-.77,1.331-1.144,1.967a1.233,1.233,0,0,1-1.749.537,1.244,1.244,0,0,1-.411-1.754q1.67-2.9,3.366-5.79a1.485,1.485,0,0,1,.545-.513,1.175,1.175,0,0,1,1.44.249A1.255,1.255,0,0,1-1184.3,550c-.307.562-.636,1.112-.966,1.685Zm32.394,20.082a.972.972,0,0,0,.045-.111q1.594-5.225,3.179-10.451a.843.843,0,0,0-.043-.5c-.423-1.118-.869-2.229-1.292-3.347a.426.426,0,0,0-.475-.314q-18.2.008-36.4.006a3.046,3.046,0,0,0-.351.048c.169.129.274.211.382.289a30.234,30.234,0,0,1,6.54,6.131,33.835,33.835,0,0,1,5.229,11.227c.105.358.218.492.612.481,1.3-.037,2.609-.042,3.914-.022a.846.846,0,0,0,.813-.429,12.425,12.425,0,0,1,15.036-4.465C-1150.422,573.959-1149.526,574.513-1148.566,575.015Zm2.332,9.411c-.03-.286-.054-.84-.156-1.38a9.57,9.57,0,0,0-.435-1.592,9.991,9.991,0,0,0-14.71-4.806,9.339,9.339,0,0,0-3.158,12.787,9.649,9.649,0,0,0,10.044,4.717A9.755,9.755,0,0,0-1146.234,584.426Zm-13.211-26.662a.869.869,0,0,0,.153.05c1.76,0,3.519,0,5.278.011.283,0,.29-.16.29-.364,0-1.289-.009-2.579,0-3.868,0-.291-.11-.366-.379-.365q-2.478.011-4.956,0c-.3,0-.4.09-.4.393.015,1.007.005,2.015.005,3.022Zm2.073-6.989c.445,0,.819-.015,1.192,0,.307.017.385-.107.383-.4-.013-1.412,0-2.825-.007-4.237a4.709,4.709,0,0,0-4.725-4.753c-1.3-.01-2.609,0-3.914,0-.646,0-1.291-.01-1.937.007a.728.728,0,0,0-.725.678.736.736,0,0,0,.65.748,3.3,3.3,0,0,0,.523.029c1.722,0,3.443-.014,5.165.007a3.37,3.37,0,0,1,3.4,3.455q0,1.352,0,2.7Z" transform="translate(1213.267 -532.453)" fill="#158aff"/>
      <path id="Path_1195" data-name="Path 1195" d="M-1189.754,686.18c-8.85,0-15.605-4.754-17.946-11.726a16.919,16.919,0,0,1,8.01-20.268,17.848,17.848,0,0,1,22.648,4.543,16.83,16.83,0,0,1-3.124,23.782A16.948,16.948,0,0,1-1189.754,686.18Zm-1.293-2.469a15.192,15.192,0,0,0,9.151-3,14.351,14.351,0,0,0,3.96-18.9,15.269,15.269,0,0,0-23.236-3.537c-4.545,4.117-6.053,9.276-4.223,15.164A14.844,14.844,0,0,0-1191.047,683.71Z" transform="translate(1209.764 -621.898)" fill="#158aff"/>
      <path id="Path_1196" data-name="Path 1196" d="M-1033.474,655.3a1.318,1.318,0,0,1,.913-1.2,1.229,1.229,0,0,1,1.43.553c.437.739.852,1.491,1.276,2.238s.852,1.492,1.269,2.242a1.24,1.24,0,0,1-.421,1.777,1.236,1.236,0,0,1-1.735-.569q-1.238-2.168-2.459-4.344A5.257,5.257,0,0,1-1033.474,655.3Z" transform="translate(1078.692 -623.469)" fill="#158aff"/>
      <path id="Path_1197" data-name="Path 1197" d="M-1004.5,654.082a1.113,1.113,0,0,1,1.012.555c.891,1.546,1.779,3.1,2.644,4.656a1.21,1.21,0,0,1-.467,1.643,1.221,1.221,0,0,1-1.683-.45c-.882-1.521-1.757-3.046-2.6-4.588A1.213,1.213,0,0,1-1004.5,654.082Z" transform="translate(1057.949 -623.492)" fill="#158aff"/>
      <path id="Path_1198" data-name="Path 1198" d="M-978.278,655.274a1.292,1.292,0,0,1,.926-1.177,1.234,1.234,0,0,1,1.44.623c.73,1.271,1.449,2.547,2.172,3.822.133.234.274.463.4.7a1.231,1.231,0,0,1-.487,1.673,1.208,1.208,0,0,1-1.671-.479q-1.3-2.254-2.566-4.525A3.4,3.4,0,0,1-978.278,655.274Z" transform="translate(1037.378 -623.469)" fill="#158aff"/>
      <path id="Path_1199" data-name="Path 1199" d="M-1000.764,720.893a4.881,4.881,0,0,1,4.933,4.824,4.9,4.9,0,0,1-4.99,4.858,4.88,4.88,0,0,1-4.9-4.894A4.862,4.862,0,0,1-1000.764,720.893Zm-2.485,4.819a2.429,2.429,0,0,0,2.439,2.391,2.458,2.458,0,0,0,2.5-2.378,2.439,2.439,0,0,0-2.471-2.365A2.417,2.417,0,0,0-1003.249,725.712Z" transform="translate(1057.918 -673.5)" fill="#158aff"/>
      <path id="Path_1200" data-name="Path 1200" d="M-1165.253,685.287a8.866,8.866,0,0,1,8.787,7.507,8.623,8.623,0,0,1-6.258,9.546,8.881,8.881,0,0,1-11.229-6.626,8.64,8.64,0,0,1,6.437-10.069C-1166.779,685.458-1166.008,685.4-1165.253,685.287Zm-.2,2.523a13.848,13.848,0,0,0-1.442.228,6.122,6.122,0,0,0-3.054,10.177,6.523,6.523,0,0,0,9.1.313,6.01,6.01,0,0,0,.88-8.012A6.522,6.522,0,0,0-1165.457,687.81Z" transform="translate(1183.979 -646.849)" fill="#158aff"/>
    </g>
  </g>
</svg>
