<svg xmlns="http://www.w3.org/2000/svg" width="1971.228" height="831.056" viewBox="0 0 1971.228 831.056">
  <defs>
    <style>
      .cls-1 {
        fill: #158aff;
      }

      .cls-10, .cls-12, .cls-2, .cls-3, .cls-4, .cls-7, .cls-9 {
        fill: #148afe;
      }

      .cls-3 {
        opacity: 0.31;
      }

      .cls-4 {
        opacity: 0.19;
      }

      .cls-5 {
        opacity: 0.21;
      }

      .cls-6 {
        opacity: 0.57;
      }

      .cls-7 {
        opacity: 0.3;
      }

      .cls-8 {
        fill: #6da2b4;
      }

      .cls-9 {
        opacity: 0.13;
      }

      .cls-10 {
        opacity: 0.47;
      }

      .cls-11 {
        fill: #e4effa;
      }

      .cls-12 {
        opacity: 0.41;
      }

      .cls-13 {
        fill: #a3c8ed;
        opacity: 0.34;
      }
    </style>
  </defs>
  <g id="Group_1715" data-name="Group 1715" transform="translate(-7.557 -2042.944)">
    <circle id="Ellipse_74" data-name="Ellipse 74" class="cls-1" cx="43.5" cy="43.5" r="43.5" transform="translate(1725 2147)"/>
    <circle id="Ellipse_80" data-name="Ellipse 80" class="cls-1" cx="43.5" cy="43.5" r="43.5" transform="translate(103 2141)"/>
    <circle id="Ellipse_77" data-name="Ellipse 77" class="cls-1" cx="43.5" cy="43.5" r="43.5" transform="translate(1135 2136)"/>
    <circle id="Ellipse_84" data-name="Ellipse 84" class="cls-1" cx="43.5" cy="43.5" r="43.5" transform="translate(697 2752)"/>
    <g id="Group_216" data-name="Group 216" transform="translate(649 1016)">
      <circle id="Ellipse_12" data-name="Ellipse 12" class="cls-2" cx="53.5" cy="53.5" r="53.5" transform="translate(693 1697)"/>
      <circle id="Ellipse_13" data-name="Ellipse 13" class="cls-3" cx="23" cy="23" r="23" transform="translate(836 1781)"/>
      <circle id="Ellipse_14" data-name="Ellipse 14" class="cls-4" cx="15.5" cy="15.5" r="15.5" transform="translate(769 1827)"/>
    </g>
    <g id="SciFI" class="cls-5" transform="translate(2263.333 2078.794) rotate(91)">
      <path id="Path_1256" data-name="Path 1256" class="cls-1" d="M293.066,412.46a2.1,2.1,0,1,0,.612,1.482c0-.04-.021-.075-.024-.118l13.021-5.836V302.041a2.105,2.105,0,1,0-1.487,0V407.028Z" transform="translate(165.674 36.935)"/>
      <path id="Path_1257" data-name="Path 1257" class="cls-1" d="M277.268,418.1,435.677,306.281v85.183l-42.99,16.464a3.282,3.282,0,0,0-2.613-1.351,3.791,3.791,0,1,0,3.215,2.712l43.875-16.806V303.416L276.1,417.11l-.313.219v24.889H218.989l-10.905,54.518a3.279,3.279,0,1,0,1.482.171l10.64-53.2h57.062Z" transform="translate(24.293 46.034)"/>
      <path id="Path_1258" data-name="Path 1258" class="cls-1" d="M360.78,354.88a2.1,2.1,0,1,0,1.487,0V315.087L243.892,395.482a2.036,2.036,0,0,0-1.177-.407,2.1,2.1,0,1,0,2.105,2.1,1.967,1.967,0,0,0-.1-.468L360.78,317.89Z" transform="translate(83.845 65.581)"/>
      <path id="Path_1259" data-name="Path 1259" class="cls-1" d="M225.282,358.533a2.1,2.1,0,1,0,0,1.485h13.024v-8.193a2.105,2.105,0,1,0-1.487,0v6.708Z" transform="translate(51.377 120.315)"/>
      <path id="Path_1260" data-name="Path 1260" class="cls-1" d="M246.246,375.677a3.3,3.3,0,0,0,2.6-3.194,3.341,3.341,0,0,0-6.682,0,3.3,3.3,0,0,0,2.6,3.194v29.054l-32.175,18.81v14.067a3.294,3.294,0,0,0-2.6,3.191,3.342,3.342,0,0,0,6.684,0,3.294,3.294,0,0,0-2.6-3.191V424.393l32.176-18.812Z" transform="translate(32.545 156.114)"/>
      <path id="Path_1261" data-name="Path 1261" class="cls-1" d="M216.563,402.534a2.059,2.059,0,0,0-1.051-.321,2.1,2.1,0,1,0,2.1,2.1,2.066,2.066,0,0,0-.123-.618l10.646-8.428V374.588a2.105,2.105,0,1,0-1.487,0v19.965Z" transform="translate(38.28 158.439)"/>
      <path id="Path_1262" data-name="Path 1262" class="cls-1" d="M368.863,591.348a3.273,3.273,0,0,0-.222,1.1,3.347,3.347,0,1,0,.99-2.373L234.61,504.419V421.387a3.294,3.294,0,0,0,2.6-3.191,3.342,3.342,0,0,0-6.684,0,3.294,3.294,0,0,0,2.6,3.191v83.848Z" transform="translate(66.951 232.676)"/>
      <path id="Path_1263" data-name="Path 1263" class="cls-1" d="M234.048,409.046a2.047,2.047,0,0,0,1.022.3,2.105,2.105,0,1,0-2.105-2.105,2.076,2.076,0,0,0,.134.661L213.559,424l-.27.222v22.653a2.108,2.108,0,1,0,1.484,0V424.918Z" transform="translate(35.801 216.401)"/>
      <path id="Path_1264" data-name="Path 1264" class="cls-1" d="M215.129,426.57a2.044,2.044,0,0,0-1.1-.356,2.105,2.105,0,1,0,2.105,2.1,1.98,1.98,0,0,0-.115-.564l8.653-6.489V396.612a2.1,2.1,0,1,0-1.485,0v23.913Z" transform="translate(35.801 195.325)"/>
      <path id="Path_1265" data-name="Path 1265" class="cls-1" d="M369.732,514a3.285,3.285,0,0,0,1.442.358,3.341,3.341,0,1,0-3.341-3.341,3.256,3.256,0,0,0,.757,2.033l-25.6,31.889-34.7-47.9-49.706-19.689a3.05,3.05,0,0,0,.1-.49,3.342,3.342,0,1,0-3.341,3.341,3.282,3.282,0,0,0,2.7-1.474l49.3,19.534,35.591,49.129Z" transform="translate(102.906 330.933)"/>
      <path id="Path_1266" data-name="Path 1266" class="cls-1" d="M310.66,498.787a2.056,2.056,0,0,0,.655.134,2.1,2.1,0,1,0-2.1-2.105,2.066,2.066,0,0,0,.3,1.024L291.676,519.6a1.989,1.989,0,0,0-.655-.134,2.1,2.1,0,1,0,2.1,2.105,2.066,2.066,0,0,0-.3-1.024Z" transform="translate(164.745 366.424)"/>
      <path id="Path_1267" data-name="Path 1267" class="cls-1" d="M310.633,510.763a2.059,2.059,0,0,0,.923.233,2.123,2.123,0,1,0-1.945-1.313l-14.781,14.99a2.1,2.1,0,1,0,1.255,1.918,2.054,2.054,0,0,0-.2-.869Z" transform="translate(169.704 386.648)"/>
      <path id="Path_1268" data-name="Path 1268" class="cls-1" d="M251.264,356.09a3.343,3.343,0,0,0,3.341-3.344,3.279,3.279,0,0,0-.324-1.391l75.09-57.94a3.274,3.274,0,0,0,2.089.794,3.342,3.342,0,1,0-3.344-3.341,3.268,3.268,0,0,0,.324,1.388L253.35,350.2a3.284,3.284,0,0,0-2.086-.792,3.342,3.342,0,0,0,0,6.684Z" transform="translate(96.088 19.421)"/>
      <path id="Path_1269" data-name="Path 1269" class="cls-1" d="M217.211,369.386a3.342,3.342,0,0,0,3.341-3.344,3.26,3.26,0,0,0-.4-1.5l35.423-29.832v-18.44a3.294,3.294,0,0,0,2.6-3.191,3.342,3.342,0,0,0-6.684,0,3.294,3.294,0,0,0,2.6,3.191v17.75l-34.912,29.4a3.255,3.255,0,0,0-1.969-.714,3.342,3.342,0,0,0,0,6.684Z" transform="translate(39.055 56.618)"/>
      <path id="Path_1270" data-name="Path 1270" class="cls-1" d="M216.286,408.752a3.34,3.34,0,0,0,3.341-3.341,3.272,3.272,0,0,0-.375-1.466l64.827-52.908.273-.222V312.568a3.3,3.3,0,0,0,2.6-3.191,3.342,3.342,0,1,0-6.684,0,3.3,3.3,0,0,0,2.6,3.191v37.544l-64.568,52.7a3.278,3.278,0,0,0-2.011-.741,3.341,3.341,0,0,0,0,6.682Z" transform="translate(37.506 50.417)"/>
      <path id="Path_1271" data-name="Path 1271" class="cls-1" d="M222.023,448.125a3.341,3.341,0,1,0,3.341,3.341,3.3,3.3,0,0,0-.308-1.367l211.068-160V435.086L398.1,447.307a3.291,3.291,0,0,0-2.819-1.656,3.341,3.341,0,1,0,3.341,3.341c0-.1-.048-.182-.056-.276l39.039-12.55V287.106L224.136,448.936A3.289,3.289,0,0,0,222.023,448.125Z" transform="translate(47.115 18.718)"/>
      <path id="Path_1272" data-name="Path 1272" class="cls-1" d="M325.948,355.916H243.721a3.292,3.292,0,0,0-3.191-2.6,3.341,3.341,0,1,0,0,6.682,3.292,3.292,0,0,0,3.191-2.6h82.227a3.3,3.3,0,0,0,3.194,2.6,3.341,3.341,0,0,0,0-6.682A3.3,3.3,0,0,0,325.948,355.916Z" transform="translate(78.111 129.613)"/>
      <path id="Path_1273" data-name="Path 1273" class="cls-1" d="M328.67,334.463a3.342,3.342,0,1,0-3.344-3.344,3.245,3.245,0,0,0,.2.995l-70.185,41.519a3.306,3.306,0,0,0-2.413-1.054,3.341,3.341,0,1,0,3.341,3.341,3.259,3.259,0,0,0-.2-1l70.188-41.516A3.312,3.312,0,0,0,328.67,334.463Z" transform="translate(98.879 86.838)"/>
      <path id="Path_1274" data-name="Path 1274" class="cls-1" d="M326.7,354.426l-35.966,11.427a3.291,3.291,0,0,0-2.825-1.667,3.342,3.342,0,1,0,3.341,3.341c0-.094-.045-.171-.053-.265l35.966-11.424a3.292,3.292,0,0,0,2.825,1.666,3.342,3.342,0,1,0-3.341-3.341C326.645,354.257,326.69,354.335,326.7,354.426Z" transform="translate(157.461 125.428)"/>
      <path id="Path_1275" data-name="Path 1275" class="cls-1" d="M204.071,465.512a3.34,3.34,0,0,0,3.341-3.341,3.12,3.12,0,0,0-.142-.706L216.2,457.2V435.148l23.656-39.922.1-.174V367.346a3.29,3.29,0,0,0,2.6-3.191,3.341,3.341,0,1,0-6.682,0,3.29,3.29,0,0,0,2.6,3.191v27.3l-23.656,39.924-.1.174V456.26l-8.07,3.86a3.28,3.28,0,0,0-2.573-1.289,3.341,3.341,0,1,0,0,6.682Z" transform="translate(17.048 142.166)"/>
      <path id="Path_1276" data-name="Path 1276" class="cls-1" d="M195.465,411.637a3.255,3.255,0,0,0,1.739-.556l22.5,22.5a3.3,3.3,0,0,0-1.094,2.439,3.624,3.624,0,1,0,2.466-3.167L198.252,410.03a3.244,3.244,0,0,0,.556-1.733,3.342,3.342,0,1,0-3.344,3.341Z" transform="translate(2.635 216.091)"/>
      <path id="Path_1277" data-name="Path 1277" class="cls-1" d="M215.37,408.757a3.341,3.341,0,1,0-6.682,0,3.29,3.29,0,0,0,2.6,3.191v46.587a3.292,3.292,0,0,0-2.6,3.191,3.341,3.341,0,1,0,6.682,0,3.29,3.29,0,0,0-2.6-3.191V411.948A3.29,3.29,0,0,0,215.37,408.757Z" transform="translate(30.376 216.867)"/>
      <path id="Path_1278" data-name="Path 1278" class="cls-1" d="M224.987,611.2V503.471l25.74-12.374V369.567a3.292,3.292,0,0,0,2.6-3.191,3.342,3.342,0,0,0-6.684,0,3.292,3.292,0,0,0,2.6,3.191v120.6L223.5,502.535V611.2a3.294,3.294,0,0,0-2.6,3.191,3.341,3.341,0,1,0,6.682,0A3.294,3.294,0,0,0,224.987,611.2Z" transform="translate(50.834 145.886)"/>
      <path id="Path_1279" data-name="Path 1279" class="cls-1" d="M219.25,533.774v-74.66l22.279-17.328v-48.16a3.29,3.29,0,0,0,2.6-3.191,3.341,3.341,0,0,0-6.682,0,3.29,3.29,0,0,0,2.6,3.191v47.435l-22.276,17.325v75.387a3.294,3.294,0,0,0-2.6,3.191,3.342,3.342,0,0,0,6.684,0A3.294,3.294,0,0,0,219.25,533.774Z" transform="translate(41.224 186.181)"/>
      <path id="Path_1280" data-name="Path 1280" class="cls-1" d="M252.307,465.379a3.206,3.206,0,0,0-3.146,4.32l-52.847,30.9a3.991,3.991,0,1,0,.722,1.295L249.884,471a3.334,3.334,0,1,0,2.423-5.617Z" transform="translate(0 317.295)"/>
      <path id="Path_1281" data-name="Path 1281" class="cls-1" d="M261.226,529.813a3.341,3.341,0,1,0,3.341-3.341,3.131,3.131,0,0,0-.744.15l-30.276-61.46a3.284,3.284,0,0,0,1.257-2.549,3.342,3.342,0,1,0-3.341,3.341,3.3,3.3,0,0,0,.744-.15l30.276,61.46A3.284,3.284,0,0,0,261.226,529.813Z" transform="translate(62.922 307.066)"/>
      <path id="Path_1282" data-name="Path 1282" class="cls-1" d="M298.986,532.35a2.1,2.1,0,1,0,0-4.208,1.825,1.825,0,0,0-.34.07l-20.81-35.289a2.058,2.058,0,0,0,.482-1.289,2.1,2.1,0,1,0-2.1,2.105,1.989,1.989,0,0,0,.337-.07l20.813,35.289a2.057,2.057,0,0,0-.482,1.289A2.1,2.1,0,0,0,298.986,532.35Z" transform="translate(139.947 357.745)"/>
      <path id="Path_1283" data-name="Path 1283" class="cls-1" d="M325.5,533.539a2.1,2.1,0,0,0,0-4.208,2.035,2.035,0,0,0-.46.094l-20.955-31.076-.168-.254-55.093-11.066a2.074,2.074,0,0,0-2.033-1.755,2.1,2.1,0,1,0,0,4.208,2.064,2.064,0,0,0,1.741-.995l54.494,10.945,20.781,30.819a2.066,2.066,0,0,0-.412,1.185A2.1,2.1,0,0,0,325.5,533.539Z" transform="translate(90.664 350.615)"/>
      <path id="Path_1284" data-name="Path 1284" class="cls-1" d="M246.7,470.031l9.4,28.2,54.435,18.788a2.1,2.1,0,1,0,2.092-2.167,2.073,2.073,0,0,0-1.591.768l-53.759-18.553-9.172-27.519a2.07,2.07,0,0,0,.786-1.6,2.1,2.1,0,1,0-2.191,2.086Z" transform="translate(90.664 318.07)"/>
      <path id="Path_1285" data-name="Path 1285" class="cls-1" d="M227.843,510.968a2.1,2.1,0,1,0,2.846-1.953v-85.2a2.1,2.1,0,1,0-1.484,0v85.2A2.088,2.088,0,0,0,227.843,510.968Z" transform="translate(62.458 240.889)"/>
      <path id="Path_1286" data-name="Path 1286" class="cls-1" d="M239.824,421.864a2.1,2.1,0,1,0-2.846,1.953v63.912a2.1,2.1,0,1,0,1.484,0V423.817A2.1,2.1,0,0,0,239.824,421.864Z" transform="translate(75.476 240.889)"/>
      <path id="Path_1287" data-name="Path 1287" class="cls-1" d="M228.721,419.088a2.105,2.105,0,1,0-2.849,1.953V531.484a2.105,2.105,0,1,0,1.487,0V421.041A2.1,2.1,0,0,0,228.721,419.088Z" transform="translate(56.877 236.24)"/>
      <path id="Path_1288" data-name="Path 1288" class="cls-1" d="M232.051,376.7a2.1,2.1,0,1,0-2.846,1.955v74.8a2.1,2.1,0,1,0,1.484,0v-74.8A2.1,2.1,0,0,0,232.051,376.7Z" transform="translate(62.458 165.259)"/>
      <path id="Path_1289" data-name="Path 1289" class="cls-1" d="M239.824,376.7a2.1,2.1,0,1,0-2.846,1.955v65.4a2.1,2.1,0,1,0,1.484,0v-65.4A2.1,2.1,0,0,0,239.824,376.7Z" transform="translate(75.476 165.259)"/>
      <path id="Path_1290" data-name="Path 1290" class="cls-1" d="M243.22,367.706a2.1,2.1,0,1,0-1.955-2.849H221.907a2.105,2.105,0,1,0,0,1.487h19.358A2.1,2.1,0,0,0,243.22,367.706Z" transform="translate(45.719 146.661)"/>
      <path id="Path_1291" data-name="Path 1291" class="cls-1" d="M278.367,367.509a2.1,2.1,0,0,0,4.2.054l49.289-17.274a2.076,2.076,0,0,0,1.586.76,2.1,2.1,0,1,0-2.092-2.156l-49.292,17.274a2.073,2.073,0,0,0-1.583-.762A2.106,2.106,0,0,0,278.367,367.509Z" transform="translate(147.077 118.764)"/>
      <path id="Path_1292" data-name="Path 1292" class="cls-1" d="M250.488,340.46a2.1,2.1,0,0,0,.744-4.058v-10.06l42.754-33.73a2.038,2.038,0,0,0,1.054.324,2.1,2.1,0,1,0-2.1-2.1,2.06,2.06,0,0,0,.123.615L250.028,325.4l-.284.222V336.4a2.1,2.1,0,0,0,.744,4.058Z" transform="translate(96.864 21.436)"/>
      <path id="Path_1293" data-name="Path 1293" class="cls-1" d="M347.813,285.571v19.457l-92.715,69.9a2.035,2.035,0,0,0-1.094-.35,2.1,2.1,0,1,0,2.105,2.1,2.056,2.056,0,0,0-.115-.57L349.3,305.766v-20.2a2.1,2.1,0,1,0-1.487,0Z" transform="translate(102.752 9.347)"/>
      <path id="Path_1294" data-name="Path 1294" class="cls-1" d="M273.948,315.181V345.54L229.7,380.746a2.047,2.047,0,0,0-1.049-.318,2.1,2.1,0,1,0,2.1,2.1,2.019,2.019,0,0,0-.126-.623l44.8-35.65V315.181a2.1,2.1,0,1,0-1.485,0Z" transform="translate(60.287 58.942)"/>
      <path id="Path_1295" data-name="Path 1295" class="cls-1" d="M267.672,318.882v13.034l-50.19,40.155a2.045,2.045,0,0,0-1.046-.318,2.1,2.1,0,1,0,2.105,2.105,2.072,2.072,0,0,0-.128-.631l50.747-40.6V318.882a2.105,2.105,0,1,0-1.487,0Z" transform="translate(39.831 65.141)"/>
      <path id="Path_1296" data-name="Path 1296" class="cls-1" d="M237.258,374.844a2.094,2.094,0,0,0,1.9-1.238h43.081l63.3-33.823a2.073,2.073,0,0,0,1.367.532,2.1,2.1,0,1,0-2.105-2.1,2.04,2.04,0,0,0,.051.254l-62.982,33.655H239.235a2.078,2.078,0,0,0-1.977-1.485,2.1,2.1,0,1,0,0,4.208Z" transform="translate(74.701 100.786)"/>
      <path id="Path_1297" data-name="Path 1297" class="cls-1" d="M204.593,403.652a2.1,2.1,0,0,0,2.1-2.105,2.07,2.07,0,0,0-.944-1.709l10.817-46.678H238.28a2.105,2.105,0,1,0,0-1.487H215.389L204.3,399.5a2.081,2.081,0,0,0-1.816,2.046A2.1,2.1,0,0,0,204.593,403.652Z" transform="translate(19.992 124.575)"/>
      <path id="Path_1298" data-name="Path 1298" class="cls-1" d="M380.262,594.365a3.292,3.292,0,0,0-3.191,2.6H363.847l-32.6-52.844-65.782-22.749-26.3-59.646a3.28,3.28,0,0,0,1.372-2.629,3.82,3.82,0,1,0-2.734,3.22l26.566,60.245,65.894,22.792,32.751,53.1h14.054a3.292,3.292,0,0,0,3.191,2.6,3.341,3.341,0,1,0,0-6.682Z" transform="translate(72.532 301.176)"/>
      <path id="Path_1299" data-name="Path 1299" class="cls-1" d="M367.919,590.872a3.284,3.284,0,0,0-1.193.241L336.853,546.77l-.174-.259-75.69-13.85L228.967,470.5a3.284,3.284,0,0,0,1.209-2.517,3.341,3.341,0,1,0-3.341,3.341,3.122,3.122,0,0,0,.8-.163l32.368,62.829L335.8,547.858l29.7,44.084a3.324,3.324,0,1,0,2.426-1.07Z" transform="translate(55.174 316.055)"/>
      <path id="Path_1300" data-name="Path 1300" class="cls-1" d="M316.216,494.472a3.342,3.342,0,0,0-3.341,3.341,3.294,3.294,0,0,0,.808,2.11l-14.415,19.015a3.291,3.291,0,0,0-1.367-.31,3.342,3.342,0,1,0,3.341,3.344,3.288,3.288,0,0,0-.808-2.11l14.415-19.015a3.3,3.3,0,0,0,1.367.308,3.341,3.341,0,1,0,0-6.682Z" transform="translate(174.199 366.02)"/>
      <path id="Path_1301" data-name="Path 1301" class="cls-1" d="M313.738,507.575a3.342,3.342,0,0,0-3.341,3.341,3.257,3.257,0,0,0,.674,1.91l-10.127,11.523a3.266,3.266,0,0,0-1.562-.439,3.342,3.342,0,1,0,3.344,3.341,3.263,3.263,0,0,0-.674-1.91l10.127-11.523a3.235,3.235,0,0,0,1.559.439,3.341,3.341,0,1,0,0-6.682Z" transform="translate(176.678 387.966)"/>
      <path id="Path_1302" data-name="Path 1302" class="cls-1" d="M244.231,465.954a3.316,3.316,0,0,0,2.386-1.014l87.724,53.692,26.312,29.854,14.19-21.76a2.034,2.034,0,0,0,.572.118,2.1,2.1,0,1,0-2.1-2.1,2.05,2.05,0,0,0,.345,1.089l-13.182,20.214-25.1-28.476-88.018-53.906a3.317,3.317,0,1,0-3.132,2.3Z" transform="translate(84.309 307.066)"/>
      <path id="Path_1303" data-name="Path 1303" class="cls-1" d="M536.873,443.705l10.64,53.2a3.391,3.391,0,1,0,1.482-.171l-10.905-54.518H481.3V417.329L319.918,303.416v89.066l43.875,16.806a3.116,3.116,0,0,0-.128.629,3.341,3.341,0,1,0,3.341-3.341,3.286,3.286,0,0,0-2.613,1.351L321.4,391.463V306.281L479.811,418.1v25.6Z" transform="translate(216.668 46.034)"/>
      <path id="Path_1304" data-name="Path 1304" class="cls-1" d="M444.048,396.712a1.945,1.945,0,0,0-.094.465,2.1,2.1,0,1,0,2.1-2.1,2.036,2.036,0,0,0-1.177.407L326.508,315.087v39.791a2.1,2.1,0,1,0,1.485,0V317.89Z" transform="translate(225.424 65.581)"/>
      <path id="Path_1305" data-name="Path 1305" class="cls-1" d="M398.42,351.673a2.1,2.1,0,1,0,0,1.487h21.712l10.817,46.678a2.066,2.066,0,0,0-.944,1.709,2.1,2.1,0,1,0,4.208,0A2.081,2.081,0,0,0,432.4,399.5l-11.084-47.829Z" transform="translate(341.349 124.575)"/>
      <path id="Path_1306" data-name="Path 1306" class="cls-1" d="M411.442,432.852a3.3,3.3,0,0,0-.875-.177,3.342,3.342,0,1,0,3.341,3.344,3.307,3.307,0,0,0-1.091-2.439l22.5-22.5a3.253,3.253,0,0,0,1.736.556,3.342,3.342,0,1,0-3.341-3.341,3.243,3.243,0,0,0,.554,1.733Z" transform="translate(362.89 216.091)"/>
      <path id="Path_1307" data-name="Path 1307" class="cls-1" d="M430.432,478.73a3.274,3.274,0,0,0,2.7,1.474,3.341,3.341,0,1,0-3.344-3.341,3.268,3.268,0,0,0,.1.487l-49.506,19.615-.2.078-34.7,47.9-25.6-31.889a3.275,3.275,0,0,0,.754-2.033,3.341,3.341,0,1,0-3.341,3.341,3.266,3.266,0,0,0,1.442-.358l26.807,33.39,35.589-49.129Z" transform="translate(206.671 330.933)"/>
      <path id="Path_1308" data-name="Path 1308" class="cls-1" d="M375.246,545.354l65.587-22.685.3-.107,26.569-60.245a3.282,3.282,0,0,0,.6.123,3.342,3.342,0,1,0-3.341-3.344,3.287,3.287,0,0,0,1.372,2.629l-26.3,59.646-65.533,22.664-.249.085-32.6,52.844H328.439a3.292,3.292,0,0,0-3.191-2.6,3.341,3.341,0,1,0,0,6.682,3.29,3.29,0,0,0,3.191-2.6H342.5Z" transform="translate(219.999 301.176)"/>
      <path id="Path_1309" data-name="Path 1309" class="cls-1" d="M415.136,488.487a2.069,2.069,0,0,0,1.744.995,2.1,2.1,0,0,0,0-4.208,2.079,2.079,0,0,0-2.036,1.755l-55.091,11.066-21.126,31.33a2.037,2.037,0,0,0-.46-.094,2.1,2.1,0,1,0,2.105,2.105,2.033,2.033,0,0,0-.412-1.182l20.781-30.822Z" transform="translate(243.711 350.615)"/>
      <path id="Path_1310" data-name="Path 1310" class="cls-1" d="M334.687,294.21a3.272,3.272,0,0,0,2.086-.794l75.09,57.94a3.289,3.289,0,0,0-.324,1.391,3.341,3.341,0,1,0,3.341-3.341,3.284,3.284,0,0,0-2.086.792L337.7,292.258a3.267,3.267,0,0,0,.324-1.388,3.341,3.341,0,1,0-3.341,3.341Z" transform="translate(235.808 19.421)"/>
      <path id="Path_1311" data-name="Path 1311" class="cls-1" d="M311.489,279.271a3.341,3.341,0,0,0-6.682,0,3.294,3.294,0,0,0,2.6,3.191V485.185a3.3,3.3,0,0,0-2.6,3.194,3.341,3.341,0,0,0,6.682,0,3.3,3.3,0,0,0-2.6-3.194V282.462A3.292,3.292,0,0,0,311.489,279.271Z" transform="translate(191.359 0)"/>
      <path id="Path_1312" data-name="Path 1312" class="cls-1" d="M373.733,312.568v38.247l65.1,53.13a3.281,3.281,0,0,0-.375,1.466,3.342,3.342,0,1,0,3.341-3.341,3.277,3.277,0,0,0-2.009.741l-64.573-52.7V312.568a3.3,3.3,0,0,0,2.6-3.191,3.341,3.341,0,1,0-6.682,0A3.294,3.294,0,0,0,373.733,312.568Z" transform="translate(302.449 50.417)"/>
      <path id="Path_1313" data-name="Path 1313" class="cls-1" d="M383.912,316.267v18.44l35.425,29.832a3.231,3.231,0,0,0-.4,1.5,3.341,3.341,0,1,0,3.341-3.341,3.261,3.261,0,0,0-1.969.714l-34.912-29.4v-17.75a3.292,3.292,0,0,0,2.6-3.191,3.341,3.341,0,1,0-6.682,0A3.292,3.292,0,0,0,383.912,316.267Z" transform="translate(319.497 56.618)"/>
      <path id="Path_1314" data-name="Path 1314" class="cls-1" d="M350.2,448.992a3.342,3.342,0,1,0,3.344-3.341,3.288,3.288,0,0,0-2.819,1.656L312.7,435.086V290.1l211.068,160a3.3,3.3,0,0,0-.308,1.367,3.341,3.341,0,1,0,3.341-3.341,3.293,3.293,0,0,0-2.11.808L311.22,287.106v149.06l39.036,12.548C350.248,448.81,350.2,448.893,350.2,448.992Z" transform="translate(202.1 18.718)"/>
      <path id="Path_1315" data-name="Path 1315" class="cls-1" d="M342.277,360a3.294,3.294,0,0,0,3.191-2.6h82.227a3.292,3.292,0,0,0,3.191,2.6,3.341,3.341,0,0,0,0-6.682,3.294,3.294,0,0,0-3.191,2.6H345.468a3.294,3.294,0,0,0-3.191-2.6,3.341,3.341,0,1,0,0,6.682Z" transform="translate(248.515 129.613)"/>
      <path id="Path_1316" data-name="Path 1316" class="cls-1" d="M334.687,334.463a3.317,3.317,0,0,0,2.413-1.054l70.185,41.519a3.228,3.228,0,0,0-.2.992,3.377,3.377,0,1,0,.928-2.29l-70.185-41.516a3.245,3.245,0,0,0,.2-.995,3.341,3.341,0,1,0-3.341,3.344Z" transform="translate(235.808 86.838)"/>
      <path id="Path_1317" data-name="Path 1317" class="cls-1" d="M312.293,357.5a3.292,3.292,0,0,0,2.827-1.666l35.963,11.424c-.008.094-.053.171-.053.265a3.341,3.341,0,1,0,3.341-3.341,3.294,3.294,0,0,0-2.825,1.664L315.58,354.428c.008-.094.054-.171.054-.265a3.341,3.341,0,1,0-3.341,3.341Z" transform="translate(198.301 125.428)"/>
      <path id="Path_1318" data-name="Path 1318" class="cls-1" d="M431.3,460.12l-8.073-3.86V434.741l-23.763-40.1V367.349a3.3,3.3,0,0,0,2.6-3.194,3.341,3.341,0,1,0-6.682,0,3.3,3.3,0,0,0,2.6,3.194v27.7l23.76,40.1V457.2l8.929,4.269a3.239,3.239,0,0,0-.142.706,3.341,3.341,0,1,0,3.341-3.341A3.275,3.275,0,0,0,431.3,460.12Z" transform="translate(343.054 142.166)"/>
      <path id="Path_1319" data-name="Path 1319" class="cls-1" d="M426.1,440.8a3.294,3.294,0,0,0-2.6-3.191V423.54l-32.176-18.81V375.677a3.3,3.3,0,0,0,2.6-3.194,3.341,3.341,0,0,0-6.682,0,3.3,3.3,0,0,0,2.6,3.194v29.9l32.176,18.812v13.214a3.294,3.294,0,0,0-2.6,3.191,3.342,3.342,0,0,0,6.684,0Z" transform="translate(329.415 156.114)"/>
      <path id="Path_1320" data-name="Path 1320" class="cls-1" d="M407.244,408.757a3.341,3.341,0,1,0-6.682,0,3.3,3.3,0,0,0,2.6,3.194v46.582a3.3,3.3,0,0,0-2.6,3.194,3.341,3.341,0,1,0,6.682,0,3.29,3.29,0,0,0-2.6-3.191V411.948A3.29,3.29,0,0,0,407.244,408.757Z" transform="translate(351.732 216.867)"/>
      <path id="Path_1321" data-name="Path 1321" class="cls-1" d="M468.545,414.855A3.34,3.34,0,0,0,465.2,418.2a3.292,3.292,0,0,0,2.6,3.191v83.032l-135.02,85.659a3.338,3.338,0,1,0,.99,2.37,3.272,3.272,0,0,0-.222-1.1l135.392-85.894.345-.219V421.387a3.294,3.294,0,0,0,2.6-3.191A3.34,3.34,0,0,0,468.545,414.855Z" transform="translate(228.678 232.676)"/>
      <path id="Path_1322" data-name="Path 1322" class="cls-1" d="M408.548,611.2V502.535l-25.743-12.371v-120.6a3.292,3.292,0,0,0,2.6-3.191,3.341,3.341,0,0,0-6.682,0,3.29,3.29,0,0,0,2.6,3.191V491.1l25.742,12.374V611.2a3.294,3.294,0,0,0-2.6,3.191,3.342,3.342,0,1,0,6.685,0A3.3,3.3,0,0,0,408.548,611.2Z" transform="translate(315.158 145.886)"/>
      <path id="Path_1323" data-name="Path 1323" class="cls-1" d="M412.116,533.774V458.386L389.84,441.061V393.626a3.292,3.292,0,0,0,2.6-3.191,3.342,3.342,0,0,0-6.684,0,3.3,3.3,0,0,0,2.6,3.194v48.158l22.276,17.328v74.66a3.292,3.292,0,0,0-2.6,3.191,3.342,3.342,0,0,0,6.684,0A3.294,3.294,0,0,0,412.116,533.774Z" transform="translate(326.935 186.181)"/>
      <path id="Path_1324" data-name="Path 1324" class="cls-1" d="M458.616,499.537A3.314,3.314,0,0,0,456.2,500.6l-52.849-30.9a3.222,3.222,0,0,0,.2-.979,3.342,3.342,0,1,0-3.341,3.341,3.306,3.306,0,0,0,2.421-1.067l52.849,30.9a3.248,3.248,0,0,0-.2.982,3.341,3.341,0,1,0,3.341-3.341Z" transform="translate(345.532 317.295)"/>
      <path id="Path_1325" data-name="Path 1325" class="cls-1" d="M477.436,464.639a3.34,3.34,0,0,0-3.341,3.341A3.293,3.293,0,0,0,475.3,470.5L443.281,532.66,367.9,546.454l-.31.056-30.044,44.6a3.3,3.3,0,0,0-1.2-.241,3.39,3.39,0,1,0,2.426,1.07l29.7-44.084,75.433-13.8.358-.07,32.368-62.826a3.19,3.19,0,0,0,.8.161,3.341,3.341,0,1,0,0-6.682Z" transform="translate(238.596 316.055)"/>
      <path id="Path_1326" data-name="Path 1326" class="cls-1" d="M401.857,462.613a3.284,3.284,0,0,0,1.257,2.549l-30.276,61.46a3.13,3.13,0,0,0-.744-.15,3.341,3.341,0,1,0,3.341,3.341,3.276,3.276,0,0,0-1.257-2.549l30.279-61.46a3.275,3.275,0,0,0,.744.15,3.341,3.341,0,1,0-3.344-3.341Z" transform="translate(298.458 307.066)"/>
      <path id="Path_1327" data-name="Path 1327" class="cls-1" d="M338.175,521.568a2.1,2.1,0,0,0-2.1-2.105,2.019,2.019,0,0,0-.658.134L317.576,497.84a2.04,2.04,0,0,0,.3-1.024,2.1,2.1,0,1,0-2.1,2.105,2.057,2.057,0,0,0,.655-.134l17.841,21.757a2.042,2.042,0,0,0-.3,1.024,2.1,2.1,0,0,0,4.207,0Z" transform="translate(206.205 366.424)"/>
      <path id="Path_1328" data-name="Path 1328" class="cls-1" d="M331.407,524.487a2.1,2.1,0,0,0-.851.185l-14.778-14.99A2.1,2.1,0,1,0,313.833,511a2.044,2.044,0,0,0,.923-.235L329.5,525.718a2.075,2.075,0,0,0-.2.872,2.1,2.1,0,1,0,2.105-2.1Z" transform="translate(202.951 386.648)"/>
      <path id="Path_1329" data-name="Path 1329" class="cls-1" d="M352.425,493.739a2.1,2.1,0,1,0-2.1-2.105,2.058,2.058,0,0,0,.481,1.289l-20.81,35.289a1.827,1.827,0,0,0-.34-.07,2.1,2.1,0,1,0,2.105,2.105,2.06,2.06,0,0,0-.484-1.289l20.813-35.289A2.1,2.1,0,0,0,352.425,493.739Z" transform="translate(229.453 357.745)"/>
      <path id="Path_1330" data-name="Path 1330" class="cls-1" d="M342.979,519.058a2.1,2.1,0,0,0,2.092-2.041l54.09-18.668.345-.12,9.4-28.2a2.1,2.1,0,1,0-2.191-2.086,2.062,2.062,0,0,0,.786,1.6l-9.172,27.519-53.759,18.553a2.069,2.069,0,0,0-1.592-.768,2.1,2.1,0,0,0,0,4.208Z" transform="translate(251.77 318.07)"/>
      <path id="Path_1331" data-name="Path 1331" class="cls-1" d="M385.664,533.44a2.1,2.1,0,1,0,2.846-1.955V421.041a2.1,2.1,0,1,0-1.484,0V531.484A2.092,2.092,0,0,0,385.664,533.44Z" transform="translate(326.781 236.24)"/>
      <path id="Path_1332" data-name="Path 1332" class="cls-1" d="M382.332,510.968a2.1,2.1,0,1,0,2.846-1.953v-85.2a2.105,2.105,0,1,0-1.482,0v85.2A2.088,2.088,0,0,0,382.332,510.968Z" transform="translate(321.2 240.889)"/>
      <path id="Path_1333" data-name="Path 1333" class="cls-1" d="M378.769,421.864a2.105,2.105,0,1,0-2.849,1.953v63.912a2.107,2.107,0,1,0,1.484,0V423.817A2.088,2.088,0,0,0,378.769,421.864Z" transform="translate(308.182 240.889)"/>
      <path id="Path_1334" data-name="Path 1334" class="cls-1" d="M411.42,448.826a2.105,2.105,0,1,0,2.846-1.955V424.218L394.457,407.9a2.018,2.018,0,0,0,.134-.661,2.1,2.1,0,1,0-2.105,2.105,2.065,2.065,0,0,0,1.024-.3l19.275,15.872v21.952A2.1,2.1,0,0,0,411.42,448.826Z" transform="translate(334.684 216.401)"/>
      <path id="Path_1335" data-name="Path 1335" class="cls-1" d="M406.552,426.214a2.048,2.048,0,0,0-1.1.353l-8.062-6.042V396.612a2.105,2.105,0,1,0-1.482,0v24.654l8.65,6.489a1.98,1.98,0,0,0-.115.564,2.105,2.105,0,1,0,2.105-2.1Z" transform="translate(341.658 195.325)"/>
      <path id="Path_1336" data-name="Path 1336" class="cls-1" d="M386.54,376.7a2.1,2.1,0,1,0-2.843,1.955v74.8a2.1,2.1,0,1,0,1.482,0v-74.8A2.092,2.092,0,0,0,386.54,376.7Z" transform="translate(321.2 165.259)"/>
      <path id="Path_1337" data-name="Path 1337" class="cls-1" d="M378.769,376.7a2.105,2.105,0,1,0-2.849,1.955v65.4a2.107,2.107,0,1,0,1.484,0v-65.4A2.091,2.091,0,0,0,378.769,376.7Z" transform="translate(308.182 165.259)"/>
      <path id="Path_1338" data-name="Path 1338" class="cls-1" d="M406.31,406.421a2.1,2.1,0,1,0,0-4.208,2.036,2.036,0,0,0-1.051.324l-10.087-7.984V374.588a2.1,2.1,0,1,0-1.484,0V395.27l10.646,8.426a2.019,2.019,0,0,0-.126.621A2.1,2.1,0,0,0,406.31,406.421Z" transform="translate(337.939 158.439)"/>
      <path id="Path_1339" data-name="Path 1339" class="cls-1" d="M387.686,366.344h19.358a2.1,2.1,0,1,0,0-1.487H387.686a2.105,2.105,0,1,0,0,1.487Z" transform="translate(323.371 146.661)"/>
      <path id="Path_1340" data-name="Path 1340" class="cls-1" d="M387.836,349.869a2.1,2.1,0,1,0-2.846,1.955v8.193h13.021a2.1,2.1,0,1,0,0-1.485H386.471v-6.708A2.094,2.094,0,0,0,387.836,349.869Z" transform="translate(323.371 120.315)"/>
      <path id="Path_1341" data-name="Path 1341" class="cls-1" d="M336.134,340.315a2.072,2.072,0,0,0,1.364-.532l63.134,33.735,43.241.086a2.1,2.1,0,1,0,1.91-2.966,2.078,2.078,0,0,0-1.979,1.485H401.167l-62.982-33.655a2.029,2.029,0,0,0,.051-.254,2.1,2.1,0,1,0-2.1,2.1Z" transform="translate(240.301 100.786)"/>
      <path id="Path_1342" data-name="Path 1342" class="cls-1" d="M331.8,416.047a2.1,2.1,0,1,0-1.493-3.587l-12.125-5.433V302.041a2.1,2.1,0,1,0-1.482,0V407.988l13.018,5.836c0,.043-.024.078-.024.118A2.1,2.1,0,0,0,331.8,416.047Z" transform="translate(208.995 36.935)"/>
      <path id="Path_1343" data-name="Path 1343" class="cls-1" d="M367.078,369.615a2.105,2.105,0,0,0,0-4.21,2.074,2.074,0,0,0-1.586.762L316.2,348.893a2.1,2.1,0,1,0-2.094,2.156,2.077,2.077,0,0,0,1.586-.76l49.289,17.274A2.1,2.1,0,0,0,367.078,369.615Z" transform="translate(203.416 118.764)"/>
      <path id="Path_1344" data-name="Path 1344" class="cls-1" d="M347.238,292.937a2.055,2.055,0,0,0,1.057-.324l42.754,33.73V336.4a2.1,2.1,0,1,0,1.484,0V325.62l-43.316-34.171a2.06,2.06,0,0,0,.123-.615,2.1,2.1,0,1,0-2.1,2.1Z" transform="translate(258.898 21.436)"/>
      <path id="Path_1345" data-name="Path 1345" class="cls-1" d="M324.286,285.571v20.2l93.3,70.345a2.052,2.052,0,0,0-.115.57,2.1,2.1,0,1,0,2.105-2.1,2.043,2.043,0,0,0-1.094.35l-92.718-69.9V285.571a2.1,2.1,0,1,0-1.482,0Z" transform="translate(221.704 9.347)"/>
      <path id="Path_1346" data-name="Path 1346" class="cls-1" d="M367.78,315.181v31.076l44.8,35.65a2.019,2.019,0,0,0-.126.623,2.1,2.1,0,1,0,2.1-2.1,2.024,2.024,0,0,0-1.048.321L369.262,345.54V315.181a2.105,2.105,0,1,0-1.482,0Z" transform="translate(294.544 58.942)"/>
      <path id="Path_1347" data-name="Path 1347" class="cls-1" d="M377.772,318.882V332.63l50.744,40.6a2.069,2.069,0,0,0-.126.631,2.1,2.1,0,1,0,2.1-2.105,2.036,2.036,0,0,0-1.043.318l-50.193-40.155V318.882a2.1,2.1,0,1,0-1.484,0Z" transform="translate(311.282 65.141)"/>
      <path id="Path_1348" data-name="Path 1348" class="cls-1" d="M311.183,501.154a3.3,3.3,0,0,0,1.367-.308l14.415,19.015a3.288,3.288,0,0,0-.808,2.11,3.342,3.342,0,1,0,3.341-3.344,3.3,3.3,0,0,0-1.367.308l-14.415-19.013a3.294,3.294,0,0,0,.808-2.11,3.341,3.341,0,1,0-3.341,3.341Z" transform="translate(196.442 366.02)"/>
      <path id="Path_1349" data-name="Path 1349" class="cls-1" d="M325.539,523.91a3.275,3.275,0,0,0-1.562.439L313.85,512.826a3.264,3.264,0,0,0,.674-1.91,3.341,3.341,0,1,0-3.341,3.341,3.255,3.255,0,0,0,1.559-.436l10.127,11.523a3.245,3.245,0,0,0-.671,1.907,3.341,3.341,0,1,0,3.341-3.341Z" transform="translate(196.442 387.966)"/>
      <path id="Path_1350" data-name="Path 1350" class="cls-1" d="M453.066,465.954a3.341,3.341,0,1,0-3.341-3.341,3.266,3.266,0,0,0,.211,1.046l-87.847,53.767L336.82,546.041l-13.182-20.214a2.053,2.053,0,0,0,.348-1.089,2.1,2.1,0,1,0-2.105,2.1,2.033,2.033,0,0,0,.572-.118l14.19,21.76,26.315-29.854L450.68,464.94A3.316,3.316,0,0,0,453.066,465.954Z" transform="translate(216.435 307.066)"/>
    </g>
    <g id="SciFI-2" data-name="SciFI" class="cls-5" transform="translate(1103.333 1866.794) rotate(91)">
      <path id="Path_1256-2" data-name="Path 1256" class="cls-1" d="M293.066,412.46a2.1,2.1,0,1,0,.612,1.482c0-.04-.021-.075-.024-.118l13.021-5.836V302.041a2.105,2.105,0,1,0-1.487,0V407.028Z" transform="translate(165.674 36.935)"/>
      <path id="Path_1257-2" data-name="Path 1257" class="cls-1" d="M277.268,418.1,435.677,306.281v85.183l-42.99,16.464a3.282,3.282,0,0,0-2.613-1.351,3.791,3.791,0,1,0,3.215,2.712l43.875-16.806V303.416L276.1,417.11l-.313.219v24.889H218.989l-10.905,54.518a3.279,3.279,0,1,0,1.482.171l10.64-53.2h57.062Z" transform="translate(24.293 46.034)"/>
      <path id="Path_1258-2" data-name="Path 1258" class="cls-1" d="M360.78,354.88a2.1,2.1,0,1,0,1.487,0V315.087L243.892,395.482a2.036,2.036,0,0,0-1.177-.407,2.1,2.1,0,1,0,2.105,2.1,1.967,1.967,0,0,0-.1-.468L360.78,317.89Z" transform="translate(83.845 65.581)"/>
      <path id="Path_1259-2" data-name="Path 1259" class="cls-1" d="M225.282,358.533a2.1,2.1,0,1,0,0,1.485h13.024v-8.193a2.105,2.105,0,1,0-1.487,0v6.708Z" transform="translate(51.377 120.315)"/>
      <path id="Path_1260-2" data-name="Path 1260" class="cls-1" d="M246.246,375.677a3.3,3.3,0,0,0,2.6-3.194,3.341,3.341,0,0,0-6.682,0,3.3,3.3,0,0,0,2.6,3.194v29.054l-32.175,18.81v14.067a3.294,3.294,0,0,0-2.6,3.191,3.342,3.342,0,0,0,6.684,0,3.294,3.294,0,0,0-2.6-3.191V424.393l32.176-18.812Z" transform="translate(32.545 156.114)"/>
      <path id="Path_1261-2" data-name="Path 1261" class="cls-1" d="M216.563,402.534a2.059,2.059,0,0,0-1.051-.321,2.1,2.1,0,1,0,2.1,2.1,2.066,2.066,0,0,0-.123-.618l10.646-8.428V374.588a2.105,2.105,0,1,0-1.487,0v19.965Z" transform="translate(38.28 158.439)"/>
      <path id="Path_1262-2" data-name="Path 1262" class="cls-1" d="M368.863,591.348a3.273,3.273,0,0,0-.222,1.1,3.347,3.347,0,1,0,.99-2.373L234.61,504.419V421.387a3.294,3.294,0,0,0,2.6-3.191,3.342,3.342,0,0,0-6.684,0,3.294,3.294,0,0,0,2.6,3.191v83.848Z" transform="translate(66.951 232.676)"/>
      <path id="Path_1263-2" data-name="Path 1263" class="cls-1" d="M234.048,409.046a2.047,2.047,0,0,0,1.022.3,2.105,2.105,0,1,0-2.105-2.105,2.076,2.076,0,0,0,.134.661L213.559,424l-.27.222v22.653a2.108,2.108,0,1,0,1.484,0V424.918Z" transform="translate(35.801 216.401)"/>
      <path id="Path_1264-2" data-name="Path 1264" class="cls-1" d="M215.129,426.57a2.044,2.044,0,0,0-1.1-.356,2.105,2.105,0,1,0,2.105,2.1,1.98,1.98,0,0,0-.115-.564l8.653-6.489V396.612a2.1,2.1,0,1,0-1.485,0v23.913Z" transform="translate(35.801 195.325)"/>
      <path id="Path_1265-2" data-name="Path 1265" class="cls-1" d="M369.732,514a3.285,3.285,0,0,0,1.442.358,3.341,3.341,0,1,0-3.341-3.341,3.256,3.256,0,0,0,.757,2.033l-25.6,31.889-34.7-47.9-49.706-19.689a3.05,3.05,0,0,0,.1-.49,3.342,3.342,0,1,0-3.341,3.341,3.282,3.282,0,0,0,2.7-1.474l49.3,19.534,35.591,49.129Z" transform="translate(102.906 330.933)"/>
      <path id="Path_1266-2" data-name="Path 1266" class="cls-1" d="M310.66,498.787a2.056,2.056,0,0,0,.655.134,2.1,2.1,0,1,0-2.1-2.105,2.066,2.066,0,0,0,.3,1.024L291.676,519.6a1.989,1.989,0,0,0-.655-.134,2.1,2.1,0,1,0,2.1,2.105,2.066,2.066,0,0,0-.3-1.024Z" transform="translate(164.745 366.424)"/>
      <path id="Path_1267-2" data-name="Path 1267" class="cls-1" d="M310.633,510.763a2.059,2.059,0,0,0,.923.233,2.123,2.123,0,1,0-1.945-1.313l-14.781,14.99a2.1,2.1,0,1,0,1.255,1.918,2.054,2.054,0,0,0-.2-.869Z" transform="translate(169.704 386.648)"/>
      <path id="Path_1268-2" data-name="Path 1268" class="cls-1" d="M251.264,356.09a3.343,3.343,0,0,0,3.341-3.344,3.279,3.279,0,0,0-.324-1.391l75.09-57.94a3.274,3.274,0,0,0,2.089.794,3.342,3.342,0,1,0-3.344-3.341,3.268,3.268,0,0,0,.324,1.388L253.35,350.2a3.284,3.284,0,0,0-2.086-.792,3.342,3.342,0,0,0,0,6.684Z" transform="translate(96.088 19.421)"/>
      <path id="Path_1269-2" data-name="Path 1269" class="cls-1" d="M217.211,369.386a3.342,3.342,0,0,0,3.341-3.344,3.26,3.26,0,0,0-.4-1.5l35.423-29.832v-18.44a3.294,3.294,0,0,0,2.6-3.191,3.342,3.342,0,0,0-6.684,0,3.294,3.294,0,0,0,2.6,3.191v17.75l-34.912,29.4a3.255,3.255,0,0,0-1.969-.714,3.342,3.342,0,0,0,0,6.684Z" transform="translate(39.055 56.618)"/>
      <path id="Path_1270-2" data-name="Path 1270" class="cls-1" d="M216.286,408.752a3.34,3.34,0,0,0,3.341-3.341,3.272,3.272,0,0,0-.375-1.466l64.827-52.908.273-.222V312.568a3.3,3.3,0,0,0,2.6-3.191,3.342,3.342,0,1,0-6.684,0,3.3,3.3,0,0,0,2.6,3.191v37.544l-64.568,52.7a3.278,3.278,0,0,0-2.011-.741,3.341,3.341,0,0,0,0,6.682Z" transform="translate(37.506 50.417)"/>
      <path id="Path_1271-2" data-name="Path 1271" class="cls-1" d="M222.023,448.125a3.341,3.341,0,1,0,3.341,3.341,3.3,3.3,0,0,0-.308-1.367l211.068-160V435.086L398.1,447.307a3.291,3.291,0,0,0-2.819-1.656,3.341,3.341,0,1,0,3.341,3.341c0-.1-.048-.182-.056-.276l39.039-12.55V287.106L224.136,448.936A3.289,3.289,0,0,0,222.023,448.125Z" transform="translate(47.115 18.718)"/>
      <path id="Path_1272-2" data-name="Path 1272" class="cls-1" d="M325.948,355.916H243.721a3.292,3.292,0,0,0-3.191-2.6,3.341,3.341,0,1,0,0,6.682,3.292,3.292,0,0,0,3.191-2.6h82.227a3.3,3.3,0,0,0,3.194,2.6,3.341,3.341,0,0,0,0-6.682A3.3,3.3,0,0,0,325.948,355.916Z" transform="translate(78.111 129.613)"/>
      <path id="Path_1273-2" data-name="Path 1273" class="cls-1" d="M328.67,334.463a3.342,3.342,0,1,0-3.344-3.344,3.245,3.245,0,0,0,.2.995l-70.185,41.519a3.306,3.306,0,0,0-2.413-1.054,3.341,3.341,0,1,0,3.341,3.341,3.259,3.259,0,0,0-.2-1l70.188-41.516A3.312,3.312,0,0,0,328.67,334.463Z" transform="translate(98.879 86.838)"/>
      <path id="Path_1274-2" data-name="Path 1274" class="cls-1" d="M326.7,354.426l-35.966,11.427a3.291,3.291,0,0,0-2.825-1.667,3.342,3.342,0,1,0,3.341,3.341c0-.094-.045-.171-.053-.265l35.966-11.424a3.292,3.292,0,0,0,2.825,1.666,3.342,3.342,0,1,0-3.341-3.341C326.645,354.257,326.69,354.335,326.7,354.426Z" transform="translate(157.461 125.428)"/>
      <path id="Path_1275-2" data-name="Path 1275" class="cls-1" d="M204.071,465.512a3.34,3.34,0,0,0,3.341-3.341,3.12,3.12,0,0,0-.142-.706L216.2,457.2V435.148l23.656-39.922.1-.174V367.346a3.29,3.29,0,0,0,2.6-3.191,3.341,3.341,0,1,0-6.682,0,3.29,3.29,0,0,0,2.6,3.191v27.3l-23.656,39.924-.1.174V456.26l-8.07,3.86a3.28,3.28,0,0,0-2.573-1.289,3.341,3.341,0,1,0,0,6.682Z" transform="translate(17.048 142.166)"/>
      <path id="Path_1276-2" data-name="Path 1276" class="cls-1" d="M195.465,411.637a3.255,3.255,0,0,0,1.739-.556l22.5,22.5a3.3,3.3,0,0,0-1.094,2.439,3.624,3.624,0,1,0,2.466-3.167L198.252,410.03a3.244,3.244,0,0,0,.556-1.733,3.342,3.342,0,1,0-3.344,3.341Z" transform="translate(2.635 216.091)"/>
      <path id="Path_1277-2" data-name="Path 1277" class="cls-1" d="M215.37,408.757a3.341,3.341,0,1,0-6.682,0,3.29,3.29,0,0,0,2.6,3.191v46.587a3.292,3.292,0,0,0-2.6,3.191,3.341,3.341,0,1,0,6.682,0,3.29,3.29,0,0,0-2.6-3.191V411.948A3.29,3.29,0,0,0,215.37,408.757Z" transform="translate(30.376 216.867)"/>
      <path id="Path_1278-2" data-name="Path 1278" class="cls-1" d="M224.987,611.2V503.471l25.74-12.374V369.567a3.292,3.292,0,0,0,2.6-3.191,3.342,3.342,0,0,0-6.684,0,3.292,3.292,0,0,0,2.6,3.191v120.6L223.5,502.535V611.2a3.294,3.294,0,0,0-2.6,3.191,3.341,3.341,0,1,0,6.682,0A3.294,3.294,0,0,0,224.987,611.2Z" transform="translate(50.834 145.886)"/>
      <path id="Path_1279-2" data-name="Path 1279" class="cls-1" d="M219.25,533.774v-74.66l22.279-17.328v-48.16a3.29,3.29,0,0,0,2.6-3.191,3.341,3.341,0,0,0-6.682,0,3.29,3.29,0,0,0,2.6,3.191v47.435l-22.276,17.325v75.387a3.294,3.294,0,0,0-2.6,3.191,3.342,3.342,0,0,0,6.684,0A3.294,3.294,0,0,0,219.25,533.774Z" transform="translate(41.224 186.181)"/>
      <path id="Path_1280-2" data-name="Path 1280" class="cls-1" d="M252.307,465.379a3.206,3.206,0,0,0-3.146,4.32l-52.847,30.9a3.991,3.991,0,1,0,.722,1.295L249.884,471a3.334,3.334,0,1,0,2.423-5.617Z" transform="translate(0 317.295)"/>
      <path id="Path_1281-2" data-name="Path 1281" class="cls-1" d="M261.226,529.813a3.341,3.341,0,1,0,3.341-3.341,3.131,3.131,0,0,0-.744.15l-30.276-61.46a3.284,3.284,0,0,0,1.257-2.549,3.342,3.342,0,1,0-3.341,3.341,3.3,3.3,0,0,0,.744-.15l30.276,61.46A3.284,3.284,0,0,0,261.226,529.813Z" transform="translate(62.922 307.066)"/>
      <path id="Path_1282-2" data-name="Path 1282" class="cls-1" d="M298.986,532.35a2.1,2.1,0,1,0,0-4.208,1.825,1.825,0,0,0-.34.07l-20.81-35.289a2.058,2.058,0,0,0,.482-1.289,2.1,2.1,0,1,0-2.1,2.105,1.989,1.989,0,0,0,.337-.07l20.813,35.289a2.057,2.057,0,0,0-.482,1.289A2.1,2.1,0,0,0,298.986,532.35Z" transform="translate(139.947 357.745)"/>
      <path id="Path_1283-2" data-name="Path 1283" class="cls-1" d="M325.5,533.539a2.1,2.1,0,0,0,0-4.208,2.035,2.035,0,0,0-.46.094l-20.955-31.076-.168-.254-55.093-11.066a2.074,2.074,0,0,0-2.033-1.755,2.1,2.1,0,1,0,0,4.208,2.064,2.064,0,0,0,1.741-.995l54.494,10.945,20.781,30.819a2.066,2.066,0,0,0-.412,1.185A2.1,2.1,0,0,0,325.5,533.539Z" transform="translate(90.664 350.615)"/>
      <path id="Path_1284-2" data-name="Path 1284" class="cls-1" d="M246.7,470.031l9.4,28.2,54.435,18.788a2.1,2.1,0,1,0,2.092-2.167,2.073,2.073,0,0,0-1.591.768l-53.759-18.553-9.172-27.519a2.07,2.07,0,0,0,.786-1.6,2.1,2.1,0,1,0-2.191,2.086Z" transform="translate(90.664 318.07)"/>
      <path id="Path_1285-2" data-name="Path 1285" class="cls-1" d="M227.843,510.968a2.1,2.1,0,1,0,2.846-1.953v-85.2a2.1,2.1,0,1,0-1.484,0v85.2A2.088,2.088,0,0,0,227.843,510.968Z" transform="translate(62.458 240.889)"/>
      <path id="Path_1286-2" data-name="Path 1286" class="cls-1" d="M239.824,421.864a2.1,2.1,0,1,0-2.846,1.953v63.912a2.1,2.1,0,1,0,1.484,0V423.817A2.1,2.1,0,0,0,239.824,421.864Z" transform="translate(75.476 240.889)"/>
      <path id="Path_1287-2" data-name="Path 1287" class="cls-1" d="M228.721,419.088a2.105,2.105,0,1,0-2.849,1.953V531.484a2.105,2.105,0,1,0,1.487,0V421.041A2.1,2.1,0,0,0,228.721,419.088Z" transform="translate(56.877 236.24)"/>
      <path id="Path_1288-2" data-name="Path 1288" class="cls-1" d="M232.051,376.7a2.1,2.1,0,1,0-2.846,1.955v74.8a2.1,2.1,0,1,0,1.484,0v-74.8A2.1,2.1,0,0,0,232.051,376.7Z" transform="translate(62.458 165.259)"/>
      <path id="Path_1289-2" data-name="Path 1289" class="cls-1" d="M239.824,376.7a2.1,2.1,0,1,0-2.846,1.955v65.4a2.1,2.1,0,1,0,1.484,0v-65.4A2.1,2.1,0,0,0,239.824,376.7Z" transform="translate(75.476 165.259)"/>
      <path id="Path_1290-2" data-name="Path 1290" class="cls-1" d="M243.22,367.706a2.1,2.1,0,1,0-1.955-2.849H221.907a2.105,2.105,0,1,0,0,1.487h19.358A2.1,2.1,0,0,0,243.22,367.706Z" transform="translate(45.719 146.661)"/>
      <path id="Path_1291-2" data-name="Path 1291" class="cls-1" d="M278.367,367.509a2.1,2.1,0,0,0,4.2.054l49.289-17.274a2.076,2.076,0,0,0,1.586.76,2.1,2.1,0,1,0-2.092-2.156l-49.292,17.274a2.073,2.073,0,0,0-1.583-.762A2.106,2.106,0,0,0,278.367,367.509Z" transform="translate(147.077 118.764)"/>
      <path id="Path_1292-2" data-name="Path 1292" class="cls-1" d="M250.488,340.46a2.1,2.1,0,0,0,.744-4.058v-10.06l42.754-33.73a2.038,2.038,0,0,0,1.054.324,2.1,2.1,0,1,0-2.1-2.1,2.06,2.06,0,0,0,.123.615L250.028,325.4l-.284.222V336.4a2.1,2.1,0,0,0,.744,4.058Z" transform="translate(96.864 21.436)"/>
      <path id="Path_1293-2" data-name="Path 1293" class="cls-1" d="M347.813,285.571v19.457l-92.715,69.9a2.035,2.035,0,0,0-1.094-.35,2.1,2.1,0,1,0,2.105,2.1,2.056,2.056,0,0,0-.115-.57L349.3,305.766v-20.2a2.1,2.1,0,1,0-1.487,0Z" transform="translate(102.752 9.347)"/>
      <path id="Path_1294-2" data-name="Path 1294" class="cls-1" d="M273.948,315.181V345.54L229.7,380.746a2.047,2.047,0,0,0-1.049-.318,2.1,2.1,0,1,0,2.1,2.1,2.019,2.019,0,0,0-.126-.623l44.8-35.65V315.181a2.1,2.1,0,1,0-1.485,0Z" transform="translate(60.287 58.942)"/>
      <path id="Path_1295-2" data-name="Path 1295" class="cls-1" d="M267.672,318.882v13.034l-50.19,40.155a2.045,2.045,0,0,0-1.046-.318,2.1,2.1,0,1,0,2.105,2.105,2.072,2.072,0,0,0-.128-.631l50.747-40.6V318.882a2.105,2.105,0,1,0-1.487,0Z" transform="translate(39.831 65.141)"/>
      <path id="Path_1296-2" data-name="Path 1296" class="cls-1" d="M237.258,374.844a2.094,2.094,0,0,0,1.9-1.238h43.081l63.3-33.823a2.073,2.073,0,0,0,1.367.532,2.1,2.1,0,1,0-2.105-2.1,2.04,2.04,0,0,0,.051.254l-62.982,33.655H239.235a2.078,2.078,0,0,0-1.977-1.485,2.1,2.1,0,1,0,0,4.208Z" transform="translate(74.701 100.786)"/>
      <path id="Path_1297-2" data-name="Path 1297" class="cls-1" d="M204.593,403.652a2.1,2.1,0,0,0,2.1-2.105,2.07,2.07,0,0,0-.944-1.709l10.817-46.678H238.28a2.105,2.105,0,1,0,0-1.487H215.389L204.3,399.5a2.081,2.081,0,0,0-1.816,2.046A2.1,2.1,0,0,0,204.593,403.652Z" transform="translate(19.992 124.575)"/>
      <path id="Path_1298-2" data-name="Path 1298" class="cls-1" d="M380.262,594.365a3.292,3.292,0,0,0-3.191,2.6H363.847l-32.6-52.844-65.782-22.749-26.3-59.646a3.28,3.28,0,0,0,1.372-2.629,3.82,3.82,0,1,0-2.734,3.22l26.566,60.245,65.894,22.792,32.751,53.1h14.054a3.292,3.292,0,0,0,3.191,2.6,3.341,3.341,0,1,0,0-6.682Z" transform="translate(72.532 301.176)"/>
      <path id="Path_1299-2" data-name="Path 1299" class="cls-1" d="M367.919,590.872a3.284,3.284,0,0,0-1.193.241L336.853,546.77l-.174-.259-75.69-13.85L228.967,470.5a3.284,3.284,0,0,0,1.209-2.517,3.341,3.341,0,1,0-3.341,3.341,3.122,3.122,0,0,0,.8-.163l32.368,62.829L335.8,547.858l29.7,44.084a3.324,3.324,0,1,0,2.426-1.07Z" transform="translate(55.174 316.055)"/>
      <path id="Path_1300-2" data-name="Path 1300" class="cls-1" d="M316.216,494.472a3.342,3.342,0,0,0-3.341,3.341,3.294,3.294,0,0,0,.808,2.11l-14.415,19.015a3.291,3.291,0,0,0-1.367-.31,3.342,3.342,0,1,0,3.341,3.344,3.288,3.288,0,0,0-.808-2.11l14.415-19.015a3.3,3.3,0,0,0,1.367.308,3.341,3.341,0,1,0,0-6.682Z" transform="translate(174.199 366.02)"/>
      <path id="Path_1301-2" data-name="Path 1301" class="cls-1" d="M313.738,507.575a3.342,3.342,0,0,0-3.341,3.341,3.257,3.257,0,0,0,.674,1.91l-10.127,11.523a3.266,3.266,0,0,0-1.562-.439,3.342,3.342,0,1,0,3.344,3.341,3.263,3.263,0,0,0-.674-1.91l10.127-11.523a3.235,3.235,0,0,0,1.559.439,3.341,3.341,0,1,0,0-6.682Z" transform="translate(176.678 387.966)"/>
      <path id="Path_1302-2" data-name="Path 1302" class="cls-1" d="M244.231,465.954a3.316,3.316,0,0,0,2.386-1.014l87.724,53.692,26.312,29.854,14.19-21.76a2.034,2.034,0,0,0,.572.118,2.1,2.1,0,1,0-2.1-2.1,2.05,2.05,0,0,0,.345,1.089l-13.182,20.214-25.1-28.476-88.018-53.906a3.317,3.317,0,1,0-3.132,2.3Z" transform="translate(84.309 307.066)"/>
      <path id="Path_1303-2" data-name="Path 1303" class="cls-1" d="M536.873,443.705l10.64,53.2a3.391,3.391,0,1,0,1.482-.171l-10.905-54.518H481.3V417.329L319.918,303.416v89.066l43.875,16.806a3.116,3.116,0,0,0-.128.629,3.341,3.341,0,1,0,3.341-3.341,3.286,3.286,0,0,0-2.613,1.351L321.4,391.463V306.281L479.811,418.1v25.6Z" transform="translate(216.668 46.034)"/>
      <path id="Path_1304-2" data-name="Path 1304" class="cls-1" d="M444.048,396.712a1.945,1.945,0,0,0-.094.465,2.1,2.1,0,1,0,2.1-2.1,2.036,2.036,0,0,0-1.177.407L326.508,315.087v39.791a2.1,2.1,0,1,0,1.485,0V317.89Z" transform="translate(225.424 65.581)"/>
      <path id="Path_1305-2" data-name="Path 1305" class="cls-1" d="M398.42,351.673a2.1,2.1,0,1,0,0,1.487h21.712l10.817,46.678a2.066,2.066,0,0,0-.944,1.709,2.1,2.1,0,1,0,4.208,0A2.081,2.081,0,0,0,432.4,399.5l-11.084-47.829Z" transform="translate(341.349 124.575)"/>
      <path id="Path_1306-2" data-name="Path 1306" class="cls-1" d="M411.442,432.852a3.3,3.3,0,0,0-.875-.177,3.342,3.342,0,1,0,3.341,3.344,3.307,3.307,0,0,0-1.091-2.439l22.5-22.5a3.253,3.253,0,0,0,1.736.556,3.342,3.342,0,1,0-3.341-3.341,3.243,3.243,0,0,0,.554,1.733Z" transform="translate(362.89 216.091)"/>
      <path id="Path_1307-2" data-name="Path 1307" class="cls-1" d="M430.432,478.73a3.274,3.274,0,0,0,2.7,1.474,3.341,3.341,0,1,0-3.344-3.341,3.268,3.268,0,0,0,.1.487l-49.506,19.615-.2.078-34.7,47.9-25.6-31.889a3.275,3.275,0,0,0,.754-2.033,3.341,3.341,0,1,0-3.341,3.341,3.266,3.266,0,0,0,1.442-.358l26.807,33.39,35.589-49.129Z" transform="translate(206.671 330.933)"/>
      <path id="Path_1308-2" data-name="Path 1308" class="cls-1" d="M375.246,545.354l65.587-22.685.3-.107,26.569-60.245a3.282,3.282,0,0,0,.6.123,3.342,3.342,0,1,0-3.341-3.344,3.287,3.287,0,0,0,1.372,2.629l-26.3,59.646-65.533,22.664-.249.085-32.6,52.844H328.439a3.292,3.292,0,0,0-3.191-2.6,3.341,3.341,0,1,0,0,6.682,3.29,3.29,0,0,0,3.191-2.6H342.5Z" transform="translate(219.999 301.176)"/>
      <path id="Path_1309-2" data-name="Path 1309" class="cls-1" d="M415.136,488.487a2.069,2.069,0,0,0,1.744.995,2.1,2.1,0,0,0,0-4.208,2.079,2.079,0,0,0-2.036,1.755l-55.091,11.066-21.126,31.33a2.037,2.037,0,0,0-.46-.094,2.1,2.1,0,1,0,2.105,2.105,2.033,2.033,0,0,0-.412-1.182l20.781-30.822Z" transform="translate(243.711 350.615)"/>
      <path id="Path_1310-2" data-name="Path 1310" class="cls-1" d="M334.687,294.21a3.272,3.272,0,0,0,2.086-.794l75.09,57.94a3.289,3.289,0,0,0-.324,1.391,3.341,3.341,0,1,0,3.341-3.341,3.284,3.284,0,0,0-2.086.792L337.7,292.258a3.267,3.267,0,0,0,.324-1.388,3.341,3.341,0,1,0-3.341,3.341Z" transform="translate(235.808 19.421)"/>
      <path id="Path_1311-2" data-name="Path 1311" class="cls-1" d="M311.489,279.271a3.341,3.341,0,0,0-6.682,0,3.294,3.294,0,0,0,2.6,3.191V485.185a3.3,3.3,0,0,0-2.6,3.194,3.341,3.341,0,0,0,6.682,0,3.3,3.3,0,0,0-2.6-3.194V282.462A3.292,3.292,0,0,0,311.489,279.271Z" transform="translate(191.359 0)"/>
      <path id="Path_1312-2" data-name="Path 1312" class="cls-1" d="M373.733,312.568v38.247l65.1,53.13a3.281,3.281,0,0,0-.375,1.466,3.342,3.342,0,1,0,3.341-3.341,3.277,3.277,0,0,0-2.009.741l-64.573-52.7V312.568a3.3,3.3,0,0,0,2.6-3.191,3.341,3.341,0,1,0-6.682,0A3.294,3.294,0,0,0,373.733,312.568Z" transform="translate(302.449 50.417)"/>
      <path id="Path_1313-2" data-name="Path 1313" class="cls-1" d="M383.912,316.267v18.44l35.425,29.832a3.231,3.231,0,0,0-.4,1.5,3.341,3.341,0,1,0,3.341-3.341,3.261,3.261,0,0,0-1.969.714l-34.912-29.4v-17.75a3.292,3.292,0,0,0,2.6-3.191,3.341,3.341,0,1,0-6.682,0A3.292,3.292,0,0,0,383.912,316.267Z" transform="translate(319.497 56.618)"/>
      <path id="Path_1314-2" data-name="Path 1314" class="cls-1" d="M350.2,448.992a3.342,3.342,0,1,0,3.344-3.341,3.288,3.288,0,0,0-2.819,1.656L312.7,435.086V290.1l211.068,160a3.3,3.3,0,0,0-.308,1.367,3.341,3.341,0,1,0,3.341-3.341,3.293,3.293,0,0,0-2.11.808L311.22,287.106v149.06l39.036,12.548C350.248,448.81,350.2,448.893,350.2,448.992Z" transform="translate(202.1 18.718)"/>
      <path id="Path_1315-2" data-name="Path 1315" class="cls-1" d="M342.277,360a3.294,3.294,0,0,0,3.191-2.6h82.227a3.292,3.292,0,0,0,3.191,2.6,3.341,3.341,0,0,0,0-6.682,3.294,3.294,0,0,0-3.191,2.6H345.468a3.294,3.294,0,0,0-3.191-2.6,3.341,3.341,0,1,0,0,6.682Z" transform="translate(248.515 129.613)"/>
      <path id="Path_1316-2" data-name="Path 1316" class="cls-1" d="M334.687,334.463a3.317,3.317,0,0,0,2.413-1.054l70.185,41.519a3.228,3.228,0,0,0-.2.992,3.377,3.377,0,1,0,.928-2.29l-70.185-41.516a3.245,3.245,0,0,0,.2-.995,3.341,3.341,0,1,0-3.341,3.344Z" transform="translate(235.808 86.838)"/>
      <path id="Path_1317-2" data-name="Path 1317" class="cls-1" d="M312.293,357.5a3.292,3.292,0,0,0,2.827-1.666l35.963,11.424c-.008.094-.053.171-.053.265a3.341,3.341,0,1,0,3.341-3.341,3.294,3.294,0,0,0-2.825,1.664L315.58,354.428c.008-.094.054-.171.054-.265a3.341,3.341,0,1,0-3.341,3.341Z" transform="translate(198.301 125.428)"/>
      <path id="Path_1318-2" data-name="Path 1318" class="cls-1" d="M431.3,460.12l-8.073-3.86V434.741l-23.763-40.1V367.349a3.3,3.3,0,0,0,2.6-3.194,3.341,3.341,0,1,0-6.682,0,3.3,3.3,0,0,0,2.6,3.194v27.7l23.76,40.1V457.2l8.929,4.269a3.239,3.239,0,0,0-.142.706,3.341,3.341,0,1,0,3.341-3.341A3.275,3.275,0,0,0,431.3,460.12Z" transform="translate(343.054 142.166)"/>
      <path id="Path_1319-2" data-name="Path 1319" class="cls-1" d="M426.1,440.8a3.294,3.294,0,0,0-2.6-3.191V423.54l-32.176-18.81V375.677a3.3,3.3,0,0,0,2.6-3.194,3.341,3.341,0,0,0-6.682,0,3.3,3.3,0,0,0,2.6,3.194v29.9l32.176,18.812v13.214a3.294,3.294,0,0,0-2.6,3.191,3.342,3.342,0,0,0,6.684,0Z" transform="translate(329.415 156.114)"/>
      <path id="Path_1320-2" data-name="Path 1320" class="cls-1" d="M407.244,408.757a3.341,3.341,0,1,0-6.682,0,3.3,3.3,0,0,0,2.6,3.194v46.582a3.3,3.3,0,0,0-2.6,3.194,3.341,3.341,0,1,0,6.682,0,3.29,3.29,0,0,0-2.6-3.191V411.948A3.29,3.29,0,0,0,407.244,408.757Z" transform="translate(351.732 216.867)"/>
      <path id="Path_1321-2" data-name="Path 1321" class="cls-1" d="M468.545,414.855A3.34,3.34,0,0,0,465.2,418.2a3.292,3.292,0,0,0,2.6,3.191v83.032l-135.02,85.659a3.338,3.338,0,1,0,.99,2.37,3.272,3.272,0,0,0-.222-1.1l135.392-85.894.345-.219V421.387a3.294,3.294,0,0,0,2.6-3.191A3.34,3.34,0,0,0,468.545,414.855Z" transform="translate(228.678 232.676)"/>
      <path id="Path_1322-2" data-name="Path 1322" class="cls-1" d="M408.548,611.2V502.535l-25.743-12.371v-120.6a3.292,3.292,0,0,0,2.6-3.191,3.341,3.341,0,0,0-6.682,0,3.29,3.29,0,0,0,2.6,3.191V491.1l25.742,12.374V611.2a3.294,3.294,0,0,0-2.6,3.191,3.342,3.342,0,1,0,6.685,0A3.3,3.3,0,0,0,408.548,611.2Z" transform="translate(315.158 145.886)"/>
      <path id="Path_1323-2" data-name="Path 1323" class="cls-1" d="M412.116,533.774V458.386L389.84,441.061V393.626a3.292,3.292,0,0,0,2.6-3.191,3.342,3.342,0,0,0-6.684,0,3.3,3.3,0,0,0,2.6,3.194v48.158l22.276,17.328v74.66a3.292,3.292,0,0,0-2.6,3.191,3.342,3.342,0,0,0,6.684,0A3.294,3.294,0,0,0,412.116,533.774Z" transform="translate(326.935 186.181)"/>
      <path id="Path_1324-2" data-name="Path 1324" class="cls-1" d="M458.616,499.537A3.314,3.314,0,0,0,456.2,500.6l-52.849-30.9a3.222,3.222,0,0,0,.2-.979,3.342,3.342,0,1,0-3.341,3.341,3.306,3.306,0,0,0,2.421-1.067l52.849,30.9a3.248,3.248,0,0,0-.2.982,3.341,3.341,0,1,0,3.341-3.341Z" transform="translate(345.532 317.295)"/>
      <path id="Path_1325-2" data-name="Path 1325" class="cls-1" d="M477.436,464.639a3.34,3.34,0,0,0-3.341,3.341A3.293,3.293,0,0,0,475.3,470.5L443.281,532.66,367.9,546.454l-.31.056-30.044,44.6a3.3,3.3,0,0,0-1.2-.241,3.39,3.39,0,1,0,2.426,1.07l29.7-44.084,75.433-13.8.358-.07,32.368-62.826a3.19,3.19,0,0,0,.8.161,3.341,3.341,0,1,0,0-6.682Z" transform="translate(238.596 316.055)"/>
      <path id="Path_1326-2" data-name="Path 1326" class="cls-1" d="M401.857,462.613a3.284,3.284,0,0,0,1.257,2.549l-30.276,61.46a3.13,3.13,0,0,0-.744-.15,3.341,3.341,0,1,0,3.341,3.341,3.276,3.276,0,0,0-1.257-2.549l30.279-61.46a3.275,3.275,0,0,0,.744.15,3.341,3.341,0,1,0-3.344-3.341Z" transform="translate(298.458 307.066)"/>
      <path id="Path_1327-2" data-name="Path 1327" class="cls-1" d="M338.175,521.568a2.1,2.1,0,0,0-2.1-2.105,2.019,2.019,0,0,0-.658.134L317.576,497.84a2.04,2.04,0,0,0,.3-1.024,2.1,2.1,0,1,0-2.1,2.105,2.057,2.057,0,0,0,.655-.134l17.841,21.757a2.042,2.042,0,0,0-.3,1.024,2.1,2.1,0,0,0,4.207,0Z" transform="translate(206.205 366.424)"/>
      <path id="Path_1328-2" data-name="Path 1328" class="cls-1" d="M331.407,524.487a2.1,2.1,0,0,0-.851.185l-14.778-14.99A2.1,2.1,0,1,0,313.833,511a2.044,2.044,0,0,0,.923-.235L329.5,525.718a2.075,2.075,0,0,0-.2.872,2.1,2.1,0,1,0,2.105-2.1Z" transform="translate(202.951 386.648)"/>
      <path id="Path_1329-2" data-name="Path 1329" class="cls-1" d="M352.425,493.739a2.1,2.1,0,1,0-2.1-2.105,2.058,2.058,0,0,0,.481,1.289l-20.81,35.289a1.827,1.827,0,0,0-.34-.07,2.1,2.1,0,1,0,2.105,2.105,2.06,2.06,0,0,0-.484-1.289l20.813-35.289A2.1,2.1,0,0,0,352.425,493.739Z" transform="translate(229.453 357.745)"/>
      <path id="Path_1330-2" data-name="Path 1330" class="cls-1" d="M342.979,519.058a2.1,2.1,0,0,0,2.092-2.041l54.09-18.668.345-.12,9.4-28.2a2.1,2.1,0,1,0-2.191-2.086,2.062,2.062,0,0,0,.786,1.6l-9.172,27.519-53.759,18.553a2.069,2.069,0,0,0-1.592-.768,2.1,2.1,0,0,0,0,4.208Z" transform="translate(251.77 318.07)"/>
      <path id="Path_1331-2" data-name="Path 1331" class="cls-1" d="M385.664,533.44a2.1,2.1,0,1,0,2.846-1.955V421.041a2.1,2.1,0,1,0-1.484,0V531.484A2.092,2.092,0,0,0,385.664,533.44Z" transform="translate(326.781 236.24)"/>
      <path id="Path_1332-2" data-name="Path 1332" class="cls-1" d="M382.332,510.968a2.1,2.1,0,1,0,2.846-1.953v-85.2a2.105,2.105,0,1,0-1.482,0v85.2A2.088,2.088,0,0,0,382.332,510.968Z" transform="translate(321.2 240.889)"/>
      <path id="Path_1333-2" data-name="Path 1333" class="cls-1" d="M378.769,421.864a2.105,2.105,0,1,0-2.849,1.953v63.912a2.107,2.107,0,1,0,1.484,0V423.817A2.088,2.088,0,0,0,378.769,421.864Z" transform="translate(308.182 240.889)"/>
      <path id="Path_1334-2" data-name="Path 1334" class="cls-1" d="M411.42,448.826a2.105,2.105,0,1,0,2.846-1.955V424.218L394.457,407.9a2.018,2.018,0,0,0,.134-.661,2.1,2.1,0,1,0-2.105,2.105,2.065,2.065,0,0,0,1.024-.3l19.275,15.872v21.952A2.1,2.1,0,0,0,411.42,448.826Z" transform="translate(334.684 216.401)"/>
      <path id="Path_1335-2" data-name="Path 1335" class="cls-1" d="M406.552,426.214a2.048,2.048,0,0,0-1.1.353l-8.062-6.042V396.612a2.105,2.105,0,1,0-1.482,0v24.654l8.65,6.489a1.98,1.98,0,0,0-.115.564,2.105,2.105,0,1,0,2.105-2.1Z" transform="translate(341.658 195.325)"/>
      <path id="Path_1336-2" data-name="Path 1336" class="cls-1" d="M386.54,376.7a2.1,2.1,0,1,0-2.843,1.955v74.8a2.1,2.1,0,1,0,1.482,0v-74.8A2.092,2.092,0,0,0,386.54,376.7Z" transform="translate(321.2 165.259)"/>
      <path id="Path_1337-2" data-name="Path 1337" class="cls-1" d="M378.769,376.7a2.105,2.105,0,1,0-2.849,1.955v65.4a2.107,2.107,0,1,0,1.484,0v-65.4A2.091,2.091,0,0,0,378.769,376.7Z" transform="translate(308.182 165.259)"/>
      <path id="Path_1338-2" data-name="Path 1338" class="cls-1" d="M406.31,406.421a2.1,2.1,0,1,0,0-4.208,2.036,2.036,0,0,0-1.051.324l-10.087-7.984V374.588a2.1,2.1,0,1,0-1.484,0V395.27l10.646,8.426a2.019,2.019,0,0,0-.126.621A2.1,2.1,0,0,0,406.31,406.421Z" transform="translate(337.939 158.439)"/>
      <path id="Path_1339-2" data-name="Path 1339" class="cls-1" d="M387.686,366.344h19.358a2.1,2.1,0,1,0,0-1.487H387.686a2.105,2.105,0,1,0,0,1.487Z" transform="translate(323.371 146.661)"/>
      <path id="Path_1340-2" data-name="Path 1340" class="cls-1" d="M387.836,349.869a2.1,2.1,0,1,0-2.846,1.955v8.193h13.021a2.1,2.1,0,1,0,0-1.485H386.471v-6.708A2.094,2.094,0,0,0,387.836,349.869Z" transform="translate(323.371 120.315)"/>
      <path id="Path_1341-2" data-name="Path 1341" class="cls-1" d="M336.134,340.315a2.072,2.072,0,0,0,1.364-.532l63.134,33.735,43.241.086a2.1,2.1,0,1,0,1.91-2.966,2.078,2.078,0,0,0-1.979,1.485H401.167l-62.982-33.655a2.029,2.029,0,0,0,.051-.254,2.1,2.1,0,1,0-2.1,2.1Z" transform="translate(240.301 100.786)"/>
      <path id="Path_1342-2" data-name="Path 1342" class="cls-1" d="M331.8,416.047a2.1,2.1,0,1,0-1.493-3.587l-12.125-5.433V302.041a2.1,2.1,0,1,0-1.482,0V407.988l13.018,5.836c0,.043-.024.078-.024.118A2.1,2.1,0,0,0,331.8,416.047Z" transform="translate(208.995 36.935)"/>
      <path id="Path_1343-2" data-name="Path 1343" class="cls-1" d="M367.078,369.615a2.105,2.105,0,0,0,0-4.21,2.074,2.074,0,0,0-1.586.762L316.2,348.893a2.1,2.1,0,1,0-2.094,2.156,2.077,2.077,0,0,0,1.586-.76l49.289,17.274A2.1,2.1,0,0,0,367.078,369.615Z" transform="translate(203.416 118.764)"/>
      <path id="Path_1344-2" data-name="Path 1344" class="cls-1" d="M347.238,292.937a2.055,2.055,0,0,0,1.057-.324l42.754,33.73V336.4a2.1,2.1,0,1,0,1.484,0V325.62l-43.316-34.171a2.06,2.06,0,0,0,.123-.615,2.1,2.1,0,1,0-2.1,2.1Z" transform="translate(258.898 21.436)"/>
      <path id="Path_1345-2" data-name="Path 1345" class="cls-1" d="M324.286,285.571v20.2l93.3,70.345a2.052,2.052,0,0,0-.115.57,2.1,2.1,0,1,0,2.105-2.1,2.043,2.043,0,0,0-1.094.35l-92.718-69.9V285.571a2.1,2.1,0,1,0-1.482,0Z" transform="translate(221.704 9.347)"/>
      <path id="Path_1346-2" data-name="Path 1346" class="cls-1" d="M367.78,315.181v31.076l44.8,35.65a2.019,2.019,0,0,0-.126.623,2.1,2.1,0,1,0,2.1-2.1,2.024,2.024,0,0,0-1.048.321L369.262,345.54V315.181a2.105,2.105,0,1,0-1.482,0Z" transform="translate(294.544 58.942)"/>
      <path id="Path_1347-2" data-name="Path 1347" class="cls-1" d="M377.772,318.882V332.63l50.744,40.6a2.069,2.069,0,0,0-.126.631,2.1,2.1,0,1,0,2.1-2.105,2.036,2.036,0,0,0-1.043.318l-50.193-40.155V318.882a2.1,2.1,0,1,0-1.484,0Z" transform="translate(311.282 65.141)"/>
      <path id="Path_1348-2" data-name="Path 1348" class="cls-1" d="M311.183,501.154a3.3,3.3,0,0,0,1.367-.308l14.415,19.015a3.288,3.288,0,0,0-.808,2.11,3.342,3.342,0,1,0,3.341-3.344,3.3,3.3,0,0,0-1.367.308l-14.415-19.013a3.294,3.294,0,0,0,.808-2.11,3.341,3.341,0,1,0-3.341,3.341Z" transform="translate(196.442 366.02)"/>
      <path id="Path_1349-2" data-name="Path 1349" class="cls-1" d="M325.539,523.91a3.275,3.275,0,0,0-1.562.439L313.85,512.826a3.264,3.264,0,0,0,.674-1.91,3.341,3.341,0,1,0-3.341,3.341,3.255,3.255,0,0,0,1.559-.436l10.127,11.523a3.245,3.245,0,0,0-.671,1.907,3.341,3.341,0,1,0,3.341-3.341Z" transform="translate(196.442 387.966)"/>
      <path id="Path_1350-2" data-name="Path 1350" class="cls-1" d="M453.066,465.954a3.341,3.341,0,1,0-3.341-3.341,3.266,3.266,0,0,0,.211,1.046l-87.847,53.767L336.82,546.041l-13.182-20.214a2.053,2.053,0,0,0,.348-1.089,2.1,2.1,0,1,0-2.105,2.1,2.033,2.033,0,0,0,.572-.118l14.19,21.76,26.315-29.854L450.68,464.94A3.316,3.316,0,0,0,453.066,465.954Z" transform="translate(216.435 307.066)"/>
    </g>
    <g id="Group_224" data-name="Group 224" class="cls-6" transform="translate(-598 1016)">
      <circle id="Ellipse_12-2" data-name="Ellipse 12" class="cls-2" cx="53.5" cy="53.5" r="53.5" transform="translate(693 1697)"/>
    </g>
    <circle id="Ellipse_72" data-name="Ellipse 72" class="cls-7" cx="12" cy="12" r="12" transform="translate(1787 2285)"/>
    <circle id="Ellipse_78" data-name="Ellipse 78" class="cls-8" cx="12" cy="12" r="12" transform="translate(540 2285)"/>
    <circle id="Ellipse_75" data-name="Ellipse 75" class="cls-9" cx="12" cy="12" r="12" transform="translate(1243 2136)"/>
    <circle id="Ellipse_73" data-name="Ellipse 73" class="cls-10" cx="21.5" cy="21.5" r="21.5" transform="translate(1811 2228)"/>
    <circle id="Ellipse_79" data-name="Ellipse 79" class="cls-11" cx="21.5" cy="21.5" r="21.5" transform="translate(564 2228)"/>
    <circle id="Ellipse_76" data-name="Ellipse 76" class="cls-12" cx="21.5" cy="21.5" r="21.5" transform="translate(1179 2073)"/>
    <path id="Path_1079" data-name="Path 1079" class="cls-13" d="M-1152.259,515.286a12.985,12.985,0,0,0-.737-2.432,12.973,12.973,0,0,0-1.2-2.241,12.9,12.9,0,0,0-1.612-1.963,12.91,12.91,0,0,0-1.964-1.612,12.891,12.891,0,0,0-2.24-1.2,12.936,12.936,0,0,0-2.432-.737,12.876,12.876,0,0,0-2.528-.249,12.88,12.88,0,0,0-2.528.249,12.885,12.885,0,0,0-2.431.737l-.017.008-15.644-27.021a12.97,12.97,0,0,0,1.272-1.1,12.9,12.9,0,0,0,1.612-1.963,13,13,0,0,0,1.2-2.24,13.028,13.028,0,0,0,.738-2.432,12.993,12.993,0,0,0,.249-2.53,12.989,12.989,0,0,0-.249-2.528,12.993,12.993,0,0,0-.738-2.43,12.973,12.973,0,0,0-1.2-2.241,12.966,12.966,0,0,0-1.612-1.964,12.956,12.956,0,0,0-1.964-1.611,12.9,12.9,0,0,0-2.24-1.2,13.037,13.037,0,0,0-2.432-.738,12.974,12.974,0,0,0-2.528-.249,12.965,12.965,0,0,0-2.528.249,12.97,12.97,0,0,0-2.432.738,12.9,12.9,0,0,0-2.241,1.2,12.949,12.949,0,0,0-1.963,1.611,12.893,12.893,0,0,0-1.612,1.964,12.906,12.906,0,0,0-1.2,2.241,12.9,12.9,0,0,0-.737,2.43,12.877,12.877,0,0,0-.249,2.528,12.881,12.881,0,0,0,.249,2.53,12.936,12.936,0,0,0,.737,2.432,12.937,12.937,0,0,0,1.2,2.24,12.829,12.829,0,0,0,1.612,1.963,12.894,12.894,0,0,0,1.963,1.613c.157.1.324.193.486.29l-13,29.551c-.545-.219-1.09-.442-1.648-.62a23.547,23.547,0,0,0-2.345-.618,23.483,23.483,0,0,0-2.39-.374,23.37,23.37,0,0,0-2.414-.125,23.353,23.353,0,0,0-2.414.125,23.549,23.549,0,0,0-2.391.374,23.458,23.458,0,0,0-2.344.618,23.686,23.686,0,0,0-2.276.857q-1.116.488-2.184,1.087a24.331,24.331,0,0,0-2.073,1.308,24.55,24.55,0,0,0-1.942,1.515,24.636,24.636,0,0,0-1.79,1.709q-.856.9-1.623,1.884t-1.44,2.043q-.672,1.059-1.241,2.182t-1.034,2.3q-.463,1.177-.814,2.4t-.588,2.468q-.237,1.248-.354,2.516t-.118,2.541q0,1.273.118,2.541t.354,2.516q.236,1.25.588,2.468t.814,2.4q.463,1.175,1.034,2.3t1.241,2.183q.672,1.059,1.44,2.043t1.623,1.885q.854.9,1.79,1.709t1.942,1.515a24.034,24.034,0,0,0,2.073,1.307,23.89,23.89,0,0,0,2.184,1.087,23.382,23.382,0,0,0,2.276.857,23.186,23.186,0,0,0,2.344.619,23.258,23.258,0,0,0,2.391.373,23.37,23.37,0,0,0,2.414.125,23.387,23.387,0,0,0,2.414-.125,23.194,23.194,0,0,0,2.39-.373,23.272,23.272,0,0,0,2.345-.619,23.46,23.46,0,0,0,2.275-.857,23.756,23.756,0,0,0,2.185-1.087,24.415,24.415,0,0,0,2.073-1.307q1.006-.709,1.941-1.515t1.791-1.709q.854-.9,1.622-1.885t1.44-2.043q.672-1.061,1.243-2.183t1.033-2.3q.463-1.177.814-2.4t.588-2.468q.235-1.25.354-2.516t.118-2.541q0-1.275-.118-2.541t-.354-2.516q-.237-1.25-.588-2.468t-.814-2.4q-.463-1.177-1.033-2.3t-1.243-2.182q-.672-1.059-1.44-2.043t-1.622-1.884q-.856-.9-1.791-1.709a24.531,24.531,0,0,0-1.941-1.515c-.6-.419-1.214-.8-1.842-1.162L-1197.112,481c.362.106.727.2,1.1.276a12.96,12.96,0,0,0,2.528.249,12.969,12.969,0,0,0,2.528-.249,13.038,13.038,0,0,0,2.432-.737l.017-.008,15.643,27.021a12.773,12.773,0,0,0-1.271,1.1,12.9,12.9,0,0,0-1.612,1.963,12.89,12.89,0,0,0-1.2,2.241,12.9,12.9,0,0,0-.737,2.432,12.87,12.87,0,0,0-.249,2.528,12.869,12.869,0,0,0,.249,2.528,12.9,12.9,0,0,0,.737,2.432,12.882,12.882,0,0,0,1.2,2.24,12.9,12.9,0,0,0,1.612,1.964,12.885,12.885,0,0,0,1.963,1.612,13.017,13.017,0,0,0,2.241,1.2,12.966,12.966,0,0,0,2.431.737,12.973,12.973,0,0,0,2.528.249,12.969,12.969,0,0,0,2.528-.249,13.018,13.018,0,0,0,2.432-.737,12.97,12.97,0,0,0,2.24-1.2,12.906,12.906,0,0,0,1.964-1.612,12.9,12.9,0,0,0,1.612-1.964,12.965,12.965,0,0,0,1.2-2.24,12.986,12.986,0,0,0,.737-2.432,12.962,12.962,0,0,0,.249-2.528A12.963,12.963,0,0,0-1152.259,515.286Z" transform="translate(1240.292 4107.904) rotate(107)"/>
    <path id="Path_1081" data-name="Path 1081" class="cls-13" d="M-1152.259,515.286a12.985,12.985,0,0,0-.737-2.432,12.973,12.973,0,0,0-1.2-2.241,12.9,12.9,0,0,0-1.612-1.963,12.91,12.91,0,0,0-1.964-1.612,12.891,12.891,0,0,0-2.24-1.2,12.936,12.936,0,0,0-2.432-.737,12.876,12.876,0,0,0-2.528-.249,12.88,12.88,0,0,0-2.528.249,12.885,12.885,0,0,0-2.431.737l-.017.008-15.644-27.021a12.97,12.97,0,0,0,1.272-1.1,12.9,12.9,0,0,0,1.612-1.963,13,13,0,0,0,1.2-2.24,13.028,13.028,0,0,0,.738-2.432,12.993,12.993,0,0,0,.249-2.53,12.989,12.989,0,0,0-.249-2.528,12.993,12.993,0,0,0-.738-2.43,12.973,12.973,0,0,0-1.2-2.241,12.966,12.966,0,0,0-1.612-1.964,12.956,12.956,0,0,0-1.964-1.611,12.9,12.9,0,0,0-2.24-1.2,13.037,13.037,0,0,0-2.432-.738,12.974,12.974,0,0,0-2.528-.249,12.965,12.965,0,0,0-2.528.249,12.97,12.97,0,0,0-2.432.738,12.9,12.9,0,0,0-2.241,1.2,12.949,12.949,0,0,0-1.963,1.611,12.893,12.893,0,0,0-1.612,1.964,12.906,12.906,0,0,0-1.2,2.241,12.9,12.9,0,0,0-.737,2.43,12.877,12.877,0,0,0-.249,2.528,12.881,12.881,0,0,0,.249,2.53,12.936,12.936,0,0,0,.737,2.432,12.937,12.937,0,0,0,1.2,2.24,12.829,12.829,0,0,0,1.612,1.963,12.894,12.894,0,0,0,1.963,1.613c.157.1.324.193.486.29l-13,29.551c-.545-.219-1.09-.442-1.648-.62a23.547,23.547,0,0,0-2.345-.618,23.483,23.483,0,0,0-2.39-.374,23.37,23.37,0,0,0-2.414-.125,23.353,23.353,0,0,0-2.414.125,23.549,23.549,0,0,0-2.391.374,23.458,23.458,0,0,0-2.344.618,23.686,23.686,0,0,0-2.276.857q-1.116.488-2.184,1.087a24.331,24.331,0,0,0-2.073,1.308,24.55,24.55,0,0,0-1.942,1.515,24.636,24.636,0,0,0-1.79,1.709q-.856.9-1.623,1.884t-1.44,2.043q-.672,1.059-1.241,2.182t-1.034,2.3q-.463,1.177-.814,2.4t-.588,2.468q-.237,1.248-.354,2.516t-.118,2.541q0,1.273.118,2.541t.354,2.516q.236,1.25.588,2.468t.814,2.4q.463,1.175,1.034,2.3t1.241,2.183q.672,1.059,1.44,2.043t1.623,1.885q.854.9,1.79,1.709t1.942,1.515a24.034,24.034,0,0,0,2.073,1.307,23.89,23.89,0,0,0,2.184,1.087,23.382,23.382,0,0,0,2.276.857,23.186,23.186,0,0,0,2.344.619,23.258,23.258,0,0,0,2.391.373,23.37,23.37,0,0,0,2.414.125,23.387,23.387,0,0,0,2.414-.125,23.194,23.194,0,0,0,2.39-.373,23.272,23.272,0,0,0,2.345-.619,23.46,23.46,0,0,0,2.275-.857,23.756,23.756,0,0,0,2.185-1.087,24.415,24.415,0,0,0,2.073-1.307q1.006-.709,1.941-1.515t1.791-1.709q.854-.9,1.622-1.885t1.44-2.043q.672-1.061,1.243-2.183t1.033-2.3q.463-1.177.814-2.4t.588-2.468q.235-1.25.354-2.516t.118-2.541q0-1.275-.118-2.541t-.354-2.516q-.237-1.25-.588-2.468t-.814-2.4q-.463-1.177-1.033-2.3t-1.243-2.182q-.672-1.059-1.44-2.043t-1.622-1.884q-.856-.9-1.791-1.709a24.531,24.531,0,0,0-1.941-1.515c-.6-.419-1.214-.8-1.842-1.162L-1197.112,481c.362.106.727.2,1.1.276a12.96,12.96,0,0,0,2.528.249,12.969,12.969,0,0,0,2.528-.249,13.038,13.038,0,0,0,2.432-.737l.017-.008,15.643,27.021a12.773,12.773,0,0,0-1.271,1.1,12.9,12.9,0,0,0-1.612,1.963,12.89,12.89,0,0,0-1.2,2.241,12.9,12.9,0,0,0-.737,2.432,12.87,12.87,0,0,0-.249,2.528,12.869,12.869,0,0,0,.249,2.528,12.9,12.9,0,0,0,.737,2.432,12.882,12.882,0,0,0,1.2,2.24,12.9,12.9,0,0,0,1.612,1.964,12.885,12.885,0,0,0,1.963,1.612,13.017,13.017,0,0,0,2.241,1.2,12.966,12.966,0,0,0,2.431.737,12.973,12.973,0,0,0,2.528.249,12.969,12.969,0,0,0,2.528-.249,13.018,13.018,0,0,0,2.432-.737,12.97,12.97,0,0,0,2.24-1.2,12.906,12.906,0,0,0,1.964-1.612,12.9,12.9,0,0,0,1.612-1.964,12.965,12.965,0,0,0,1.2-2.24,12.986,12.986,0,0,0,.737-2.432,12.962,12.962,0,0,0,.249-2.528A12.963,12.963,0,0,0-1152.259,515.286Z" transform="matrix(0.966, 0.259, -0.259, 0.966, 1881.453, 2610.881)"/>
    <path id="Path_1080" data-name="Path 1080" class="cls-13" d="M-1152.259,515.286a12.985,12.985,0,0,0-.737-2.432,12.973,12.973,0,0,0-1.2-2.241,12.9,12.9,0,0,0-1.612-1.963,12.91,12.91,0,0,0-1.964-1.612,12.891,12.891,0,0,0-2.24-1.2,12.936,12.936,0,0,0-2.432-.737,12.876,12.876,0,0,0-2.528-.249,12.88,12.88,0,0,0-2.528.249,12.885,12.885,0,0,0-2.431.737l-.017.008-15.644-27.021a12.97,12.97,0,0,0,1.272-1.1,12.9,12.9,0,0,0,1.612-1.963,13,13,0,0,0,1.2-2.24,13.028,13.028,0,0,0,.738-2.432,12.993,12.993,0,0,0,.249-2.53,12.989,12.989,0,0,0-.249-2.528,12.993,12.993,0,0,0-.738-2.43,12.973,12.973,0,0,0-1.2-2.241,12.966,12.966,0,0,0-1.612-1.964,12.956,12.956,0,0,0-1.964-1.611,12.9,12.9,0,0,0-2.24-1.2,13.037,13.037,0,0,0-2.432-.738,12.974,12.974,0,0,0-2.528-.249,12.965,12.965,0,0,0-2.528.249,12.97,12.97,0,0,0-2.432.738,12.9,12.9,0,0,0-2.241,1.2,12.949,12.949,0,0,0-1.963,1.611,12.893,12.893,0,0,0-1.612,1.964,12.906,12.906,0,0,0-1.2,2.241,12.9,12.9,0,0,0-.737,2.43,12.877,12.877,0,0,0-.249,2.528,12.881,12.881,0,0,0,.249,2.53,12.936,12.936,0,0,0,.737,2.432,12.937,12.937,0,0,0,1.2,2.24,12.829,12.829,0,0,0,1.612,1.963,12.894,12.894,0,0,0,1.963,1.613c.157.1.324.193.486.29l-13,29.551c-.545-.219-1.09-.442-1.648-.62a23.547,23.547,0,0,0-2.345-.618,23.483,23.483,0,0,0-2.39-.374,23.37,23.37,0,0,0-2.414-.125,23.353,23.353,0,0,0-2.414.125,23.549,23.549,0,0,0-2.391.374,23.458,23.458,0,0,0-2.344.618,23.686,23.686,0,0,0-2.276.857q-1.116.488-2.184,1.087a24.331,24.331,0,0,0-2.073,1.308,24.55,24.55,0,0,0-1.942,1.515,24.636,24.636,0,0,0-1.79,1.709q-.856.9-1.623,1.884t-1.44,2.043q-.672,1.059-1.241,2.182t-1.034,2.3q-.463,1.177-.814,2.4t-.588,2.468q-.237,1.248-.354,2.516t-.118,2.541q0,1.273.118,2.541t.354,2.516q.236,1.25.588,2.468t.814,2.4q.463,1.175,1.034,2.3t1.241,2.183q.672,1.059,1.44,2.043t1.623,1.885q.854.9,1.79,1.709t1.942,1.515a24.034,24.034,0,0,0,2.073,1.307,23.89,23.89,0,0,0,2.184,1.087,23.382,23.382,0,0,0,2.276.857,23.186,23.186,0,0,0,2.344.619,23.258,23.258,0,0,0,2.391.373,23.37,23.37,0,0,0,2.414.125,23.387,23.387,0,0,0,2.414-.125,23.194,23.194,0,0,0,2.39-.373,23.272,23.272,0,0,0,2.345-.619,23.46,23.46,0,0,0,2.275-.857,23.756,23.756,0,0,0,2.185-1.087,24.415,24.415,0,0,0,2.073-1.307q1.006-.709,1.941-1.515t1.791-1.709q.854-.9,1.622-1.885t1.44-2.043q.672-1.061,1.243-2.183t1.033-2.3q.463-1.177.814-2.4t.588-2.468q.235-1.25.354-2.516t.118-2.541q0-1.275-.118-2.541t-.354-2.516q-.237-1.25-.588-2.468t-.814-2.4q-.463-1.177-1.033-2.3t-1.243-2.182q-.672-1.059-1.44-2.043t-1.622-1.884q-.856-.9-1.791-1.709a24.531,24.531,0,0,0-1.941-1.515c-.6-.419-1.214-.8-1.842-1.162L-1197.112,481c.362.106.727.2,1.1.276a12.96,12.96,0,0,0,2.528.249,12.969,12.969,0,0,0,2.528-.249,13.038,13.038,0,0,0,2.432-.737l.017-.008,15.643,27.021a12.773,12.773,0,0,0-1.271,1.1,12.9,12.9,0,0,0-1.612,1.963,12.89,12.89,0,0,0-1.2,2.241,12.9,12.9,0,0,0-.737,2.432,12.87,12.87,0,0,0-.249,2.528,12.869,12.869,0,0,0,.249,2.528,12.9,12.9,0,0,0,.737,2.432,12.882,12.882,0,0,0,1.2,2.24,12.9,12.9,0,0,0,1.612,1.964,12.885,12.885,0,0,0,1.963,1.612,13.017,13.017,0,0,0,2.241,1.2,12.966,12.966,0,0,0,2.431.737,12.973,12.973,0,0,0,2.528.249,12.969,12.969,0,0,0,2.528-.249,13.018,13.018,0,0,0,2.432-.737,12.97,12.97,0,0,0,2.24-1.2,12.906,12.906,0,0,0,1.964-1.612,12.9,12.9,0,0,0,1.612-1.964,12.965,12.965,0,0,0,1.2-2.24,12.986,12.986,0,0,0,.737-2.432,12.962,12.962,0,0,0,.249-2.528A12.963,12.963,0,0,0-1152.259,515.286Z" transform="translate(1284.529 2987.856) rotate(45)"/>
    <circle id="Ellipse_81" data-name="Ellipse 81" class="cls-1" cx="23" cy="23" r="23" transform="translate(781.835 2095.393) rotate(41)"/>
    <circle id="Ellipse_82" data-name="Ellipse 82" class="cls-3" cx="15.5" cy="15.5" r="15.5" transform="translate(853.947 2082.553) rotate(41)"/>
  </g>
</svg>
