<svg xmlns="http://www.w3.org/2000/svg" xmlns:xlink="http://www.w3.org/1999/xlink" width="555.263" height="501.059" viewBox="0 0 555.263 501.059">
  <defs>
    <clipPath id="clip-path">
      <path id="Path_56" data-name="Path 56" d="M3517.578-282.775H3037.705a329.26,329.26,0,0,0-47.124,170.24c0,182.706,148.113,330.819,330.819,330.819a329.3,329.3,0,0,0,196.178-64.443Z" transform="translate(-2990.581 282.775)" fill="none"/>
    </clipPath>
    <linearGradient id="linear-gradient" x1="0.849" y1="3.086" x2="0.892" y2="2.088" gradientUnits="objectBoundingBox">
      <stop offset="0" stop-color="#92dcd1"/>
      <stop offset="0.559" stop-color="#99ded4"/>
      <stop offset="1" stop-color="#cfe2f6"/>
    </linearGradient>
    <linearGradient id="linear-gradient-2" x1="0.5" y1="1" x2="0.5" gradientUnits="objectBoundingBox">
      <stop offset="0.477" stop-color="#eff7e7" stop-opacity="0.6"/>
      <stop offset="0.782" stop-color="#fff"/>
    </linearGradient>
    <linearGradient id="linear-gradient-3" x1="0.5" y1="1" x2="0.5" y2="0" xlink:href="#linear-gradient-2"/>
    <linearGradient id="linear-gradient-4" x1="0.5" y1="1" x2="0.5" y2="0" xlink:href="#linear-gradient-2"/>
    <linearGradient id="linear-gradient-5" x1="0.5" y1="1" x2="0.5" gradientUnits="objectBoundingBox">
      <stop offset="0" stop-color="#96ded3"/>
      <stop offset="0.995" stop-color="#019961"/>
      <stop offset="1" stop-color="#019961"/>
    </linearGradient>
    <linearGradient id="linear-gradient-6" x1="0.548" y1="0.178" x2="0.434" y2="0.586" xlink:href="#linear-gradient-5"/>
    <linearGradient id="linear-gradient-7" x1="0.293" y1="0.461" x2="0.733" y2="0.618" xlink:href="#linear-gradient-5"/>
    <linearGradient id="linear-gradient-8" x1="0.5" y1="1" x2="0.5" y2="-0.25" xlink:href="#linear-gradient-5"/>
    <linearGradient id="linear-gradient-9" x1="-6.202" y1="-8.992" x2="-6.202" y2="-9.971" gradientUnits="objectBoundingBox">
      <stop offset="0" stop-color="#95ddd3"/>
      <stop offset="1" stop-color="#e6f0fa"/>
    </linearGradient>
    <linearGradient id="linear-gradient-10" x1="0.5" y1="1" x2="0.5" y2="-0.004" xlink:href="#linear-gradient-5"/>
    <linearGradient id="linear-gradient-11" x1="0.5" y1="0.676" x2="0.5" y2="-1.274" xlink:href="#linear-gradient-5"/>
    <linearGradient id="linear-gradient-12" x1="0.5" y1="0.713" x2="0.5" y2="-0.149" gradientUnits="objectBoundingBox">
      <stop offset="0" stop-color="#598c9d"/>
      <stop offset="1" stop-color="#437374"/>
    </linearGradient>
    <linearGradient id="linear-gradient-13" x1="0.5" y1="0.646" x2="0.5" y2="-0.619" xlink:href="#linear-gradient-5"/>
    <linearGradient id="linear-gradient-14" x1="0.487" y1="0.502" x2="0.712" y2="0.672" xlink:href="#linear-gradient-5"/>
    <linearGradient id="linear-gradient-15" x1="-2.997" y1="-4.678" x2="-2.997" y2="-5.61" xlink:href="#linear-gradient-9"/>
    <linearGradient id="linear-gradient-16" x1="0.725" y1="1.361" x2="0.729" y2="0.137" xlink:href="#linear-gradient-9"/>
    <linearGradient id="linear-gradient-17" x1="-91.821" y1="6.904" x2="-92.602" y2="6.191" xlink:href="#linear-gradient-9"/>
    <linearGradient id="linear-gradient-18" x1="-138.561" y1="0.276" x2="-139.799" y2="-0.367" xlink:href="#linear-gradient-9"/>
    <linearGradient id="linear-gradient-19" x1="-50.747" y1="57.504" x2="-51.187" y2="55.982" xlink:href="#linear-gradient-9"/>
    <linearGradient id="linear-gradient-20" x1="-438.068" y1="128.8" x2="-444.442" y2="124.835" gradientUnits="objectBoundingBox">
      <stop offset="0" stop-color="#63b870"/>
      <stop offset="1" stop-color="#93ddd2"/>
    </linearGradient>
    <linearGradient id="linear-gradient-21" x1="-372.083" y1="196.014" x2="-377.478" y2="190.211" xlink:href="#linear-gradient-20"/>
    <linearGradient id="linear-gradient-22" x1="294.648" y1="163.062" x2="301.869" y2="154.277" xlink:href="#linear-gradient-20"/>
    <linearGradient id="linear-gradient-23" x1="7.263" y1="-16.482" x2="5.764" y2="-18.305" xlink:href="#linear-gradient-20"/>
    <linearGradient id="linear-gradient-24" x1="0.579" y1="-0.084" x2="0.948" y2="1.075" xlink:href="#linear-gradient-5"/>
    <linearGradient id="linear-gradient-25" x1="1.105" y1="-0.122" x2="2.006" y2="2.232" xlink:href="#linear-gradient-5"/>
    <linearGradient id="linear-gradient-26" x1="0.5" y1="0.139" x2="0.5" y2="0.662" xlink:href="#linear-gradient-5"/>
  </defs>
  <g id="Group_208" data-name="Group 208" transform="translate(-2970.995 282.775)">
    <g id="Group_17" data-name="Group 17" transform="translate(2999.261 -282.775)">
      <g id="Group_16" data-name="Group 16" clip-path="url(#clip-path)">
        <g id="Group_15" data-name="Group 15" transform="translate(-205.522 -4.386)">
          <g id="Group_14" data-name="Group 14">
            <g id="Group_13" data-name="Group 13">
              <g id="Group_12" data-name="Group 12">
                <path id="Path_24" data-name="Path 24" d="M2848.173-285.814V35.066h132.045V235.979h600.07V-285.814Z" transform="translate(-2848.173 285.814)" fill="#90c5f9"/>
                <path id="Path_25" data-name="Path 25" d="M3485.393-148.467c-17.789,4.295-31.473,19.2-49.144,23.95-36.651,9.86-72.168-26.657-109.847-22.107-31.759,3.836-52.085,34.385-77.132,54.281a130.122,130.122,0,0,1-97.159,26.715c-32.844-4.446-65.8-21.5-97.554-12-22.69,6.79-39.181,25.734-57.475,40.774-16.153,13.28-37.822,24.124-57.414,19.521V113.893h600V-103.03C3541.316-130.39,3512.037-154.9,3485.393-148.467Z" transform="translate(-2807.623 346.225)" fill="#fff" opacity="0.5"/>
                <path id="Path_26" data-name="Path 26" d="M2963.047,4.73c32.293-49.979,91.583-71.851,141.573-52.225,21.716,8.525,42.281,24.168,65.121,23.935,55.466-.561,77.941-63.128,138.564-56.748,18.02,1.895,36.187,5.79,54.087,2.986,19.548-3.062,36.906-13.816,53.681-24.308s34.178-21.185,53.744-24.114c22.385-3.351,48.055,6.669,55.8,29.336V65.866H2963.047Z" transform="translate(-2797.262 356.476)" fill="#fff"/>
                <path id="Path_27" data-name="Path 27" d="M3358.73-51.341a78.952,78.952,0,0,0-71.428-3.217c-14.467,6.7-26.46,17.636-39.372,26.988s-27.826,17.46-43.765,17.037c-36.8-.976-33.667-50.012-66.648-57.677-19.254-4.475-37.391,10.851-57.009,13.272-36.246,4.472-39.011-37.218-69.641-38.832-27.066-1.424-42.108,33.993-67.56,39.389-34.682,7.336-58.187-37.4-92.542-46.081-.863-.218-1.726-.407-2.591-.574v54.212h132.044V94.568h418.315V12.978C3394.67-13.306,3382.365-37.69,3358.73-51.341Z" transform="translate(-2848.173 367.705)" fill="url(#linear-gradient)"/>
                <g id="Group_10" data-name="Group 10" transform="translate(0 81.929)">
                  <path id="Path_28" data-name="Path 28" d="M3365.538-209.806c-3.335-10.973-16.812-14.716-28.232-15.8-82.033-7.763-203.328-4.36-276.344,30.883-64.743,31.249-142.743-15.959-212.788-.087v6.46c4.677,14.912,23.174,23.644,39.672,24.81,18.671,1.321,38.055-2.909,55.813,3.013,16.906,5.639,29.473,19.519,43.639,30.334a138.631,138.631,0,0,0,110.714,25.2c34.089-7.072,64.663-26.952,99.011-32.638,35.14-5.816,72.091,3.615,106.329-6.2a98.71,98.71,0,0,0,57.656-45.088C3364.667-195.275,3367.671-202.789,3365.538-209.806Z" transform="translate(-2848.174 229.045)" opacity="0.5" fill="url(#linear-gradient-2)"/>
                  <path id="Path_29" data-name="Path 29" d="M2979.317-201.259c.57.146,1.143.261,1.713.4,1.077-.483,2.162-.927,3.255-1.339Z" transform="translate(-2790.052 240.942)" fill="url(#linear-gradient-3)"/>
                  <path id="Path_30" data-name="Path 30" d="M2982.76-201.361l14.37-2.722A38.125,38.125,0,0,0,2982.76-201.361Z" transform="translate(-2788.527 240.104)" fill="url(#linear-gradient-4)"/>
                </g>
                <g id="Group_11" data-name="Group 11" transform="translate(46.309 139.414)">
                  <path id="Path_31" data-name="Path 31" d="M3190.053-177.717c-1.993-6.556-10.045-8.795-16.87-9.44-49.015-4.638-121.49-2.6-165.12,18.454-38.887,18.77-85.78-9.84-127.8.094.509,11.173,13.207,17.748,24.363,18.538s22.739-1.739,33.349,1.8c10.1,3.37,17.611,11.664,26.075,18.126A82.838,82.838,0,0,0,3030.2-115.09c20.369-4.226,38.637-16.1,59.161-19.5,21-3.475,43.075,2.16,63.532-3.706a58.982,58.982,0,0,0,34.45-26.941C3189.533-169.034,3191.327-173.524,3190.053-177.717Z" transform="translate(-2880.261 189.213)" fill="#fff" opacity="0.5"/>
                  <path id="Path_32" data-name="Path 32" d="M2959.078-172.611c.341.088.683.156,1.023.238.644-.289,1.292-.553,1.945-.8Z" transform="translate(-2845.331 196.322)" fill="#fff"/>
                  <path id="Path_33" data-name="Path 33" d="M2961.135-172.671l8.585-1.626A22.8,22.8,0,0,0,2961.135-172.671Z" transform="translate(-2844.418 195.821)" fill="#fff"/>
                </g>
                <path id="Path_34" data-name="Path 34" d="M2950.442-47.315c50.2,38.822,117.187,50.191,180.465,45.432S3255.3-26,3316.4-43.13c71.014-19.906,145-32.951,218.567-32.951V143.028H2950.442Z" transform="translate(-2802.848 378.765)" fill="url(#linear-gradient-5)"/>
                <path id="Path_35" data-name="Path 35" d="M3395.526-128.232a4.377,4.377,0,0,0-.965-1.01,10.751,10.751,0,0,0-3.406-1.664,54.088,54.088,0,0,0-22.38-2.526,82.938,82.938,0,0,0-29.936,9.1,92.281,92.281,0,0,0-19.147,13.3c.416-.778.819-1.563,1.245-2.334a116.239,116.239,0,0,1,13.021-19.1,69.184,69.184,0,0,1,13.745-12.58c1.43-.971,2.831-1.984,4.244-2.979a5.911,5.911,0,0,0,.58-.43.626.626,0,0,0-.279-1.116,4.577,4.577,0,0,0-1.193-.076,9.589,9.589,0,0,0-2.921.7,57.848,57.848,0,0,0-14.361,7.555,92.659,92.659,0,0,0-14.825,13.751,100.784,100.784,0,0,0-9.492,12.909,93.4,93.4,0,0,0-6.717,12.5c-.878,2.127-1.7,4.361-2.47,6.655.17-5.243.5-10.479,1.087-15.7a116.2,116.2,0,0,1,4.674-22.641,69.118,69.118,0,0,1,7.853-16.9c.946-1.446,1.85-2.921,2.771-4.383a5.493,5.493,0,0,0,.373-.619.627.627,0,0,0-.687-.924,4.717,4.717,0,0,0-1.131.388,9.7,9.7,0,0,0-2.429,1.766,57.917,57.917,0,0,0-10.352,12.5,92.766,92.766,0,0,0-8.4,18.393,100.82,100.82,0,0,0-3.8,15.566,93.332,93.332,0,0,0-1.394,14.123,133.916,133.916,0,0,0,.981,14.582c.465,4.06,1.115,8.095,1.862,12.114a116.917,116.917,0,0,0-4.946,24.064,70.912,70.912,0,0,0-.229,9.519,14.573,14.573,0,0,0,3.037,8.751c1.71,2.166,3.865,1.557,5.315-1.232a23.679,23.679,0,0,0,2.781-9.378c.193-2.536.521-5.068.859-7.593.46-3.43,1.026-6.849,1.742-10.248a3.208,3.208,0,0,0,1.772-1.622,9.6,9.6,0,0,0,1.106-6.175c-.085-.511-.158-1.023-.235-1.536.708-2.01,1.472-4,2.266-5.979.166-.143.343-.261.5-.42,1.164-1.166,2.37-2.29,3.54-3.451,1.742-1.726,3.453-3.484,5.206-5.2,2.387-2.338,5.037-4.376,7.6-6.51q2.131-1.775,4.4-3.379a214.6,214.6,0,0,1,18.916-12.046,116.29,116.29,0,0,1,21.125-9.388,69.186,69.186,0,0,1,18.308-3.461c1.728-.074,3.452-.2,5.177-.3a5.423,5.423,0,0,0,.72-.058.628.628,0,0,0,.351-1.1,4.614,4.614,0,0,0-.974-.693,9.6,9.6,0,0,0-2.852-.945,57.825,57.825,0,0,0-16.187-1.136,92.634,92.634,0,0,0-19.842,3.888,100.652,100.652,0,0,0-14.865,5.979c-2.774,1.346-5.487,2.816-8.2,4.467.74-.737,1.478-1.476,2.24-2.189a89.427,89.427,0,0,1,29.757-18.753,64.374,64.374,0,0,1,26.4-4.263c2.371.147,4.742.3,7.082.546a9.688,9.688,0,0,0,.982.087C3395.322-127.061,3395.872-127.68,3395.526-128.232Z" transform="translate(-2653.935 343.013)" fill="url(#linear-gradient-6)"/>
                <path id="Path_36" data-name="Path 36" d="M3320.921,30.274c1.254-.579,2.524-1.127,3.758-1.745,1.646-.824,3.28-1.676,4.885-2.57a10.427,10.427,0,0,0,1.74-1.3c.41-.359.379-.724-.046-.978a3.025,3.025,0,0,1-1.348-2.608,8.168,8.168,0,0,1,.656-3.605,25.614,25.614,0,0,1,5.13-8.363c1.139-1.238,2.377-2.414,3.572-3.617,1.542-1.55,3.132-3.07,4.617-4.657a25.19,25.19,0,0,0,4.494-6.473,16.7,16.7,0,0,0,1.626-9.374,10.506,10.506,0,0,0-.388-1.762A5.274,5.274,0,0,0,3349-18.09c-1.061-1.609-2.9-1.865-4.963-.727a11.914,11.914,0,0,0-3.078,2.435q-1.431,1.572-2.744,3.215a58.186,58.186,0,0,1-4.592,5.3,21.268,21.268,0,0,1-1.819,1.608,4.806,4.806,0,0,1-1.206.634.679.679,0,0,1-.954-.32,4.253,4.253,0,0,1-.267-1.2,7.91,7.91,0,0,1,.43-2.914c.357-1.123.747-2.244,1.187-3.355,1.44-3.643,2.862-7.29,4.047-10.971a59.366,59.366,0,0,0,2.48-10.631,26.153,26.153,0,0,0-.126-8.734,14.582,14.582,0,0,0-4.444-7.938,8.914,8.914,0,0,0-1.8-1.295,4.91,4.91,0,0,0-5.836,1.062,6.334,6.334,0,0,0-1.53,2.09,22.227,22.227,0,0,0-1.124,2.993c-.463,1.749-.815,3.507-1.185,5.26-.443,2.107-.789,4.217-1.3,6.32-.388,1.593-.944,3.181-1.469,4.765a11.6,11.6,0,0,1-.817,1.82,6.405,6.405,0,0,1-.892,1.267,2.316,2.316,0,0,1-2.767.654,3.174,3.174,0,0,1-1.465-1.417,11.209,11.209,0,0,1-1.23-3.6,20.382,20.382,0,0,1-.211-5.848c.2-1.867.485-3.741.746-5.613.391-2.806.886-5.618,1.177-8.42a50.84,50.84,0,0,0-.935-16.667,23.415,23.415,0,0,0-3.152-7.884,16.538,16.538,0,0,0-4.168-4.49,8.48,8.48,0,0,0-2.677-1.342,4.639,4.639,0,0,0-5.189,1.849,7.183,7.183,0,0,0-1.247,2.588c-.312,1.244-.57,2.494-.81,3.741-.2,1.054-.322,2.107-.517,3.161a15.1,15.1,0,0,1-1.475,4.513,10.265,10.265,0,0,1-1.237,1.807,3.388,3.388,0,0,1-3.16,1.152,4.961,4.961,0,0,1-1.856-.644,8,8,0,0,1-2.714-2.6,13.888,13.888,0,0,1-1.967-4.628c-.651-2.821-1.208-5.672-1.811-8.508a73.233,73.233,0,0,0-2.549-9.218c-.61-1.728-1.225-3.456-1.939-5.142a42.236,42.236,0,0,0-10.68-15.487,23.084,23.084,0,0,0-4.9-3.413,15.212,15.212,0,0,0-3.2-1.234,10.166,10.166,0,0,0-2.817-.32,7.636,7.636,0,0,0-6.409,3.658,8.713,8.713,0,0,0-1.167,3.337,13.19,13.19,0,0,0,.342,5.462,60.646,60.646,0,0,0,2.476,6.5c.49,1.212,1.064,2.39,1.56,3.6a17.43,17.43,0,0,1,1.313,5.468,10.054,10.054,0,0,1-.032,1.966,7.93,7.93,0,0,1-.467,1.86,6.05,6.05,0,0,1-4.357,3.618,8.5,8.5,0,0,1-3.7.225,20.7,20.7,0,0,1-2.945-.69c-1.412-.463-2.772-1.019-4.145-1.55a38.974,38.974,0,0,0-5.875-1.95,35.055,35.055,0,0,0-3.546-.546,7.136,7.136,0,0,0-2.521.211,3.19,3.19,0,0,0-2.4,2.085,4.419,4.419,0,0,0,.049,3.067,14.806,14.806,0,0,0,2.289,3.977,31.934,31.934,0,0,0,10.026,8.3,77.808,77.808,0,0,0,11.013,5.037c2.038.755,4.042,1.563,6.025,2.4a19.273,19.273,0,0,1,4.132,2.357,12.78,12.78,0,0,1,1.617,1.463,2.306,2.306,0,0,1,.678,1.631.817.817,0,0,1-.808.85,6.381,6.381,0,0,1-1.329.082c-1-.059-2-.13-2.979-.257-1.706-.222-3.394-.489-5.09-.74a37.1,37.1,0,0,0-7.155-.465,18.267,18.267,0,0,0-4.4.638,17.732,17.732,0,0,0-1.939.694,5.727,5.727,0,0,0-3.176,3.218,6.382,6.382,0,0,0-.413,3.018,9.266,9.266,0,0,0,2.844,5.867,17.364,17.364,0,0,0,3.722,2.794A37.057,37.057,0,0,0,3245-34.074c1.744.537,3.519,1.02,5.276,1.538,2.953.869,5.917,1.722,8.85,2.628a31.8,31.8,0,0,1,6.383,2.713c.618.354,1.217.735,1.8,1.137a6.924,6.924,0,0,1,.954.833c.375.38.837.8.453,1.4s-1.1.6-1.714.623a15.736,15.736,0,0,1-2.106-.035c-1.338-.118-2.664-.276-3.99-.432-2.225-.263-4.437-.57-6.672-.8a36.764,36.764,0,0,0-6.466-.016,14.42,14.42,0,0,0-3.984.813,13.992,13.992,0,0,0-2.23,1.067,5.718,5.718,0,0,0-2.543,3.07,6.742,6.742,0,0,0,.714,6.279,11.489,11.489,0,0,0,3.891,3.539,35.2,35.2,0,0,0,9.024,3.684c4.458,1.162,8.912,2.335,13.338,3.559,1.93.534,3.807,1.175,5.669,1.829a16.668,16.668,0,0,1,3.881,1.918,3.438,3.438,0,0,1,1.216,1.2.757.757,0,0,1-.384,1.134,7.785,7.785,0,0,1-1.885.8c-1.149.273-2.313.433-3.472.616-2.14.339-4.282.626-6.419,1a18.165,18.165,0,0,0-4.945,1.626,8.706,8.706,0,0,0-2.218,1.576,5.294,5.294,0,0,0-1.735,3.524,5.837,5.837,0,0,0,1.251,4.019,20.192,20.192,0,0,0,3.934,3.826,13.375,13.375,0,0,0,4.6,2.117,34.221,34.221,0,0,0,7.209,1.133c2.573.126,5.148.261,7.744.273a140.477,140.477,0,0,1,14.084.859,29.282,29.282,0,0,1,13.018,4.395c1.752,1.129,3.556,2.2,5.337,3.3.033.02.066.043.1.065a2.276,2.276,0,0,0,2.447.092c1.827-.876,3.676-1.707,5.516-2.557Z" transform="translate(-2682.44 361.771)" fill="url(#linear-gradient-7)"/>
                <path id="Path_37" data-name="Path 37" d="M3391.675-285.814H3277.031c5.829,18.034-2.735,37.628-3.252,56.726-.724,26.673,16.166,52.975,40.724,63.412s55.218,4.343,73.917-14.692c1.118-1.137,2.194-2.325,3.256-3.526Z" transform="translate(-2659.56 285.814)" fill="url(#linear-gradient-8)"/>
                <path id="Path_38" data-name="Path 38" d="M3213.381,82.053c2.189-.688,4.357-1.452,6.571-2.051,4.543-1.228,9.1-2.422,13.671-3.527a68.112,68.112,0,0,1,10.118-1.73c2.24-.192,4.477-.414,6.718-.586a9.28,9.28,0,0,1,1.919.069,1.054,1.054,0,0,1,.877,1.54,2.88,2.88,0,0,1-.619.924,17.109,17.109,0,0,1-1.436,1.282,36.606,36.606,0,0,1-5.35,3.536,198.8,198.8,0,0,1-27.365,12.624,246.566,246.566,0,0,1-23.7,7.5c-2.277.587-4.591,1.036-6.88,1.582a5.532,5.532,0,0,1-2.535-.042c-3.816-.843-7.562-1.935-11.284-3.116-7.04-2.23-13.992-4.7-20.793-7.588a89.076,89.076,0,0,1-22.584-13.663c-1.186-.994-2.3-2.08-3.393-3.182a5.423,5.423,0,0,1-1.062-1.588,1.144,1.144,0,0,1,1.016-1.727,3.8,3.8,0,0,1,1.27.082c1.35.33,2.7.655,4.026,1.078,6.069,1.938,11.963,4.343,17.853,6.76,7.379,3.026,14.615,6.366,21.806,9.809.518.248,1.048.469,1.663.742.052-.509-.265-.644-.467-.82a196.2,196.2,0,0,1-17.458-17.275,171.408,171.408,0,0,1-25.139-35.765c-1.028-1.994-1.932-4.055-2.817-6.119a15.526,15.526,0,0,1-.871-2.914,4.415,4.415,0,0,1,.043-1.736,1.131,1.131,0,0,1,1.458-.912,3.792,3.792,0,0,1,1.44.648,20.239,20.239,0,0,1,2.4,2.124c2.524,2.7,5.054,5.39,7.484,8.17q6.656,7.618,13.2,15.337,9.218,10.82,18.826,21.3a14.261,14.261,0,0,0,2.119,2,6.612,6.612,0,0,0-.261-.828,278.548,278.548,0,0,1-13.006-35.029,115.172,115.172,0,0,1-3.867-17.7,48.15,48.15,0,0,1-.631-9.121,6.173,6.173,0,0,1,.2-1.42c.26-.867.965-1.064,1.572-.429a6.532,6.532,0,0,1,1.039,1.416,37.734,37.734,0,0,1,1.675,3.465q2.76,6.847,5.443,13.725c4.846,12.349,9.576,24.746,14.823,36.936a5.914,5.914,0,0,0,.973,1.673c-.019-.339-.026-.678-.056-1.016-.177-1.973-.4-3.941-.536-5.916-.436-6.52-.642-13.049-.664-19.581a141.085,141.085,0,0,1,1.119-20.023A110.2,110.2,0,0,1,3188.3-3.356a15.13,15.13,0,0,1,.655-1.463,4.647,4.647,0,0,1,.617-.935c.737-.849,1.575-.737,1.974.292a5.567,5.567,0,0,1,.375,1.712c.092,1.977.181,3.959.163,5.937-.053,6.048-.167,12.1-.241,18.144-.083,6.906-.133,13.81-.22,20.716-.079,6.209-.188,12.417-.287,18.624-.016,1.017-.059,2.035-.065,3.051,0,.527.051,1.055.077,1.572.51.091.569-.3.709-.55a173.841,173.841,0,0,1,18.263-25.976,98.821,98.821,0,0,1,14.188-14.158,41.051,41.051,0,0,1,3.5-2.544,9.884,9.884,0,0,1,2.468-1.129,1.746,1.746,0,0,1,2.361,1.667,5.638,5.638,0,0,1-.173,2.058,42.336,42.336,0,0,1-1.648,4.685,128.259,128.259,0,0,1-8.368,15.716c-5.382,8.762-11.174,17.252-16.8,25.85-.319.489-.625.989-.924,1.461.224.318.4.128.553.023.265-.179.518-.378.775-.571A227.109,227.109,0,0,1,3235.1,52.54,76.461,76.461,0,0,1,3246.2,47.5a21.944,21.944,0,0,1,2.765-.823,7.9,7.9,0,0,1,2.383-.182,1.924,1.924,0,0,1,1.717,2.778,8.734,8.734,0,0,1-1.169,2.085,23.025,23.025,0,0,1-3.884,4.048c-3.35,2.834-6.649,5.742-10.133,8.4-4.677,3.572-9.5,6.949-14.279,10.392-3.038,2.191-6.1,4.35-9.15,6.528a13.784,13.784,0,0,0-1.137.885c-.056.049.051.281.078.429l-.284-.1Z" transform="translate(-2724.994 409.682)" fill="url(#linear-gradient-9)"/>
                <path id="Path_39" data-name="Path 39" d="M2957.573-285.814a25.137,25.137,0,0,0-7.3,8.834c-6.533,14.644,10.106,29.424,25.628,33.452,45.223,11.735,97.874-14.08,137.833,10.131,25.393,15.386,37.505,47.109,63.13,62.1,22.152,12.963,52.513,9.932,71.666-7.155,12.043-10.745,19.723-26.125,33.162-35.067,17.962-11.951,41.382-9.6,62.948-9.065s46.48-3.058,57.968-21.32c5.928-9.423,7-21,7.913-32.1q.4-4.908.81-9.817Z" transform="translate(-2803.57 285.814)" fill="url(#linear-gradient-10)"/>
                <path id="Path_40" data-name="Path 40" d="M3322.876-285.814H2973.619a44.668,44.668,0,0,0,7.861,10.31c16.325,15.8,40.567,20.2,63.287,20.424s45.65-2.953,68.048.864c47.726,8.135,93.438,47.253,138.945,30.725C3281.652-234.347,3298.257-265.589,3322.876-285.814Z" transform="translate(-2792.576 285.814)" fill="url(#linear-gradient-11)"/>
                <path id="Path_41" data-name="Path 41" d="M3509.268-221.2v-3.349L3443.7-212.062l41.479-73.752h-24.449L3377.04-171.7l-69.587-114.117h-47.017l34.793,57.7-76.169-45.334-210.64,1.137,3.808,2.593,138.363,7.227-28.633,37.948,1.3,1.137,41.968-38.32,13.4.7,48.9,15.046,94.035,54.541,30.092,71.467,41.376,313.949,64.134-3.894-50.969-335.446,22.653-40.279Z" transform="translate(-2777.153 285.814)" fill="url(#linear-gradient-12)"/>
                <path id="Path_42" data-name="Path 42" d="M3330.883-179.848c-28.365-27.832-103-20.3-133.277-11.02-25.11,7.691-80.93,35.693-73.3,69.228,2.509,11.019,14.58,17.142,25.775,18.666,23.836,3.241,50.676-9.412,73.806-1,22.58,8.212,33.848,22.784,60.854,13.657,20.912-7.067,37.236-24.176,47.9-43.5,6.558-11.888,11.143-26.992,4.129-38.62A37.529,37.529,0,0,0,3330.883-179.848Z" transform="translate(-2726.107 324.154)" fill="#43af5c"/>
                <path id="Path_43" data-name="Path 43" d="M3307.324-185.048c-58.881-27.367-132.635-27.07-187.946,11.115-5.1,3.518-10.518,7.88-11.287,14.023-1.274,10.156,11.169,16.969,21.366,16.089s19.654-6.181,29.87-6.795c16.219-.971,30.437,9.736,44.26,18.275s31.927,15.24,45.692,6.611c12.193-7.645,16.859-25.211,30.531-29.7,7.6-2.5,15.821-.1,23.813.189s17.585-3.08,19.057-10.941C3324.293-174.8,3315.272-181.354,3307.324-185.048Z" transform="translate(-2733.021 321.958)" fill="url(#linear-gradient-13)"/>
                <path id="Path_44" data-name="Path 44" d="M3361.972,88.858c-1.518-.013-3.036.022-4.55-.051-2.02-.1-4.04-.232-6.049-.44a9.578,9.578,0,0,1-2.328-.623.767.767,0,0,1-.393-1.231,4.938,4.938,0,0,0,.177-3.969,11.369,11.369,0,0,0-2.278-4.076,28.578,28.578,0,0,0-8.9-7.444c-1.7-.889-3.468-1.647-5.205-2.461-2.242-1.051-4.517-2.033-6.718-3.162a27.065,27.065,0,0,1-7.412-5.467,23.3,23.3,0,0,1-5.844-10.644,16.95,16.95,0,0,1-.4-2.388,8.774,8.774,0,0,1,.023-1.967,3.914,3.914,0,0,1,4.643-3.667,11.13,11.13,0,0,1,4.179,1.279c1.426.759,2.827,1.572,4.194,2.432a59.065,59.065,0,0,0,6.982,3.964,20.37,20.37,0,0,0,2.544.966,4.314,4.314,0,0,0,1.494.107.843.843,0,0,0,.813-.928,6.849,6.849,0,0,0-.275-1.629,11.207,11.207,0,0,0-1.739-3.351c-.863-1.183-1.758-2.348-2.7-3.472-3.083-3.686-6.146-7.386-8.989-11.263a80.626,80.626,0,0,1-7.263-11.714,39.9,39.9,0,0,1-3.8-10.837,24.054,24.054,0,0,1,.882-12.267,12.927,12.927,0,0,1,1.218-2.6A4.791,4.791,0,0,1,3320.6-10a6.751,6.751,0,0,1,2.472,1.72,27.976,27.976,0,0,1,2.472,3.061c1.25,1.9,2.395,3.866,3.554,5.823,1.389,2.348,2.685,4.755,4.141,7.062,1.1,1.749,2.376,3.394,3.616,5.054a13.972,13.972,0,0,0,1.635,1.788,6.869,6.869,0,0,0,1.465,1.062,2.229,2.229,0,0,0,3.063-.74,4.9,4.9,0,0,0,.83-2.565,18.62,18.62,0,0,0-.386-5.126,31.452,31.452,0,0,0-2.419-7.324c-1.043-2.189-2.166-4.34-3.27-6.5-1.654-3.241-3.415-6.432-4.964-9.721a78.775,78.775,0,0,1-6.558-21.066,38.943,38.943,0,0,1-.388-11.479,26.206,26.206,0,0,1,2.156-7.861,11.45,11.45,0,0,1,2.08-3.15,4.366,4.366,0,0,1,6.029-.621,8.539,8.539,0,0,1,2.412,2.492c.873,1.361,1.693,2.755,2.494,4.159.676,1.185,1.269,2.417,1.938,3.605a19.372,19.372,0,0,0,3.507,4.738,11.131,11.131,0,0,0,2.051,1.538,3.139,3.139,0,0,0,3.684-.346,6.181,6.181,0,0,0,1.569-1.831,12.382,12.382,0,0,0,1.552-4.721,23.085,23.085,0,0,0-.111-6.8c-.616-3.842-1.34-7.665-2.011-11.5a120.854,120.854,0,0,1-1.592-12.784c-.166-2.472-.327-4.947-.369-7.422a69.136,69.136,0,0,1,3.735-25.055,33.546,33.546,0,0,1,3.37-6.942,19.266,19.266,0,0,1,2.65-3.308,11.046,11.046,0,0,1,2.677-1.97,7.058,7.058,0,0,1,8.066.928,11.074,11.074,0,0,1,2.67,3.461,20.47,20.47,0,0,1,2.114,6.924c.388,3.119.346,6.258.442,9.389.053,1.769.008,3.54.055,5.309a28.51,28.51,0,0,0,1.145,7.473,15.234,15.234,0,0,0,.915,2.4A10.687,10.687,0,0,0,3380.4-88.8a5.812,5.812,0,0,0,5.99,2.025,8.4,8.4,0,0,0,3.806-1.791,23.965,23.965,0,0,0,2.639-2.494c1.206-1.361,2.321-2.806,3.455-4.227a48.149,48.149,0,0,1,5.01-5.686,38.938,38.938,0,0,1,3.307-2.653,6.953,6.953,0,0,1,2.619-1.149,3.1,3.1,0,0,1,3.347,1.227,6.714,6.714,0,0,1,1.331,3.807,24.569,24.569,0,0,1-.5,6.181,48.182,48.182,0,0,1-6.313,15.832,102.694,102.694,0,0,1-8.766,12.361c-1.7,2.068-3.346,4.185-4.955,6.327a26.724,26.724,0,0,0-3.08,5.214,20.063,20.063,0,0,0-.964,2.707,3.806,3.806,0,0,0,.055,2.388.847.847,0,0,0,1.192.6,6.227,6.227,0,0,0,1.367-.641c.976-.631,1.946-1.277,2.869-1.98,1.608-1.227,3.179-2.5,4.764-3.757a39.2,39.2,0,0,1,6.96-4.569,17.248,17.248,0,0,1,4.695-1.674,16,16,0,0,1,2.256-.228,5.685,5.685,0,0,1,4.628,2.192,9.087,9.087,0,0,1,1.771,3.49,15.285,15.285,0,0,1-.21,8.819,25.634,25.634,0,0,1-2.472,5.522,47.891,47.891,0,0,1-6.112,8.1c-1.507,1.637-3.067,3.226-4.593,4.843-2.568,2.722-5.152,5.428-7.682,8.186a41.212,41.212,0,0,0-5.174,6.909c-.461.782-.89,1.588-1.287,2.4a10.623,10.623,0,0,0-.581,1.56c-.206.678-.479,1.453.174,1.977s1.371.118,2-.188a16.2,16.2,0,0,0,2.094-1.221c1.288-.892,2.546-1.827,3.8-2.761,2.111-1.567,4.187-3.181,6.326-4.709a37.265,37.265,0,0,1,6.468-3.633,13.4,13.4,0,0,1,4.357-1.225,12.545,12.545,0,0,1,2.713.069,5.889,5.889,0,0,1,3.927,2.364,10.509,10.509,0,0,1,2.11,8.138,17.649,17.649,0,0,1-2.308,6.535,45.259,45.259,0,0,1-7.384,9.581c-3.943,3.924-7.875,7.858-11.759,11.84-1.693,1.736-3.285,3.573-4.858,5.421a22.386,22.386,0,0,0-3.024,4.533,5.345,5.345,0,0,0-.68,2.152c-.027.691.221,1.117.895,1.183a6.952,6.952,0,0,0,2.25-.064c1.273-.3,2.511-.759,3.754-1.181,2.3-.778,4.57-1.621,6.881-2.355a16.369,16.369,0,0,1,5.683-.758,8,8,0,0,1,2.93.7,6.25,6.25,0,0,1,3.323,3.373,9.543,9.543,0,0,1,.554,5.654,31.43,31.43,0,0,1-2.221,6.913,17.614,17.614,0,0,1-3.651,5.177,38.136,38.136,0,0,1-6.712,5.425c-2.521,1.592-5.038,3.2-7.635,4.661a147.966,147.966,0,0,0-13.722,8.928,36.281,36.281,0,0,0-11.064,12.69c-1.247,2.37-2.573,4.7-3.865,7.044-.023.045-.046.089-.067.134a2.413,2.413,0,0,1-2.412,1.482c-2.224-.059-4.449-.05-6.674-.071Z" transform="translate(-2642.712 355.94)" fill="url(#linear-gradient-14)"/>
                <path id="Path_45" data-name="Path 45" d="M3395.373,24.618a132,132,0,0,0-23.858-23.4,131.231,131.231,0,0,0-31.933-18.238,115.6,115.6,0,0,0-42.808-8.28,75.389,75.389,0,0,0-30.65,6.737,15,15,0,0,0-4.482,2.8,6.13,6.13,0,0,0-1.19,1.538c-.4.815.452,1.595,1.54,1.479a13.224,13.224,0,0,0,1.35-.261c3.209-.675,6.473-1.234,9.736-1.781a89.7,89.7,0,0,1,37.214,2.09,124.619,124.619,0,0,1,43.955,21.685,154.3,154.3,0,0,1,33.466,35.217,103.293,103.293,0,0,1,6.281,10.33,130.8,130.8,0,0,1,8.943,19.819c1.674,5.031,3.055,10.136,4.295,15.267.834,3.448,1.655,6.911,2.289,10.4a33.017,33.017,0,0,0,5.213,12.595c2.411,3.656,5.488,4.188,7.543.938a20.313,20.313,0,0,0,2.943-12.567,98.758,98.758,0,0,0-1.694-13.16,162.709,162.709,0,0,0-10.7-33.476A150.552,150.552,0,0,0,3395.373,24.618Z" transform="translate(-2665.5 401.27)" fill="url(#linear-gradient-15)"/>
                <path id="Path_46" data-name="Path 46" d="M3442.861,45.361a137.07,137.07,0,0,0-65.011-24.892,115.576,115.576,0,0,0-43.446,3.676,75.366,75.366,0,0,0-27.663,14.819,15.009,15.009,0,0,0-3.55,3.912,6.116,6.116,0,0,0-.727,1.8c-.162.893.869,1.411,1.884,1.006a12.733,12.733,0,0,0,1.228-.621c2.9-1.523,5.893-2.946,8.884-4.361a89.73,89.73,0,0,1,36.38-8.109,124.6,124.6,0,0,1,48.2,8.915A154.272,154.272,0,0,1,3440.818,66.3a103.226,103.226,0,0,1,8.854,8.232,130.92,130.92,0,0,1,14,16.64c2.98,4.387,5.7,8.923,8.285,13.524,1.741,3.091,3.473,6.2,5.031,9.385a33.057,33.057,0,0,0,8.44,10.7c3.317,2.862,6.421,2.539,7.515-1.149a20.317,20.317,0,0,0-.585-12.895,99.058,99.058,0,0,0-5.21-12.2,162.518,162.518,0,0,0-19.4-29.305A150.527,150.527,0,0,0,3442.861,45.361Z" transform="translate(-2646.845 421.291)" fill="url(#linear-gradient-16)"/>
                <path id="Path_47" data-name="Path 47" d="M3377.055,29.957a130.062,130.062,0,0,0-8.644-17.786,140.246,140.246,0,0,0-12.484-18.513,129.161,129.161,0,0,0-19.861-19.985A80.605,80.605,0,0,0,3316.5-37.663a13.42,13.42,0,0,0-4.028-1.136,6.49,6.49,0,0,0-1.666.039.874.874,0,0,0-.452,1.538,7.83,7.83,0,0,0,.785.631c1.911,1.465,3.8,2.956,5.74,4.389a96.407,96.407,0,0,1,18.424,18.3,162.02,162.02,0,0,1,17.045,27.337,299.108,299.108,0,0,1,12.418,28.675c.911,2.409,1.722,4.861,2.436,7.334,1.29,4.465,2.755,8.887,3.685,13.451.681,3.348,1.283,6.712,1.944,10.065.444,2.253.958,4.493,1.391,6.748a13.386,13.386,0,0,0,4.428,7.539,4.056,4.056,0,0,0,6.492-.755,13.1,13.1,0,0,0,2.511-8.365,77.854,77.854,0,0,0-.768-8.026c-1.119-6.916-2.407-13.806-4.07-20.606A187.609,187.609,0,0,0,3377.055,29.957Z" transform="translate(-2643.476 395.273)" fill="url(#linear-gradient-17)"/>
                <path id="Path_48" data-name="Path 48" d="M3381.419,21.9a130.232,130.232,0,0,0-3.975-19.372,140.3,140.3,0,0,0-7.517-21.024,129.124,129.124,0,0,0-14.3-24.277,80.612,80.612,0,0,0-16.154-15.822,13.419,13.419,0,0,0-3.622-2.1,6.444,6.444,0,0,0-1.624-.374.873.873,0,0,0-.818,1.378,7.9,7.9,0,0,0,.6.805c1.491,1.892,2.956,3.8,4.477,5.672a96.387,96.387,0,0,1,13.326,22.284,162.024,162.024,0,0,1,9.755,30.7,299.5,299.5,0,0,1,4.94,30.857c.286,2.557.465,5.135.546,7.708.145,4.646.47,9.293.242,13.944-.167,3.413-.417,6.822-.6,10.234-.127,2.293-.184,4.589-.323,6.883a13.4,13.4,0,0,0,2.426,8.4,4.058,4.058,0,0,0,6.478.873,13.107,13.107,0,0,0,4.5-7.483,77.623,77.623,0,0,0,1.241-7.966c.626-6.978,1.082-13.972,1.153-20.972A187.131,187.131,0,0,0,3381.419,21.9Z" transform="translate(-2633.191 385.421)" fill="url(#linear-gradient-18)"/>
                <path id="Path_49" data-name="Path 49" d="M3372.61,17.782a130.135,130.135,0,0,0-18.062-8.053,140.349,140.349,0,0,0-21.47-6.138,129.058,129.058,0,0,0-28.062-2.517,80.606,80.606,0,0,0-22.27,3.914,13.453,13.453,0,0,0-3.814,1.723,6.379,6.379,0,0,0-1.25,1.1.873.873,0,0,0,.644,1.469,7.814,7.814,0,0,0,1.006-.023c2.406-.108,4.815-.185,7.218-.333a96.416,96.416,0,0,1,25.877,2.147,162.134,162.134,0,0,1,30.638,9.957,299.309,299.309,0,0,1,27.957,13.959c2.246,1.257,4.445,2.612,6.584,4.045,3.862,2.589,7.828,5.031,11.475,7.926,2.677,2.124,5.3,4.312,7.967,6.452,1.789,1.439,3.624,2.823,5.407,4.27a13.378,13.378,0,0,0,8.24,2.922,4.056,4.056,0,0,0,4.483-4.755,13.093,13.093,0,0,0-3.459-8.018,77.644,77.644,0,0,0-5.752-5.65c-5.307-4.572-10.726-9.017-16.376-13.153A187.13,187.13,0,0,0,3372.61,17.782Z" transform="translate(-2657.923 412.939)" fill="url(#linear-gradient-19)"/>
                <path id="Path_50" data-name="Path 50" d="M2949.7,95.588c-1.616-1.977-3.132-4.044-4.634-6.112q-2.825-3.89-5.4-7.972v19.824q1.576,1.71,3.231,3.322a14.635,14.635,0,0,0,8.266,4.255c2.744.391,3.886-1.546,3.009-4.576A23.769,23.769,0,0,0,2949.7,95.588Z" transform="translate(-2807.623 448.605)" fill="url(#linear-gradient-20)"/>
                <path id="Path_51" data-name="Path 51" d="M2956.654-2.331a4.462,4.462,0,0,0-1.4-.065,10.816,10.816,0,0,0-3.628,1.15,53.455,53.455,0,0,0-11.958,7.694v9.893a60.112,60.112,0,0,1,10.782-12.01c1.824-1.534,3.654-3.062,5.523-4.507a9.3,9.3,0,0,0,.773-.619C2957.318-1.338,2957.288-2.168,2956.654-2.331Z" transform="translate(-2807.623 411.411)" fill="url(#linear-gradient-21)"/>
                <path id="Path_52" data-name="Path 52" d="M2941.465,78.411c-.609-.761-1.2-1.533-1.8-2.3V87.5c.142.02.274.056.418.072a2.923,2.923,0,0,0,3.446-3.208A9.645,9.645,0,0,0,2941.465,78.411Z" transform="translate(-2807.623 446.213)" fill="url(#linear-gradient-22)"/>
                <path id="Path_53" data-name="Path 53" d="M2963.556,17.976a4.633,4.633,0,0,0-1.188.17,9.646,9.646,0,0,0-2.727,1.289,58.054,58.054,0,0,0-12.548,10.385,84.376,84.376,0,0,0-7.426,9.64V62.077c.2-.688.391-1.383.6-2.07a116.7,116.7,0,0,1,8.847-21.453,69.4,69.4,0,0,1,10.906-15.2c1.2-1.25,2.372-2.534,3.553-3.8a5.887,5.887,0,0,0,.482-.541A.629.629,0,0,0,2963.556,17.976Z" transform="translate(-2807.623 420.45)" fill="url(#linear-gradient-23)"/>
              </g>
            </g>
          </g>
          <path id="Path_54" data-name="Path 54" d="M3316.3,28.243a219.373,219.373,0,0,0-36.023-25.829c-3.21,7.021-9.9,16.447-9.9,16.447,1.639-4.467.437-14.179-1.022-22.189a168.193,168.193,0,0,0-33.7-12.191A134.4,134.4,0,0,1,3226.477.74c.967-2.788-.021-11.229-1.134-18.4-15.743-2.749-31.814-3.348-47.8-3.93l.025.051c6.973,14.745,14.021,29.6,22.43,43.545,6.863-1.97,14.972-4.487,18.2-6.236,0,0-5.341,9.257-12.414,15.332a172.234,172.234,0,0,0,10.629,14.238q3.5,4.2,7.283,8.141c6.823-4.91,15.107-11.419,18.864-16.5,0,0-5.657,12.751-11.746,23.573a284.606,284.606,0,0,0,25.523,21.105q6.852,5.1,13.934,9.906c8.733-5.431,17.725-11.457,21.087-15.153a146.372,146.372,0,0,1-11.231,21.545,218.006,218.006,0,0,0,31.261,16.26c4.333,1.8,8.767,3.436,13.269,4.89a71.71,71.71,0,0,0,5.543-14.56,134.559,134.559,0,0,1,2.565,16.94,129.051,129.051,0,0,0,26.438,4.246c7.528.375,11.711-2,13.712-5.851,3.569-6.867.18-18.414-3.6-27.347a68.43,68.43,0,0,0-5.935-10.846c-9.477,3.6-21.294,1.338-21.294,1.338L3356,71.361a294.587,294.587,0,0,0-30.707-34.854c-6.523,6.779-18.6,14.5-18.6,14.5C3310.019,47.045,3313.844,36.1,3316.3,28.243Z" transform="translate(-2702.201 402.917)" fill="#019961"/>
          <path id="Path_55" data-name="Path 55" d="M3008.6-23.024c-.581-4.19,2.811-8.106,6.771-9.591s8.342-1.12,12.553-.736c8.31.761,23.191,4.537,28.978,6.063-2.54-1.752-5.06-3.537-7.533-5.395a172.037,172.037,0,0,1-17.642-15.286c-2.691-2.813-5.444-5.568-7.93-8.565-1.156-1.277-2.254-2.6-3.332-3.944-6.477,3.071-13.918,3.443-21.1,3.309-5.692-.107-11.887-.7-16.028-4.605a7.291,7.291,0,0,1-2.584-5.566c.235-3.322,3.641-5.561,6.909-6.2,5.168-1.017,10.484.6,15.341,2.64,4.686,1.97,13,7.024,16.463,9.169-1.012-1.283-2.012-2.575-3.021-3.859a170.937,170.937,0,0,1-17.123-28.233c-10.558,3.7-23.589-2.074-27.794-12.476a5,5,0,0,1-.482-2.673c.488-2.819,4.432-3.14,7.2-2.412,6.691,1.762,16.409,11.632,20.151,15.65a168.98,168.98,0,0,1-10.974-31.143c-2.217-3.582-9.85-14.482-11.428-17.914-1.492-3.244-2.527-6.854-1.931-10.375s3.163-6.883,6.677-7.519c5.265-.955,9.682,4.226,11.364,9.3,2.172,6.559-2.241,21.746-3.66,26.291a167.807,167.807,0,0,0,10.714,29.939c-.139-3.061-.629-14.531-.406-19.6.259-5.874,2.384-12.462,7.786-14.785,2.524-1.085,6-.745,7.321,1.665,1.064,1.945.327,4.347-.475,6.414a136.884,136.884,0,0,1-14,26.791,169.5,169.5,0,0,0,18.291,30.148c1.124,1.41,2.236,2.83,3.367,4.234-1.006-4.744-4.952-24.445-3.256-33.83.782-4.327,3.449-9.464,7.826-9.049a6.516,6.516,0,0,1,5.083,4.275,16.186,16.186,0,0,1,.745,6.893c-.566,10.483-4.712,23.092-9.919,32.3,1.133,1.394,2.288,2.771,3.505,4.1,2.482,2.951,5.229,5.657,7.91,8.422a170.512,170.512,0,0,0,17.559,14.993c3.141,2.326,6.352,4.553,9.6,6.724a70.885,70.885,0,0,1-14.435-27.89c-1.137-4.415-1.833-9.145-.437-13.485s5.4-8.118,9.959-7.925c5.231.222,8.957,5.268,10.66,10.219,4.385,12.74.68,26.737-3.71,39.476l-.323.73c9.062,5.966,18.414,11.547,27.528,17.545q7.717,5.1,15.095,10.706c-4.657-7.891-18.92-33.154-19.912-48.192-.245-3.723-.086-7.858,2.447-10.6,2.4-2.595,6.481-3.179,9.8-1.971a15.058,15.058,0,0,1,7.636,7.021c2.13,3.806,3.086,8.141,3.924,12.422,2.852,14.552,4.667,29.662-1.958,42.809a260.274,260.274,0,0,1,36.83,34.583c-4.179-7.668-11.431-21.593-13.851-30.145-1.755-6.2-3.081-12.723-1.914-19.059a37.5,37.5,0,0,1,4.949-12.114c1.881-3.176,4.23-6.4,7.715-7.614,3.628-1.263,7.789.017,10.729,2.489s4.829,5.97,6.252,9.538a52.86,52.86,0,0,1-2.963,44.762c-1.883,3.355-4.816,12.016-7.2,16.5q5.155,6.191,9.9,12.719a219.013,219.013,0,0,1,19.406,32.262c-1.359-11.408-5.26-48.114-1.672-66.944,1.5-7.862,4.653-16.75,12.237-19.308,7.171-2.42,15.247,2.518,18.582,9.311s2.949,14.806,1.653,22.261c-3.745,21.532-13.627,42.34-29.509,57.334q1.309,2.784,2.538,5.6a186.683,186.683,0,0,1,13.215,44.872l-3.511.546a183.17,183.17,0,0,0-12.5-43.747l-.2.293-26.451,7a90.537,90.537,0,0,1-14.062,2.935,41.974,41.974,0,0,1-15.174-1.191c-8.425-2.293-16.757-8.793-17.034-17.52a8.966,8.966,0,0,1,1.381-5.423c1.747-2.508,4.972-3.469,7.987-3.97,15.256-2.531,30.659,2.383,45.326,7.288,6.429,2.152,13.175,4.534,17.75,9.47a212.849,212.849,0,0,0-22.3-39.395c-1.881-2.642-3.833-5.234-5.823-7.795-4.37,2.655-20.814,12.54-29.03,15.878-9.525,3.869-20.38,4.793-30.181,1.687-3.475-1.1-6.969-2.84-8.934-5.911-2.5-3.911-1.869-9.294.751-13.129s6.9-6.272,11.342-7.62c6.893-2.088,14.247-1.818,21.441-1.507,10.932.473,22.658,1.318,31.74,6.988a255.506,255.506,0,0,0-41.011-40.186c-5.653,4.425-11.381,8.825-17.794,12.042-6.711,3.366-14.307,5.386-21.746,4.383a16.9,16.9,0,0,1-9.63-4.179c-2.552-2.482-3.892-6.4-2.651-9.74,1.188-3.192,4.33-5.184,7.38-6.7,5.939-2.951,29.274-2.79,39.769.609q-5.879-4.41-11.974-8.513c-9.677-6.471-19.707-12.5-29.395-19.078-9.707,10.6-26.067,15.21-39.977,11.6C3014.182-15.61,3009.243-18.359,3008.6-23.024Z" transform="translate(-2793.74 340.33)" fill="url(#linear-gradient-24)"/>
        </g>
      </g>
    </g>
    <path id="Path_57" data-name="Path 57" d="M3058.716-25.694c3.124,2.123,6.288,4.181,9.46,6.22V-21.89q-3.2-2.037-6.373-4.113l.323-.73c4.39-12.739,8.094-26.735,3.71-39.476-1.7-4.95-5.429-10-10.661-10.219-4.555-.192-8.563,3.585-9.959,7.925s-.7,9.07.438,13.487a70.888,70.888,0,0,0,14.435,27.89c-3.253-2.172-6.463-4.4-9.6-6.724a170.741,170.741,0,0,1-17.559-14.993c-2.681-2.765-5.428-5.473-7.91-8.424-1.217-1.325-2.373-2.7-3.505-4.1,5.207-9.208,9.354-21.818,9.919-32.3a16.191,16.191,0,0,0-.745-6.893,6.519,6.519,0,0,0-5.083-4.276c-4.377-.416-7.044,4.722-7.827,9.049-1.7,9.385,2.25,29.086,3.256,33.831-1.131-1.406-2.243-2.826-3.367-4.236a169.465,169.465,0,0,1-18.291-30.148,136.885,136.885,0,0,0,14-26.791c.8-2.067,1.538-4.468.475-6.412-1.321-2.41-4.8-2.752-7.321-1.665-5.4,2.324-7.528,8.91-7.786,14.785-.223,5.067.267,16.537.406,19.6a167.73,167.73,0,0,1-10.714-29.939c1.418-4.545,5.832-19.73,3.66-26.289-1.682-5.08-6.1-10.261-11.364-9.306-3.515.636-6.082,4-6.677,7.519s.438,7.131,1.931,10.376c1.577,3.43,9.211,14.332,11.427,17.914a168.932,168.932,0,0,0,10.974,31.141c-3.742-4.016-13.461-13.888-20.152-15.65-2.765-.729-6.709-.406-7.2,2.412a5,5,0,0,0,.482,2.673c4.206,10.4,17.236,16.174,27.794,12.476a170.951,170.951,0,0,0,17.124,28.235c1.009,1.284,2.009,2.576,3.021,3.858-3.459-2.145-11.776-7.2-16.462-9.169-4.856-2.041-10.171-3.656-15.341-2.64-3.268.642-6.673,2.882-6.909,6.2a7.294,7.294,0,0,0,2.584,5.568c4.141,3.907,10.337,4.5,16.027,4.6,7.186.134,14.627-.238,21.1-3.308,1.078,1.341,2.176,2.666,3.332,3.943,2.487,3,5.238,5.753,7.93,8.567a172.148,172.148,0,0,0,17.642,15.285c2.472,1.859,4.994,3.643,7.533,5.4-5.787-1.527-20.668-5.3-28.978-6.063-4.211-.385-8.592-.75-12.553.735s-7.352,5.4-6.771,9.591c.645,4.664,5.585,7.415,10.142,8.6C3032.649-10.484,3049.009-15.1,3058.716-25.694Z" transform="translate(0 53.317)" fill="url(#linear-gradient-25)"/>
    <g id="Group_18" data-name="Group 18" transform="translate(3187.314 -78.435)">
      <path id="Path_58" data-name="Path 58" d="M3265.432,23.309c-8.384,4.311-14.807,11.619-20.216,19.362a142.263,142.263,0,0,0-11.364,10.336c-8.538,8.662-17.191,18.448-20.091,30.539,3.579-25.256,10.16-49.82,22.054-72.779,2.873-5.548,5.993-10.96,9.3-16.258.019.3.043.463.043.463,2.481.24,5.4-2.022,7.8-2.725,2.777-.817,5.04-2.808,7.087-4.855,4.723-4.718,9.1-11.049,7.667-17.569-20.93,7.288-22.619,19.994-22.615,23.941a223.507,223.507,0,0,0-17.29,33.273,163.59,163.59,0,0,1,4.466-30.011c.178-.271,13.251-20.095,15.147-29.467,1.4-6.9.172-14.026-1.054-20.957-8.146,4.572-13.228,13.443-15.055,22.6-1.76,8.825-.837,17.955.769,26.82a163.779,163.779,0,0,0-4.769,32.237c-.188.466-.381.929-.565,1.4A223,223,0,0,0,3214.2,76.849c-1.4,8.883-2.384,17.823-3.123,26.783a380.411,380.411,0,0,0-4.513-49.862c-1.19-7.549-2.669-15.039-4.238-22.512a.191.191,0,0,0,.014-.048,88.273,88.273,0,0,1,3.209-16.55c5.7-3.013,12.263-13.817,14.123-19.9,1.879-6.142,2-12.671,1.911-19.093a48.057,48.057,0,0,0-12.48,15.54c-4.144,7.9-3.92,19.522-3.769,22.7a88.6,88.6,0,0,0-3.285,16.037c-1.98-9.369-4.085-18.715-5.932-28.115-.12-.612-.234-1.225-.352-1.839a.186.186,0,0,0,.01-.115c-.193-.886-.358-1.775-.5-2.664a.2.2,0,0,0-.009-.085l-.013-.038c-2.528-15.748,2.382-31.73,7.2-46.638q1.982-6.126,4.277-12.139c8.921-4.7,15.205-14.52,18.736-23.967,3.581-9.578,4.486-19.946,4.6-30.171-7,2.585-10.837,9.754-14.927,15.992-13.788,21.029-9.5,36.163-8.851,38.126q-2.452,6.438-4.552,13.009c-4.076,12.79-8.168,26.319-7.522,39.823-1.276-8.005-2.206-16.031-2.746-24.1a.211.211,0,0,0,0-.108l-.014-.051q-.625-9.4-.517-18.89c.147-11.371.936-22.71,2-34.026a5.3,5.3,0,0,0,2.8-1.258c3.964-3.006,4.778-13.6,5.269-18.1a115.127,115.127,0,0,0-.37-28.034h0a50.325,50.325,0,0,0-11.9,35.834c.252,4.184.56,11.15,3.774,11.541-.86,9.134-1.541,18.284-1.849,27.455q-.4,11.781.231,23.484c-4.858-16.354-16.52-28.54-28.037-40.751.722-4.6-2.745-13.967-5.187-17.9s-5.809-7.229-9.147-10.457q-7.059-6.823-14.21-13.55c-3.96,7.92-.879,17.135,3.038,25.078,4.793,9.72,21.163,15.484,24.778,16.656,6.5,6.883,13.061,13.745,18.446,21.339a90.469,90.469,0,0,0-16.324-4.914c.066-.069.137-.134.2-.206,0,0-12.537-17.465-43.576-3.018,4.543,7.339,14.309,9.271,22.941,9.394,3.742.053,7.635-.139,10.947-1.882,2.618-1.378,6.829-1.947,9.118-3.931a90.378,90.378,0,0,1,17.152,5.2,64.952,64.952,0,0,1,9.976,20.931,243.581,243.581,0,0,0,3.1,26.552c.059.335.126.67.184,1.006a39.043,39.043,0,0,0-9.667-14.161c-1.265-2.022-7.124-11.146-11.172-13.139-4.561-2.246-9.735-2.82-14.789-3.358l-9.09-.971c6.227,3.311,8.61,11.4,14.674,15,5.409,3.211,14.02,4.211,20.258,2.943a38.223,38.223,0,0,1,10.258,16.258c2.98,16.169,6.99,32.134,9.924,48.315A380.944,380.944,0,0,1,3210.542,99c.057,1.472.1,2.944.137,4.416a187.387,187.387,0,0,0-15.692-50.347,210.057,210.057,0,0,0-13.527-24.036q-1.16-1.786-2.355-3.55l.074-.544a48.034,48.034,0,0,0-29.343-38.82c-1.24,12.671,2.228,26.579,12.134,34.577a13.983,13.983,0,0,0,4.315,2.524c3.888,1.276,8.557-.023,12.046,1.88q1.685,2.477,3.309,4.989a207.911,207.911,0,0,1,13.351,23.981,187.32,187.32,0,0,1,15.759,52.552,386.114,386.114,0,0,1-2.62,51.792c-.033.271.391.309.423.037a385.9,385.9,0,0,0,2.609-50.907.206.206,0,0,0,.046-.113c.581-7.718,1.373-15.4,2.431-23.02a.236.236,0,0,0,.38-.126c2.818-12.844,12.354-23.318,21.46-32.31,2.989-2.95,6.116-5.747,9.349-8.417,1.346.329,9.371,2.238,12.858,1.958,8.788-.706,16.256-6.419,23.159-11.9L3293.33,23.7C3285.28,18.168,3274.118,18.842,3265.432,23.309Z" transform="translate(-3120.885 133.437)" fill="url(#linear-gradient-26)"/>
    </g>
  </g>
</svg>
