<svg id="Group_689" data-name="Group 689" xmlns="http://www.w3.org/2000/svg" xmlns:xlink="http://www.w3.org/1999/xlink" width="833.341" height="522.574" viewBox="0 0 833.341 522.574">
  <defs>
    <linearGradient id="linear-gradient" x1="-0.248" y1="-0.475" x2="0.361" y2="0.319" gradientUnits="objectBoundingBox">
      <stop offset="0" stop-color="#b0daff"/>
      <stop offset="1" stop-color="#1484ef"/>
    </linearGradient>
    <linearGradient id="linear-gradient-2" x1="4.309" y1="1.838" x2="-0.651" y2="0.177" xlink:href="#linear-gradient"/>
    <linearGradient id="linear-gradient-3" x1="1.658" y1="1.54" x2="0.448" y2="0.453" xlink:href="#linear-gradient"/>
    <linearGradient id="linear-gradient-4" x1="0.483" y1="-0.846" x2="0.504" y2="0.654" xlink:href="#linear-gradient"/>
    <linearGradient id="linear-gradient-5" x1="1.844" y1="-0.92" x2="0.463" y2="0.652" xlink:href="#linear-gradient"/>
    <linearGradient id="linear-gradient-6" x1="1.001" y1="-0.518" x2="0.255" y2="1.256" gradientUnits="objectBoundingBox">
      <stop offset="0.005" stop-color="#1384ef"/>
      <stop offset="1" stop-color="#001376"/>
    </linearGradient>
    <linearGradient id="linear-gradient-7" x1="-44.008" y1="-6.615" x2="-45.03" y2="-5.396" xlink:href="#linear-gradient-6"/>
    <linearGradient id="linear-gradient-8" x1="1.218" y1="-0.466" x2="0.368" y2="0.957" gradientUnits="objectBoundingBox">
      <stop offset="0" stop-color="#b0daff"/>
      <stop offset="1" stop-color="#0e81ee"/>
    </linearGradient>
    <linearGradient id="linear-gradient-9" x1="-25.982" y1="-0.466" x2="-26.832" y2="0.957" xlink:href="#linear-gradient-8"/>
    <linearGradient id="linear-gradient-10" x1="1.066" y1="15.599" x2="0.76" y2="7.447" gradientUnits="objectBoundingBox">
      <stop offset="0" stop-color="#fff"/>
      <stop offset="1" stop-color="#acccef"/>
    </linearGradient>
    <linearGradient id="linear-gradient-11" x1="0" y1="0.5" x2="1" y2="0.5" xlink:href="#linear-gradient-10"/>
    <linearGradient id="linear-gradient-12" x1="0.195" y1="1.565" x2="0.889" y2="-0.86" xlink:href="#linear-gradient-10"/>
  </defs>
  <g id="Group_659" data-name="Group 659" transform="translate(420.137 121.068)">
    <ellipse id="Ellipse_117" data-name="Ellipse 117" cx="18.033" cy="29.319" rx="18.033" ry="29.319" transform="translate(0 62.876)" fill="#ff2e2e"/>
    <path id="Path_1632" data-name="Path 1632" d="M1420.578,326.553a38.942,38.942,0,0,0,14.906,49.932,5.063,5.063,0,0,1,2.466,2.369c.522,1.558-.654,3.135-1.81,4.3a43.558,43.558,0,0,1-19.183,11.209c-10.812,2.988-22.3,1.68-33.389-.015-8.586-1.313-17.931-3.292-23.332-10.1a39.423,39.423,0,0,0,8.145-42.868" transform="translate(-1305.617 -197.328)" fill="#ffc3c5"/>
    <path id="Path_1633" data-name="Path 1633" d="M1417.237,322.868c-4.445,10.413-2.94,12.789-10.148,20.632-1.562,1.7-6.52,7.68-8.828,9.862-1.875,1.772-8.1,5.366-10.318,6.4-3.622,1.682-6.971,3.35-10.838,3.791-4.825.549-7.118.8-10.818-1.77,0,0-.511-9.852-2.511-13.014" transform="translate(-1300.321 -202.841)" fill="#ff9798"/>
    <path id="Path_1634" data-name="Path 1634" d="M1365.688,290.7c-7.433,5.381-15.3,15.732-16.8,24.785s4.977,17.564,6.415,25.973c2.092,12.245-.631,22.868,4.635,34.12,2.526,5.4,8.406,13.705,13.241,17.794,4.7,3.979,8.227,8.3,14.274,9.437,4.758.9,7.92-.489,12.61-1.682,10.65-2.711,26.652-10.543,36.119-19.92,10.57-10.466,14.177-15.128,17.634-29.595s2.561-29.742-.918-44.2" transform="translate(-1322.922 -250.97)" fill="#ffc7c9"/>
    <path id="Path_1635" data-name="Path 1635" d="M1349.222,344.688a71.966,71.966,0,0,1,16.4-23.841,8.8,8.8,0,0,1,3.245-2.246c4.527-1.463,7.954,3.869,10.875,7.623,7.83,10.064,29.3,19.092,41.957,17.571a238.019,238.019,0,0,1,38.116-1.917c-8.244-19.451-30.473-46.318-49-56.479-7.478-4.1-15.922-7.243-24.386-6.195-12.749,1.575-22.361,12.025-30.278,22.142-3.971,5.072-8.039,11.05-6.954,17.4" transform="translate(-1322.398 -268.465)" fill="#ff9798"/>
    <path id="Path_1636" data-name="Path 1636" d="M1383.11,295.97c-1.265,16.706-17.614,26.245-20.746,42.7-.923,4.845-.726,11.676-.125,16.571.811,6.624,4.333,14.759,7.288,20.741-8.409-1.32-18.807-11.289-22.037-19.164-5.846-14.249-6.342-30.83-.337-45.015s18.2-37.6,50.348-36.521" transform="translate(-1331.591 -274.076)" fill="#0b0042"/>
    <path id="Path_1637" data-name="Path 1637" d="M1351.463,300.2c15.417,6.869,21.24,26.155,35.008,35.919,8.906,6.317,15.972,9.317,26.789,10.815,2.818.392,15.385-1.25,17.938-2.508-6.018-5.651-14.938-13.129-15.035-21.385a63.613,63.613,0,0,0,42.161,25.1L1442.7,307.6a80.793,80.793,0,0,0-4.3-9.832c-6.957-12.7-20.779-20.944-35.161-22.631s-29.1,2.746-41.178,10.73c-5.406,3.577-10.585,8.2-12.485,14.392" transform="translate(-1321.553 -274.779)" fill="#0b0042"/>
    <path id="Path_1638" data-name="Path 1638" d="M1375.464,287.752s24.543-11.681,32.954,0,16.661,24.942,13.436,53.805-22.1,24.076-22.1,24.076Z" transform="translate(-1282.836 -263.14)" fill="#0b0042"/>
    <g id="Group_653" data-name="Group 653" transform="translate(19.797 64.13)">
      <path id="Path_1639" data-name="Path 1639" d="M1362.761,309.126c-.879,6.337-1.241,11.137-4.438,18.428a2.1,2.1,0,0,0,.1,1.695,1.635,1.635,0,0,0,.991.741,22.335,22.335,0,0,0,8.946,1.378,74.252,74.252,0,0,0-5.6-22.241" transform="translate(-1328.48 -287.528)" fill="#ff9798"/>
      <g id="Group_651" data-name="Group 651" transform="translate(0 6.168)">
        <path id="Path_1640" data-name="Path 1640" d="M1372.528,303.168a43.517,43.517,0,0,0-16.259,1.34,21.124,21.124,0,0,0-5.988,2.721,11.6,11.6,0,0,0-3.884,5.286c-.7,1.667,2.022,2.394,2.713.749a8.107,8.107,0,0,1,3.27-4.043,21.191,21.191,0,0,1,5.558-2.254,43.206,43.206,0,0,1,14.589-.986c1.8.17,1.792-2.646,0-2.813Z" transform="translate(-1346.284 -302.944)" fill="#0b0042"/>
      </g>
      <ellipse id="Ellipse_118" data-name="Ellipse 118" cx="2.899" cy="3.692" rx="2.899" ry="3.692" transform="translate(18.006 18.968)" fill="#0b0042"/>
      <ellipse id="Ellipse_119" data-name="Ellipse 119" cx="2.899" cy="3.692" rx="2.899" ry="3.692" transform="translate(58.809 15.331)" fill="#0b0042"/>
      <path id="Path_1641" data-name="Path 1641" d="M1357.289,324.866l34.542-4s-8.209,14.167-17.754,15.492C1361.158,338.157,1357.289,324.866,1357.289,324.866Z" transform="translate(-1329.822 -269.96)" fill="#fff"/>
      <g id="Group_652" data-name="Group 652" transform="translate(50.236)">
        <path id="Path_1642" data-name="Path 1642" d="M1368.105,306.366a43.275,43.275,0,0,1,14.347-3.07,21.339,21.339,0,0,1,5.818.614,8.511,8.511,0,0,1,4.57,3.28c1.136,1.41,3.115-.592,1.989-1.989a11.05,11.05,0,0,0-5.119-3.8,21.62,21.62,0,0,0-6.586-.926,44.148,44.148,0,0,0-15.767,3.18c-1.67.649-.944,3.372.749,2.713Z" transform="translate(-1366.411 -300.473)" fill="#0b0042"/>
      </g>
    </g>
    <g id="Group_658" data-name="Group 658" transform="translate(18.034 4.186)">
      <g id="Group_655" data-name="Group 655">
        <ellipse id="Ellipse_120" data-name="Ellipse 120" cx="22.744" cy="29.319" rx="22.744" ry="29.319" transform="translate(86.082 58.69)" fill="#ff2e2e"/>
        <g id="Group_654" data-name="Group 654">
          <path id="Path_1643" data-name="Path 1643" d="M1457.01,337.729a91.158,91.158,0,0,0-5.087-18.82c-4.5-12.053-11.235-23.869-21.455-31.966a47.093,47.093,0,0,0-19.878-9.415,57.261,57.261,0,0,0-25.875.891c-13.905,3.761-24.583,13.765-30.758,26.587-4.593,9.537-6.859,19.868-8.117,30.318-.085.716-.167,1.435-.25,2.151a2.5,2.5,0,0,0,2.484,2.484,2.544,2.544,0,0,0,2.483-2.484c.082-.716.165-1.435.25-2.151.048-.379.092-.761.142-1.141.027-.217.055-.432.082-.649.093-.716-.055.377.048-.357.3-2.1.632-4.191,1.034-6.272a86.859,86.859,0,0,1,4.463-15.6c4.488-11.287,12.687-21.762,24.545-26.465,13.878-5.5,30.718-4.6,43.247,3.754,10.174,6.784,17.282,18.048,21.708,28.923a105.749,105.749,0,0,1,4.535,13.853c.616,2.431,1.011,4.9,1.557,7.338.025.11.035.227.052.342a2.5,2.5,0,0,0,3.055,1.735,2.551,2.551,0,0,0,1.735-3.055Z" transform="translate(-1345.578 -276.456)" fill="#ff2e2e"/>
        </g>
        <ellipse id="Ellipse_121" data-name="Ellipse 121" cx="18.192" cy="23.45" rx="18.192" ry="23.45" transform="translate(93.197 62.845)" fill="#e80c0c"/>
      </g>
      <g id="Group_657" data-name="Group 657" transform="translate(49.72 101.674)">
        <g id="Group_656" data-name="Group 656" transform="translate(8.31)">
          <path id="Path_1644" data-name="Path 1644" d="M1417.684,317.572c-8.978,8.152-19.7,14.8-30.426,20.335a146.082,146.082,0,0,1-17.472,7.628c-1.69.609-.961,3.327.749,2.713A158.77,158.77,0,0,0,1416.8,322c.973-.794,1.944-1.592,2.873-2.436,1.343-1.22-.651-3.2-1.989-1.989Z" transform="translate(-1368.828 -317.192)" fill="#0b0042"/>
        </g>
        <ellipse id="Ellipse_122" data-name="Ellipse 122" cx="6.413" cy="3.78" rx="6.413" ry="3.78" transform="translate(0 29.79) rotate(-20.024)" fill="#0b0042"/>
      </g>
    </g>
  </g>
  <g id="Group_660" data-name="Group 660" transform="translate(0 514.12)">
    <path id="Path_1645" data-name="Path 1645" d="M1999.373,432.345H1207.525c-10.693,0-21.41-.2-32.1,0-.467.01-.936,0-1.4,0-5.324,0-5.332,8.274,0,8.274H1965.87c10.693,0,21.408.2,32.1,0,.469-.01.936,0,1.405,0,5.321,0,5.332-8.274,0-8.274Z" transform="translate(-1170.026 -432.255)" fill="#0b0042"/>
  </g>
  <g id="Group_661" data-name="Group 661" transform="translate(688.721 97.625)">
    <circle id="Ellipse_123" data-name="Ellipse 123" cx="55.479" cy="55.479" r="55.479" opacity="0.17" fill="url(#linear-gradient)"/>
    <path id="Path_1646" data-name="Path 1646" d="M1474.125,343.531c6.569-1.745,12.25-5.561,15.285-11.189a21.232,21.232,0,0,0,1.4-2.9c3.529-6.794,3.237-18.068,2.978-21.832-.23-10.453-3.055-17.938-5.646-21.917a13.016,13.016,0,0,0-1.862-3c-6.055-6.532-10.463-8.281-17.252-9.093-3.147-.377-6.2,1.3-6.048,3.3l1.455,19.591c.147,1.969,3.342,3.162,6.367,2.359a36.088,36.088,0,0,0,8.958-3.574,38.428,38.428,0,0,1,2.431,13.069l0,.142a57.087,57.087,0,0,1-.467,12.08,36.258,36.258,0,0,0-9.382-2.284c-3.147-.374-6.2,1.3-6.048,3.3l1.455,19.591C1467.905,343.139,1471.1,344.332,1474.125,343.531Z" transform="translate(-1420.503 -253.185)" fill="url(#linear-gradient-2)"/>
  </g>
  <g id="Group_662" data-name="Group 662" transform="translate(462.025)">
    <circle id="Ellipse_124" data-name="Ellipse 124" cx="40.05" cy="40.05" r="40.05" opacity="0.26" fill="url(#linear-gradient-3)"/>
    <path id="Path_1647" data-name="Path 1647" d="M1396.744,249.487c0-9.267-7.156-16.78-15.984-16.78s-15.982,7.513-15.982,16.78a17.5,17.5,0,0,0,.956,5.673h-.018l.08.18a17.016,17.016,0,0,0,1.173,2.6l14.352,22.753,13.9-24.061-.018,0A17.352,17.352,0,0,0,1396.744,249.487Zm-15.512,7.213a7.684,7.684,0,1,1,7.683-7.685A7.684,7.684,0,0,1,1381.231,256.7Z" transform="translate(-1340.711 -216.65)" fill="url(#linear-gradient-4)"/>
  </g>
  <g id="Group_664" data-name="Group 664" transform="translate(249.129 69.558)">
    <path id="Path_1648" data-name="Path 1648" d="M1345.329,323.025a42.374,42.374,0,1,0-17.853,13.074l-.018.015,21.086,7.977-3.192-21.083Z" transform="translate(-1269.839 -254.142)" opacity="0.43" fill="url(#linear-gradient-5)"/>
    <g id="Group_663" data-name="Group 663" transform="translate(22.913 40.673)">
      <circle id="Ellipse_125" data-name="Ellipse 125" cx="3.457" cy="3.457" r="3.457" fill="#fff"/>
      <circle id="Ellipse_126" data-name="Ellipse 126" cx="3.457" cy="3.457" r="3.457" transform="translate(15.182)" fill="#fff"/>
      <circle id="Ellipse_127" data-name="Ellipse 127" cx="3.457" cy="3.457" r="3.457" transform="translate(30.365)" fill="#fff"/>
    </g>
  </g>
  <circle id="Ellipse_128" data-name="Ellipse 128" cx="4.124" cy="4.124" r="4.124" transform="translate(350.728 295.028)" fill="#238df0" opacity="0.67"/>
  <circle id="Ellipse_129" data-name="Ellipse 129" cx="4.633" cy="4.633" r="4.633" transform="translate(328.581 260.745)" fill="#238df0" opacity="0.67"/>
  <g id="Group_685" data-name="Group 685" transform="translate(290.645 260.872)">
    <g id="Group_681" data-name="Group 681" transform="translate(20.62 19.01)">
      <g id="Group_665" data-name="Group 665" transform="translate(356.204 151.215)">
        <path id="Path_1649" data-name="Path 1649" d="M1437.446,482.1c9.844-19.234,23.449-37.357,42.391-47.755,17.833-9.789,38.877-11.968,57.454-20.26a94.2,94.2,0,0,0,23.592-15.1c-2.705,17.329-5.533,35.031-13.8,50.5-6.107,11.429-15.11,21.488-18.687,33.94" transform="translate(-1437.446 -398.992)" fill="url(#linear-gradient-6)"/>
        <path id="Path_1650" data-name="Path 1650" d="M1529.446,402.142A149.432,149.432,0,0,1,1504,433.095c-9.17,8.471-19.207,15.9-28.664,24.009a166.313,166.313,0,0,0-2.735-25.743c-.24-1.293-2.209-.746-1.969.542a162.868,162.868,0,0,1,2.7,26.155.9.9,0,0,0,.255.559c-.888.776-1.807,1.52-2.681,2.314a75.529,75.529,0,0,0-15.023,17.993,1.022,1.022,0,0,0,1.765,1.031c7.3-12.677,19.137-21.525,30.351-30.513,2.658-2.129,5.309-4.286,7.927-6.484a.933.933,0,0,0,.514.107q9.727-1.9,19.593-2.91c1.3-.135,1.308-2.179,0-2.044-5.843.6-11.654,1.468-17.429,2.518a172.212,172.212,0,0,0,19.274-18.937,156.262,156.262,0,0,0,13.331-18.518C1531.909,402.053,1530.142,401.027,1529.446,402.142Z" transform="translate(-1410.079 -394.999)" fill="#fff" opacity="0.33"/>
      </g>
      <g id="Group_666" data-name="Group 666" transform="translate(71.023)">
        <path id="Path_1651" data-name="Path 1651" d="M1413.443,461.349c-2.012-21.515-7.935-43.39-21.672-60.065-12.937-15.7-31.674-25.526-45.853-40.11a94.172,94.172,0,0,1-16.319-22.766c-3.909,17.1-7.842,34.589-5.9,52.018,1.438,12.877,6.07,25.556,4.777,38.448" transform="translate(-1323.189 -338.408)" fill="url(#linear-gradient-7)"/>
        <path id="Path_1652" data-name="Path 1652" d="M1327.534,342.169A149.529,149.529,0,0,0,1339.7,380.35c5.376,11.264,11.946,21.882,17.724,32.922a166.407,166.407,0,0,1,12.08-22.9c.7-1.111,2.329.127,1.63,1.233a163,163,0,0,0-12.2,23.292.9.9,0,0,1-.442.424c.536,1.051,1.113,2.082,1.632,3.142a75.689,75.689,0,0,1,7.286,22.279,1.023,1.023,0,0,1-2.022.3c-2.079-14.479-9.8-27.084-16.883-39.589-1.68-2.963-3.342-5.948-4.959-8.961a.913.913,0,0,1-.517-.092q-8.333-5.365-17.12-9.964c-1.153-.6-.409-2.508.759-1.9,5.2,2.721,10.278,5.681,15.255,8.8a172.038,172.038,0,0,1-10.885-24.733,156.527,156.527,0,0,1-5.521-22.139A1.023,1.023,0,0,1,1327.534,342.169Z" transform="translate(-1319.99 -334.027)" fill="#fff" opacity="0.33"/>
      </g>
      <g id="Group_673" data-name="Group 673" transform="translate(265.973 13.74)">
        <path id="Path_1653" data-name="Path 1653" d="M1401.295,565.569a162.775,162.775,0,0,1,44.965-92.994c17.943-18.283,40.055-32.118,57.684-50.708a151.546,151.546,0,0,0,39.1-77.954c22.926,48.229,24.4,106.186,3.956,155.518-9.387,22.651-23.17,43.639-29,67.456" transform="translate(-1401.295 -343.913)" fill="url(#linear-gradient-8)"/>
        <g id="Group_672" data-name="Group 672" transform="translate(41.783 5.53)" opacity="0.31">
          <g id="Group_667" data-name="Group 667" transform="translate(42.662 95.906)">
            <path id="Path_1654" data-name="Path 1654" d="M1435.688,385.531c-1.415,16.259.19,32.682,1.1,48.926.072,1.308,2.119,1.318,2.044,0-.914-16.244-2.519-32.667-1.1-48.926.112-1.308-1.932-1.3-2.044,0Z" transform="translate(-1435.128 -384.553)" fill="#fff"/>
          </g>
          <g id="Group_668" data-name="Group 668" transform="translate(62.401 101.848)">
            <path id="Path_1655" data-name="Path 1655" d="M1444.6,405.187l38.1-16.4c1.2-.519.165-2.279-1.034-1.765l-38.1,16.4c-1.205.519-.164,2.281,1.031,1.765Z" transform="translate(-1443.036 -386.934)" fill="#fff"/>
          </g>
          <g id="Group_669" data-name="Group 669" transform="translate(23.603 158.164)">
            <path id="Path_1656" data-name="Path 1656" d="M1429.059,427.75l38.1-16.4c1.206-.519.165-2.279-1.031-1.765l-38.1,16.4c-1.206.519-.167,2.281,1.031,1.765Z" transform="translate(-1427.492 -409.497)" fill="#fff"/>
          </g>
          <g id="Group_670" data-name="Group 670" transform="translate(1.794 140.165)">
            <path id="Path_1657" data-name="Path 1657" d="M1418.764,403.256a246.734,246.734,0,0,0,11.484,49.148c.427,1.235,2.4.7,1.972-.544a244.118,244.118,0,0,1-11.412-48.6c-.165-1.285-2.211-1.3-2.044,0Z" transform="translate(-1418.754 -402.285)" fill="#fff"/>
          </g>
          <g id="Group_671" data-name="Group 671">
            <path id="Path_1658" data-name="Path 1658" d="M1420.066,563.915c10.188-29.385,31.641-52.617,48.96-77.854,9.44-13.753,16.975-28.479,24.406-43.377,7.1-14.219,14.17-28.531,19.384-43.572,5.808-16.75,8.835-34.25,7.8-52-.077-1.308-2.122-1.318-2.044,0a130.174,130.174,0,0,1-6.362,47.373c-4.864,15.2-11.816,29.617-18.9,43.881-7.438,14.968-14.821,29.939-24.138,43.854-8.444,12.607-17.891,24.5-26.7,36.848-9.819,13.773-18.8,28.242-24.37,44.3-.432,1.245,1.54,1.78,1.969.544Z" transform="translate(-1418.035 -346.128)" fill="#fff"/>
          </g>
        </g>
      </g>
      <g id="Group_680" data-name="Group 680" transform="translate(0 13.74)">
        <path id="Path_1659" data-name="Path 1659" d="M1454.786,565.569a162.776,162.776,0,0,0-44.965-92.994c-17.946-18.283-40.058-32.118-57.684-50.708a151.547,151.547,0,0,1-39.1-77.954c-22.928,48.229-24.4,106.186-3.956,155.518,9.387,22.651,23.17,43.639,29,67.456" transform="translate(-1294.734 -343.913)" fill="url(#linear-gradient-9)"/>
        <g id="Group_679" data-name="Group 679" transform="translate(15.488 5.53)" opacity="0.31">
          <g id="Group_674" data-name="Group 674" transform="translate(56.409 95.906)">
            <path id="Path_1660" data-name="Path 1660" d="M1326.689,385.531c1.415,16.259-.19,32.682-1.1,48.926-.075,1.308-2.119,1.318-2.044,0,.913-16.244,2.518-32.667,1.1-48.926-.115-1.308,1.929-1.3,2.044,0Z" transform="translate(-1323.539 -384.553)" fill="#fff"/>
          </g>
          <g id="Group_675" data-name="Group 675" transform="translate(0.173 101.848)">
            <path id="Path_1661" data-name="Path 1661" d="M1339.645,405.187l-38.1-16.4c-1.206-.519-.165-2.279,1.031-1.765l38.1,16.4c1.2.519.165,2.281-1.033,1.765Z" transform="translate(-1301.008 -386.934)" fill="#fff"/>
          </g>
          <g id="Group_676" data-name="Group 676" transform="translate(38.971 158.164)">
            <path id="Path_1662" data-name="Path 1662" d="M1355.191,427.75l-38.1-16.4c-1.2-.519-.165-2.279,1.031-1.765l38.1,16.4c1.205.519.165,2.281-1.031,1.765Z" transform="translate(-1316.553 -409.497)" fill="#fff"/>
          </g>
          <g id="Group_677" data-name="Group 677" transform="translate(87.46 140.165)">
            <path id="Path_1663" data-name="Path 1663" d="M1349.5,403.256A246.952,246.952,0,0,1,1338.01,452.4c-.427,1.235-2.4.7-1.969-.544a244.5,244.5,0,0,0,11.411-48.6c.164-1.285,2.211-1.3,2.044,0Z" transform="translate(-1335.98 -402.285)" fill="#fff"/>
          </g>
          <g id="Group_678" data-name="Group 678">
            <path id="Path_1664" data-name="Path 1664" d="M1401.686,563.915c-10.186-29.385-31.639-52.617-48.961-77.854-9.437-13.753-16.973-28.479-24.406-43.377-7.094-14.219-14.169-28.531-19.384-43.572-5.806-16.75-8.836-34.25-7.795-52,.078-1.308,2.122-1.318,2.044,0a130.13,130.13,0,0,0,6.362,47.373c4.862,15.2,11.816,29.617,18.9,43.881,7.435,14.968,14.818,29.939,24.136,43.854,8.444,12.607,17.894,24.5,26.7,36.848,9.822,13.773,18.8,28.242,24.373,44.3.432,1.245-1.543,1.78-1.972.544Z" transform="translate(-1300.939 -346.128)" fill="#fff"/>
          </g>
        </g>
      </g>
    </g>
    <g id="Group_682" data-name="Group 682">
      <circle id="Ellipse_130" data-name="Ellipse 130" cx="1.901" cy="1.901" r="1.901" transform="translate(0 32.538)" fill="#238df0" opacity="0.45"/>
      <circle id="Ellipse_131" data-name="Ellipse 131" cx="4.124" cy="4.124" r="4.124" transform="translate(60.083 34.283)" fill="#238df0" opacity="0.45"/>
      <circle id="Ellipse_132" data-name="Ellipse 132" cx="4.633" cy="4.633" r="4.633" transform="translate(37.936)" fill="#238df0" opacity="0.25"/>
    </g>
    <g id="Group_683" data-name="Group 683" transform="translate(477.112 154.351)">
      <circle id="Ellipse_133" data-name="Ellipse 133" cx="1.901" cy="1.901" r="1.901" transform="translate(19.103 89.715)" fill="#238df0" opacity="0.48"/>
      <circle id="Ellipse_134" data-name="Ellipse 134" cx="4.124" cy="4.124" r="4.124" transform="translate(29.253 53.969)" fill="#238df0" opacity="0.48"/>
      <circle id="Ellipse_135" data-name="Ellipse 135" cx="4.124" cy="4.124" r="4.124" fill="#238df0" opacity="0.48"/>
    </g>
    <g id="Group_684" data-name="Group 684" transform="translate(356.323 21.488)">
      <circle id="Ellipse_136" data-name="Ellipse 136" cx="1.901" cy="1.901" r="1.901" transform="translate(0 52.716)" fill="#238df0" opacity="0.48"/>
      <circle id="Ellipse_137" data-name="Ellipse 137" cx="4.124" cy="4.124" r="4.124" transform="translate(43.751 8.254)" fill="#238df0" opacity="0.48"/>
      <circle id="Ellipse_138" data-name="Ellipse 138" cx="4.633" cy="4.633" r="4.633" transform="translate(3.886)" fill="#238df0" opacity="0.48"/>
    </g>
  </g>
  <path id="Path_1665" data-name="Path 1665" d="M1283.944,511.865s-58.311-116.4,23.7-223.935" transform="translate(-1029.678 -134.039)" fill="none" stroke="#707070" stroke-miterlimit="10" stroke-width="0.5" opacity="0.4"/>
  <path id="Path_1666" data-name="Path 1666" d="M1304.041,291.74s48.135-42.943,128.579-45.773" transform="translate(-969.545 -196.814)" fill="none" stroke="#707070" stroke-miterlimit="10" stroke-width="0.5" opacity="0.4"/>
  <path id="Path_1667" data-name="Path 1667" d="M1388.852,244.186s91.557-4.563,161.608,63.585" transform="translate(-842.672 -199.573)" fill="none" stroke="#707070" stroke-miterlimit="10" stroke-width="0.5" opacity="0.4"/>
  <path id="Path_1668" data-name="Path 1668" d="M1513.128,306.554s69.847,129.418-50.411,226.471" transform="translate(-732.172 -106.178)" fill="none" stroke="#707070" stroke-miterlimit="10" stroke-width="0.5" opacity="0.4"/>
  <g id="Group_686" data-name="Group 686" transform="translate(251.899 289.324)">
    <path id="Path_1669" data-name="Path 1669" d="M1430.509,342.191c-11.454,9.425-22.725,13.246-38.9,12.245-7.188-.447-11.489-1.954-16.439-6.257-6.267,5.771-11.521,13.5-12.971,21.136-4.615,24.321-4.885,49.036-5.144,73.648l-1.235,117.667a1.446,1.446,0,0,0,.252,1.018,2.264,2.264,0,0,0,1.323.529,248.453,248.453,0,0,0,56.014,3.172c8.439-.479,17.2-1.353,25.136,1.046-1.143-10.548,2.134-21.036,5.042-31.354,6.378-22.648,11.1-45.8,10.169-69.031-.312-7.77-1.258-15.515-1.563-23.282-.516-13.084.779-26.173.6-39.261a176.088,176.088,0,0,0-4.34-36.481c-2.2-9.709-10.586-16.985-17.949-24.795" transform="translate(-1143.982 -342.191)" fill="#fff"/>
    <path id="Path_1670" data-name="Path 1670" d="M1400.218,344.59c-.559,17.01-2.3,32.29-2.471,51.8-.078,8.99-.532,15.867-.512,24.852.013,6.178-.452,12.35-.916,18.515l-8.793,116.781a3.119,3.119,0,0,1-.651,2.014c-.846.9-2.458.931-3.841.881l-43.954-1.615,3.614-31.484c1.223-10.658,2.446-21.368,1.682-32.056-.764-10.655-3.5-21.188-3.737-31.861-.155-7.064.786-14.11,1.727-21.133l4-29.842c2.381-17.784,5.3-36.653,19.062-50.523a106.715,106.715,0,0,1,13.014-10.568c5.94-4.33,13.9-4.954,21.777-5.766" transform="translate(-1169.027 -338.602)" fill="#f49595"/>
    <path id="Path_1671" data-name="Path 1671" d="M1490.094,345.5c-7.113,0-13.813,4.051-22.214,6.994-9.048,3.167-14.856,9.063-21.415,15.313-5.773,5.5-18.914,23.437-24.089,29.507-14.721,17.267-28.971,37.277-42.189,55.72-10.178,14.2-17.669,17.065-31.422,27.835-9.552,7.48-20.736,12.517-31.5,18.123a311.286,311.286,0,0,0-43.06,27.129,8.056,8.056,0,0,0-2.928,3.192,8.177,8.177,0,0,0-.135,4.133l2.121,15.158a4.575,4.575,0,0,0,.884,2.516,4.483,4.483,0,0,0,2.93,1.081c9.492,1.036,19.079.781,28.616.272,9.585-.512,19.2-1.285,28.552-3.449,9.31-2.152,18.245-5.653,27.141-9.143,13.319-5.224,26.732-10.5,38.8-18.173,22.831-14.519,39.558-36.765,54.484-59.334a92.55,92.55,0,0,0,7.573-13.031c2.461-5.5,3.894-11.394,5.3-17.255q4.1-17.054,8.1-34.132" transform="translate(-1270.949 -337.245)" fill="#f49595"/>
    <path id="Path_1672" data-name="Path 1672" d="M1397.128,342.191c.679,14.958.4,48.831-1.373,69.415-5.067,58.777-5.805,93.4-17.414,151.24-.27,1.34-.464,2.915.7,3.871a6.026,6.026,0,0,0,3.662.846l50.173.834a6.08,6.08,0,0,0,2.945-.437,4.148,4.148,0,0,0,1.737-2.4c6.7-17.567,7.77-36.226,8.356-54.644q1.165-36.627.058-73.271c-.711-23.514-2.057-47.5,5.858-70.092,1.163-3.317,3.779-6.432,1.4-9.272-1.235-1.475-4.583-3.085-6.522-3.889-13.4-5.559-35.138-8.893-49.585-12.2" transform="translate(-1110.601 -342.191)" fill="#f49595"/>
    <path id="Path_1673" data-name="Path 1673" d="M1380.865,344.991s2.2.342,4.371,6.662,8.736,35.815,4.46,63.7-5.329,65.187-2.85,74.11c1.965,7.071,9.4,27.638,52.3-.5S1442.3,518.7,1442.3,518.7l-76.523,19.706s-15.732-63.2-14.4-65.434" transform="translate(-1150.752 -338.002)" fill="#f49595" opacity="0.18"/>
    <path id="Path_1674" data-name="Path 1674" d="M1381.427,489.27s15.317-5.94,29.817-24.653,12.567-31.858,12.567-42.266-1.735-67.913,18.093-66.178,3.469,98.151,3.469,98.151L1419.6,484.066l-28.766,12.392" transform="translate(-1105.678 -321.332)" fill="#e88585"/>
    <path id="Path_1675" data-name="Path 1675" d="M1501.247,348.3c-6.215,9.267-11.529,21.757-14.484,35.825-3.809,18.146-2.311,25.868-2.479,46.752-.093,11.813,1.984,23.874-1.982,38.795-3.072,11.559-12.257,17.042-23.058,22.117s-22.331,8.331-33.556,12.367c-26.751,9.617-52.16,16.611-77.29,29.922-7.745,4.1.771,13.813.672,15.355a5.7,5.7,0,0,0,1.073,3.122c4.675,8.027,5.444,6.37,9.844,9.25,1.583,1.038,6.52-1.283,8.18-.372,1.585.871,6-.167,7.807-.25,6.557-.294,14.1-.11,20.572-1.243,33.361-5.841,62.162,3.841,93.373-9.35,8.522-3.6,17.1-7.58,23.829-13.947,9.53-9.023,14.364-21.894,17.891-34.557,13.3-47.735,11.319-101.7-15.116-143.568-3.377-5.349-9.749-9.774-15.278-10.218" transform="translate(-1159.956 -333.054)" fill="#f49595"/>
    <path id="Path_1676" data-name="Path 1676" d="M1378.611,425.792s-23.262-4.038-32.929-1.994-23.142,5.134-22.866,12.789l55.795.055" transform="translate(-1193.363 -220.974)" fill="#ffc7c9"/>
    <path id="Path_1677" data-name="Path 1677" d="M1339.826,488.018s4.974-38.807,1.9-63.325c0,0,7.156-48.813,11.671-44.031s5.688,24.71,3.385,40.415-6.722,55.57-4.563,69.5" transform="translate(-1167.911 -285.134)" fill="#e88585"/>
  </g>
  <g id="Group_688" data-name="Group 688" transform="translate(79.996 341.353)">
    <rect id="Rectangle_223" data-name="Rectangle 223" width="407.818" height="10.651" rx="1.625" transform="translate(24.951 163.586)" fill="url(#linear-gradient-10)"/>
    <g id="Group_687" data-name="Group 687">
      <path id="Path_1678" data-name="Path 1678" d="M1472.135,537.274H1228.687a6.447,6.447,0,0,1-6.412-5.773l-16.985-161.344a6.449,6.449,0,0,1,6.413-7.121h245.712a6.445,6.445,0,0,1,6.42,5.86l14.721,161.344A6.447,6.447,0,0,1,1472.135,537.274Z" transform="translate(-1197.324 -363.036)" fill="url(#linear-gradient-11)"/>
      <path id="Path_1679" data-name="Path 1679" d="M1468.956,537.274H1225.507a6.448,6.448,0,0,1-6.412-5.773l-16.983-161.344a6.445,6.445,0,0,1,6.41-7.121h245.715a6.448,6.448,0,0,1,6.42,5.86l14.719,161.344A6.447,6.447,0,0,1,1468.956,537.274Z" transform="translate(-1202.076 -363.036)" fill="url(#linear-gradient-12)"/>
      <circle id="Ellipse_139" data-name="Ellipse 139" cx="13.489" cy="13.489" r="13.489" transform="translate(113.631 75.766)" fill="#fff" opacity="0.48"/>
    </g>
  </g>
</svg>
