<svg xmlns="http://www.w3.org/2000/svg" xmlns:xlink="http://www.w3.org/1999/xlink" width="118" height="118" viewBox="0 0 118 118">
  <defs>
    <filter id="Ellipse_105" x="0" y="0" width="118" height="118" filterUnits="userSpaceOnUse">
      <feOffset dy="3" input="SourceAlpha"/>
      <feGaussianBlur stdDeviation="3" result="blur"/>
      <feFlood flood-opacity="0.161"/>
      <feComposite operator="in" in2="blur"/>
      <feComposite in="SourceGraphic"/>
    </filter>
  </defs>
  <g id="_0302" data-name="0302" transform="translate(9.366 6.25)">
    <g transform="matrix(1, 0, 0, 1, -9.37, -6.25)" filter="url(#Ellipse_105)">
      <circle id="Ellipse_105-2" data-name="Ellipse 105" cx="50" cy="50" r="50" transform="translate(9 6)" fill="#158aff"/>
    </g>
    <g id="Group_231" data-name="Group 231" transform="translate(22.251 21.159)">
      <path id="Path_708" data-name="Path 708" d="M-469.2,935.947l-34.329-.2a9.7,9.7,0,0,0-6.953,2.832,9.741,9.741,0,0,0-2.914,6.914l-.119,10.87,1.976.021.119-10.875a7.781,7.781,0,0,1,2.327-5.525,7.718,7.718,0,0,1,5.553-2.261l34.329.2a7.842,7.842,0,0,1,7.786,7.88l-.223,37.491a7.78,7.78,0,0,1-2.327,5.525,7.782,7.782,0,0,1-5.506,2.262h-.048l-27.375-.116-.009,1.976,27.374.116h.06a9.743,9.743,0,0,0,6.893-2.832,9.743,9.743,0,0,0,2.914-6.919l.223-37.491A9.821,9.821,0,0,0-469.2,935.947Z" transform="translate(513.517 -935.742)" fill="#fff"/>
      <path id="Path_709" data-name="Path 709" d="M-457.257,980.315a22.892,22.892,0,0,0-1.93,6.416l-.158,1.121,6.985.034a6.133,6.133,0,0,0-.006,2.121l.184.749,7.588.037h0l7.229.036.191-.747a6.139,6.139,0,0,0,.015-2.122l6.986.034-.148-1.122a22.872,22.872,0,0,0-1.867-6.435,11.575,11.575,0,0,0-3.49-4.179,49.178,49.178,0,0,0,.444-10.131,27.663,27.663,0,0,0-9.24-19.064l-.085.1-.083-.1a27.661,27.661,0,0,0-9.427,18.972,49.169,49.169,0,0,0,.345,10.135A11.571,11.571,0,0,0-457.257,980.315Zm12.684-30.62a27.73,27.73,0,0,1,3.637,4.7l-7.318-.036A27.727,27.727,0,0,1-444.573,949.695Zm-7.558,31.37,1.54-1.239c-.021-.026-2.066-2.89-1.507-13.688a23.965,23.965,0,0,1,2.715-9.808l9.441.046v-.218a24.008,24.008,0,0,1,2.731,10.053c.451,10.738-1.634,13.663-1.641,13.673l1.528,1.254a7.773,7.773,0,0,0,1.18-2.748,11.171,11.171,0,0,1,2.2,2.961,18.578,18.578,0,0,1,1.47,4.658l-5.083-.025c-.093-.35-.2-.722-.332-1.12-1.124-3.429-2.661-4.667-2.832-4.8l-1.2,1.567a8.568,8.568,0,0,1,2.159,3.846,12.8,12.8,0,0,1,.7,3.367l-5.519-.027h0l-5.877-.029a12.78,12.78,0,0,1,.732-3.36,8.573,8.573,0,0,1,2.2-3.825l-1.189-1.578c-.173.128-1.722,1.352-2.879,4.769-.134.4-.247.767-.343,1.117l-5.083-.025a18.584,18.584,0,0,1,1.516-4.644,11.179,11.179,0,0,1,2.229-2.939A7.783,7.783,0,0,0-452.13,981.065Z" transform="translate(480.755 -942.589)" fill="#fff"/>
      <path id="Path_710" data-name="Path 710" d="M-427.173,994.181h.015a2.941,2.941,0,0,0,2.083-.857,2.943,2.943,0,0,0,.877-2.09,2.943,2.943,0,0,0-.857-2.1,2.942,2.942,0,0,0-2.09-.877,2.9,2.9,0,0,0-2.1.857,2.941,2.941,0,0,0-.878,2.089,2.941,2.941,0,0,0,.857,2.1A2.942,2.942,0,0,0-427.173,994.181Zm-.679-3.662a.98.98,0,0,1,.693-.285h0a.978.978,0,0,1,.7.292.987.987,0,0,1-.007,1.393h0a.986.986,0,0,1-.7.285.975.975,0,0,1-.695-.292.978.978,0,0,1-.285-.7A.98.98,0,0,1-427.852,990.519Z" transform="translate(463.081 -967.502)" fill="#fff"/>
      <path id="Path_711" data-name="Path 711" d="M-427.24,1011.429a2.951,2.951,0,0,0,2.083-.856,2.965,2.965,0,0,0,.021-4.188,2.965,2.965,0,0,0-4.188-.02,2.965,2.965,0,0,0-.021,4.188A2.953,2.953,0,0,0-427.24,1011.429Zm-.694-3.66a.981.981,0,0,1,.693-.285.982.982,0,0,1,.7.292.986.986,0,0,1-.007,1.393.986.986,0,0,1-1.393-.007A.986.986,0,0,1-427.934,1007.769Z" transform="translate(463.13 -977.935)" fill="#fff"/>
      <path id="Path_712" data-name="Path 712" d="M-488.063,995.761a10.433,10.433,0,0,0-3.507-11.172l-1.146-.915-2.53,8.508-4.925-1.464,2.53-8.508-1.459.14a10.434,10.434,0,0,0-9.042,7.441,10.465,10.465,0,0,0,3.429,11.109l-5.306,18.271,8.034,2.326,5.328-18.347A10.534,10.534,0,0,0-488.063,995.761Zm-9.428,5.491-.686.05-5.153,17.747-4.237-1.226,5.14-17.7-.575-.406a8.49,8.49,0,0,1-3.243-9.363,8.457,8.457,0,0,1,5.835-5.757l-2.216,7.452,8.713,2.591,2.216-7.452a8.456,8.456,0,0,1,1.741,8.01A8.541,8.541,0,0,1-497.492,1001.252Z" transform="translate(511.401 -963.844)" fill="#fff"/>
    </g>
  </g>
</svg>
