<svg xmlns="http://www.w3.org/2000/svg" xmlns:xlink="http://www.w3.org/1999/xlink" width="118" height="118" viewBox="0 0 118 118">
  <defs>
    <filter id="Path_1353" x="0" y="0" width="118" height="118" filterUnits="userSpaceOnUse">
      <feOffset dy="3" input="SourceAlpha"/>
      <feGaussianBlur stdDeviation="3" result="blur"/>
      <feFlood flood-opacity="0.161"/>
      <feComposite operator="in" in2="blur"/>
      <feComposite in="SourceGraphic"/>
    </filter>
  </defs>
  <g id="_06" data-name="06" transform="translate(8.884 6.25)">
    <g transform="matrix(1, 0, 0, 1, -8.88, -6.25)" filter="url(#Path_1353)">
      <path id="Path_1353-2" data-name="Path 1353" d="M50,0A50,50,0,1,1,0,50,50,50,0,0,1,50,0Z" transform="translate(9 6)" fill="#fff"/>
    </g>
    <path id="Path_702" data-name="Path 702" d="M-466.361,747.947l-34.329-.2a9.685,9.685,0,0,0-6.953,2.832,9.743,9.743,0,0,0-2.914,6.919l-.223,37.491a9.821,9.821,0,0,0,9.751,9.868l34.329.2h.06a9.742,9.742,0,0,0,6.893-2.832,9.744,9.744,0,0,0,2.914-6.919l.223-37.491A9.821,9.821,0,0,0-466.361,747.947Zm-17.169,17.288a3.165,3.165,0,0,1-3.143-3.181,3.14,3.14,0,0,1,.939-2.23,3.14,3.14,0,0,1,2.222-.913h.02a3.165,3.165,0,0,1,3.143,3.18,3.142,3.142,0,0,1-.939,2.231A3.191,3.191,0,0,1-483.531,765.235Zm-.016,2.767a7.531,7.531,0,0,1,4.8,1.832,5.987,5.987,0,0,1,1.629,2.159l-12.892-.077A7.246,7.246,0,0,1-483.589,768Zm15.774,6.023-.073,12.252-11.764-.07a5.094,5.094,0,0,0,1.111-3.155,5.144,5.144,0,0,0-5.107-5.169h-.032a5.1,5.1,0,0,0-3.61,1.483,5.105,5.105,0,0,0-1.527,3.624,5.1,5.1,0,0,0,1.074,3.168l-11.764-.07.073-12.252ZM-486.8,783a3.166,3.166,0,0,1,3.161-3.143h.019a3.166,3.166,0,0,1,3.143,3.181h0a3.141,3.141,0,0,1-.939,2.23,3.119,3.119,0,0,1-2.241.913,3.143,3.143,0,0,1-2.231-.939A3.144,3.144,0,0,1-486.8,783Zm3.127,5.947a7.531,7.531,0,0,1,4.8,1.832,5.978,5.978,0,0,1,1.629,2.159l-12.892-.077a7.246,7.246,0,0,1,6.424-3.914Zm11.031,5.994-.047,7.9-22.528-.134.047-7.9Zm13.831.351a7.781,7.781,0,0,1-2.327,5.525,7.781,7.781,0,0,1-5.5,2.261h-.048l-4.023-.024.06-10.078-4.509-.027a7.48,7.48,0,0,0-2.42-3.667,9.61,9.61,0,0,0-1.578-1.1l13.279.079.1-16.2-9.252-.055a7.48,7.48,0,0,0-2.421-3.667,9.541,9.541,0,0,0-3.381-1.881,5.174,5.174,0,0,0,.939-.729,5.106,5.106,0,0,0,1.526-3.624h0a5.107,5.107,0,0,0-1.483-3.642,5.107,5.107,0,0,0-3.624-1.526h-.032a5.1,5.1,0,0,0-3.61,1.483,5.1,5.1,0,0,0-1.527,3.624,5.106,5.106,0,0,0,1.483,3.642,5.162,5.162,0,0,0,.929.74A8.719,8.719,0,0,0-492.1,771.9l-9.255-.055-.1,16.2,13.291.079a8.251,8.251,0,0,0-4.065,4.719l-4.907-.029-.06,10.078-3.826-.023a7.842,7.842,0,0,1-7.786-7.88l.223-37.491a7.78,7.78,0,0,1,2.327-5.525,7.781,7.781,0,0,1,5.5-2.261h.048l34.329.2a7.842,7.842,0,0,1,7.786,7.88Z" transform="translate(533.341 -726.582)" fill="#437374"/>
  </g>
</svg>
