<svg xmlns="http://www.w3.org/2000/svg" xmlns:xlink="http://www.w3.org/1999/xlink" width="118" height="118" viewBox="0 0 118 118">
  <defs>
    <filter id="Ellipse_100" x="0" y="0" width="118" height="118" filterUnits="userSpaceOnUse">
      <feOffset dy="3" input="SourceAlpha"/>
      <feGaussianBlur stdDeviation="3" result="blur"/>
      <feFlood flood-opacity="0.161"/>
      <feComposite operator="in" in2="blur"/>
      <feComposite in="SourceGraphic"/>
    </filter>
  </defs>
  <g id="_0802" data-name="0802" transform="translate(9.25 6.25)">
    <g transform="matrix(1, 0, 0, 1, -9.25, -6.25)" filter="url(#Ellipse_100)">
      <circle id="Ellipse_100-2" data-name="Ellipse 100" cx="50" cy="50" r="50" transform="translate(9 6)" fill="#158aff"/>
    </g>
    <g id="Group_227" data-name="Group 227" transform="translate(20.83 19.648)">
      <path id="Path_691" data-name="Path 691" d="M-691.727,747.947l-34.329-.2a9.686,9.686,0,0,0-6.953,2.832,9.744,9.744,0,0,0-2.914,6.92l-.172,30.954a11.413,11.413,0,0,0-2.9,7.615,11.474,11.474,0,0,0,11.462,11.462,11.41,11.41,0,0,0,7.307-2.638v0l28.164.168h.06a9.742,9.742,0,0,0,6.893-2.832A9.743,9.743,0,0,0-682.2,795.3l.223-37.491A9.821,9.821,0,0,0-691.727,747.947Zm-35.811,57.6a9.5,9.5,0,0,1-9.485-9.486,9.5,9.5,0,0,1,9.485-9.486,9.5,9.5,0,0,1,9.486,9.486A9.5,9.5,0,0,1-727.538,805.547Zm43.363-10.254a7.78,7.78,0,0,1-2.327,5.525,7.794,7.794,0,0,1-5.553,2.261l-26.308-.156a11.4,11.4,0,0,0,2.286-6.862A11.474,11.474,0,0,0-727.538,784.6a11.4,11.4,0,0,0-6.571,2.079l.162-29.174a7.781,7.781,0,0,1,2.327-5.525,7.7,7.7,0,0,1,5.553-2.261l34.329.2a7.842,7.842,0,0,1,7.786,7.88Z" transform="translate(739 -747.742)" fill="#fff"/>
      <rect id="Rectangle_50" data-name="Rectangle 50" width="26.653" height="1.976" transform="translate(16.007 25.002)" fill="#fff"/>
      <rect id="Rectangle_51" data-name="Rectangle 51" width="26.653" height="1.976" transform="translate(16.279 30.14)" fill="#fff"/>
      <rect id="Rectangle_52" data-name="Rectangle 52" width="8.412" height="1.976" transform="translate(16.007 12.354)" fill="#fff"/>
      <rect id="Rectangle_53" data-name="Rectangle 53" width="8.412" height="1.976" transform="translate(16.093 17.492)" fill="#fff"/>
      <rect id="Rectangle_54" data-name="Rectangle 54" width="26.653" height="1.976" transform="translate(16.551 35.278)" fill="#fff"/>
      <path id="Path_692" data-name="Path 692" d="M-657.61,768.5a5.134,5.134,0,0,0,2.443-4.366A5.144,5.144,0,0,0-660.3,759a5.144,5.144,0,0,0-5.138,5.138A5.134,5.134,0,0,0-663,768.5c-3.489,1.084-6,4.108-6,6.7h1.976c0-2.021,2.885-5.138,6.719-5.138s6.719,3.117,6.719,5.138h1.976C-651.61,772.612-654.121,769.588-657.61,768.5Zm-2.7-7.528a3.165,3.165,0,0,1,3.162,3.162A3.166,3.166,0,0,1-660.3,767.3a3.166,3.166,0,0,1-3.162-3.162A3.165,3.165,0,0,1-660.3,760.976Z" transform="translate(696.666 -754.55)" fill="#fff"/>
      <path id="Path_693" data-name="Path 693" d="M-715.644,855.732l-9.182,9.182-4.044-4.044-1.4,1.4,5.441,5.442,10.579-10.58Z" transform="translate(733.719 -813.051)" fill="#fff"/>
    </g>
  </g>
</svg>
