<svg xmlns="http://www.w3.org/2000/svg" xmlns:xlink="http://www.w3.org/1999/xlink" width="118" height="118" viewBox="0 0 118 118">
  <defs>
    <filter id="Ellipse_106" x="0" y="0" width="118" height="118" filterUnits="userSpaceOnUse">
      <feOffset dy="3" input="SourceAlpha"/>
      <feGaussianBlur stdDeviation="3" result="blur"/>
      <feFlood flood-opacity="0.161"/>
      <feComposite operator="in" in2="blur"/>
      <feComposite in="SourceGraphic"/>
    </filter>
  </defs>
  <g id="_02" data-name="02" transform="translate(9.152 6.25)">
    <g transform="matrix(1, 0, 0, 1, -9.15, -6.25)" filter="url(#Ellipse_106)">
      <circle id="Ellipse_106-2" data-name="Ellipse 106" cx="50" cy="50" r="50" transform="translate(9 6)" fill="#fff"/>
    </g>
    <g id="Group_230" data-name="Group 230" transform="translate(20.846 18.136)">
      <path id="Path_703" data-name="Path 703" d="M-701.2,935.947l-34.329-.2a9.69,9.69,0,0,0-6.953,2.832,9.743,9.743,0,0,0-2.914,6.919l-.119,19.96,1.976.012.119-19.961a7.781,7.781,0,0,1,2.327-5.525,7.734,7.734,0,0,1,5.553-2.261l34.329.2a7.842,7.842,0,0,1,7.786,7.88l-.223,37.491a7.78,7.78,0,0,1-2.327,5.525,7.8,7.8,0,0,1-5.553,2.261l-19.47-.116-.012,1.976,19.471.116h.06a9.743,9.743,0,0,0,6.893-2.832,9.744,9.744,0,0,0,2.914-6.919l.223-37.491A9.821,9.821,0,0,0-701.2,935.947Z" transform="translate(751.149 -935.742)" fill="#437374"/>
      <path id="Path_704" data-name="Path 704" d="M-711.466,959.451a53.931,53.931,0,0,0-7.124,8.663,12.485,12.485,0,0,0-5.95.839,25.1,25.1,0,0,0-6.239,3.878l-.86.736,5.748,5.118a6.873,6.873,0,0,0-1.615,1.794l-.358.683,9.136,8.135h0l2.937,2.616.638-.434a6.885,6.885,0,0,0,1.6-1.811l5.747,5.118.632-.94a25.086,25.086,0,0,0,3.131-6.645,12.476,12.476,0,0,0,.146-6.007,53.931,53.931,0,0,0,7.782-8.077,30.367,30.367,0,0,0,6.232-22.406l-.046.008,0-.046A30.361,30.361,0,0,0-711.466,959.451Zm19.332.076-6.294-5.6a30.61,30.61,0,0,1,6.74-1.233A30.607,30.607,0,0,1-692.135,959.528Zm-5.52,12.346c-7.489,9.248-11.362,10.135-11.379,10.139l.317,1.95a8.672,8.672,0,0,0,3.078-1.484,12.189,12.189,0,0,1-.326,4.246,20.8,20.8,0,0,1-2.252,5.053l-4.33-3.856c.188-.373.379-.783.572-1.232,1.557-3.624,1.195-5.738,1.149-5.968l-1.939.38a9.5,9.5,0,0,1-1.025,4.808,13.89,13.89,0,0,1-1.955,3.4l-4.619-4.113h0l-4.914-4.375a13.854,13.854,0,0,1,3.148-2.335,9.507,9.507,0,0,1,4.657-1.573l.07-.985-.083.985.166-1.969c-.232-.019-2.375-.135-5.8,1.83-.424.243-.808.481-1.157.711l-4.33-3.856a20.811,20.811,0,0,1,4.758-2.821,12.206,12.206,0,0,1,4.18-.815,8.688,8.688,0,0,0-1.119,3.229l1.974.089c0-.037.4-3.932,8.757-12.475a26.509,26.509,0,0,1,9.482-6.172l7.813,6.957.238-.268A26.594,26.594,0,0,1-697.655,971.873Z" transform="translate(742.756 -944.765)" fill="#437374"/>
      <path id="Path_705" data-name="Path 705" d="M-664.7,983.117a3.138,3.138,0,0,0-2.286-.8,3.14,3.14,0,0,0-2.179,1.054,3.14,3.14,0,0,0-.8,2.285,3.144,3.144,0,0,0,1.054,2.179,3.14,3.14,0,0,0,2.1.8c.062,0,.125,0,.187-.005a3.139,3.139,0,0,0,2.178-1.054,3.141,3.141,0,0,0,.8-2.286A3.142,3.142,0,0,0-664.7,983.117Zm-1.217,3.15a1.178,1.178,0,0,1-.817.4,1.174,1.174,0,0,1-.857-.3,1.176,1.176,0,0,1-.4-.817,1.177,1.177,0,0,1,.3-.857,1.18,1.18,0,0,1,.817-.4l.07,0a1.178,1.178,0,0,1,.787.3,1.18,1.18,0,0,1,.4.817A1.179,1.179,0,0,1-665.919,986.267Z" transform="translate(705.459 -963.908)" fill="#437374"/>
      <path id="Path_706" data-name="Path 706" d="M-677.337,997.306a3.131,3.131,0,0,0-2.286-.8,3.14,3.14,0,0,0-2.178,1.054,3.14,3.14,0,0,0-.8,2.285,3.142,3.142,0,0,0,1.054,2.179,3.139,3.139,0,0,0,2.1.8c.062,0,.125,0,.187-.006a3.138,3.138,0,0,0,2.179-1.054,3.141,3.141,0,0,0,.8-2.286A3.143,3.143,0,0,0-677.337,997.306Zm-1.217,3.15a1.178,1.178,0,0,1-.817.4,1.172,1.172,0,0,1-.857-.3,1.18,1.18,0,0,1-.4-.817,1.179,1.179,0,0,1,.3-.857,1.18,1.18,0,0,1,.817-.4l.07,0a1.177,1.177,0,0,1,.787.3,1.18,1.18,0,0,1,.4.817A1.179,1.179,0,0,1-678.554,1000.456Z" transform="translate(713.1 -972.49)" fill="#437374"/>
      <rect id="Rectangle_59" data-name="Rectangle 59" width="14.812" height="1.976" transform="translate(0 43.669) rotate(-45)" fill="#437374"/>
      <rect id="Rectangle_60" data-name="Rectangle 60" width="17.607" height="1.976" transform="translate(1.186 53.945) rotate(-45)" fill="#437374"/>
      <rect id="Rectangle_61" data-name="Rectangle 61" width="8.384" height="1.976" transform="translate(14.031 52.957) rotate(-45)" fill="#437374"/>
      <rect id="Rectangle_62" data-name="Rectangle 62" width="15.371" height="1.976" transform="translate(17.39 61.455) rotate(-45)" fill="#437374"/>
    </g>
  </g>
</svg>
