<svg xmlns="http://www.w3.org/2000/svg" width="2215.391" height="2060.667" viewBox="0 0 2215.391 2060.667">
  <defs>
    <style>
      .cls-1 {
        fill: #b2d2f3;
      }

      .cls-2 {
        fill: #148aff;
      }

      .cls-3 {
        fill: #90c8ff;
      }

      .cls-4 {
        fill: none;
      }

      .cls-5, .cls-6 {
        stroke: none;
      }

      .cls-6 {
        fill: #1a8dff;
      }
    </style>
  </defs>
  <g id="Group_1716" data-name="Group 1716" transform="translate(125 -6606.333)">
    <g id="Group_58" data-name="Group 58" transform="translate(-818 5213.333)">
      <circle id="Ellipse_12" data-name="Ellipse 12" class="cls-1" cx="131.344" cy="131.344" r="131.344" transform="translate(693 1393)"/>
      <circle id="Ellipse_13" data-name="Ellipse 13" class="cls-2" cx="56.466" cy="56.466" r="56.466" transform="translate(1044.069 1393.222)"/>
      <circle id="Ellipse_14" data-name="Ellipse 14" class="cls-3" cx="38.053" cy="38.053" r="38.053" transform="translate(943.582 1703.153)"/>
    </g>
    <g id="Group_647" data-name="Group 647" transform="matrix(-0.485, 0.875, -0.875, -0.485, 3644.709, 7982.41)">
      <circle id="Ellipse_12-2" data-name="Ellipse 12" class="cls-1" cx="131.344" cy="131.344" r="131.344" transform="translate(693 1393)"/>
      <circle id="Ellipse_13-2" data-name="Ellipse 13" class="cls-2" cx="56.466" cy="56.466" r="56.466" transform="translate(1044.069 1393.222)"/>
      <circle id="Ellipse_14-2" data-name="Ellipse 14" class="cls-3" cx="38.053" cy="38.053" r="38.053" transform="translate(943.582 1703.153)"/>
    </g>
    <g id="Path_1626" data-name="Path 1626" class="cls-4" transform="translate(1809 6735)">
      <path class="cls-5" d="M111,0A111,111,0,1,1,0,111,111,111,0,0,1,111,0Z"/>
      <path class="cls-6" d="M 111 30 C 66.33647155761719 30 30 66.33647155761719 30 111 C 30 155.6635284423828 66.33647155761719 192 111 192 C 155.6635284423828 192 192 155.6635284423828 192 111 C 192 66.33647155761719 155.6635284423828 30 111 30 M 111 0 C 172.3035888671875 0 222 49.6964111328125 222 111 C 222 172.3035888671875 172.3035888671875 222 111 222 C 49.6964111328125 222 0 172.3035888671875 0 111 C 0 49.6964111328125 49.6964111328125 0 111 0 Z"/>
    </g>
    <g id="Path_1629" data-name="Path 1629" class="cls-4" transform="translate(-118 8445)">
      <path class="cls-5" d="M111,0A111,111,0,1,1,0,111,111,111,0,0,1,111,0Z"/>
      <path class="cls-6" d="M 111 30 C 66.33647155761719 30 30 66.33647155761719 30 111 C 30 155.6635284423828 66.33647155761719 192 111 192 C 155.6635284423828 192 192 155.6635284423828 192 111 C 192 66.33647155761719 155.6635284423828 30 111 30 M 111 0 C 172.3035888671875 0 222 49.6964111328125 222 111 C 222 172.3035888671875 172.3035888671875 222 111 222 C 49.6964111328125 222 0 172.3035888671875 0 111 C 0 49.6964111328125 49.6964111328125 0 111 0 Z"/>
    </g>
  </g>
</svg>
