<svg xmlns="http://www.w3.org/2000/svg" width="51" height="51" viewBox="0 0 51 51">
  <g id="telegram" transform="translate(0 0.334)">
    <circle id="Ellipse_98" data-name="Ellipse 98" cx="25.5" cy="25.5" r="25.5" transform="translate(0 -0.334)" fill="#7aa5da"/>
    <path id="Path_1231" data-name="Path 1231" d="M242.739,147.852l-11.246-11.227-18.318,22.328,13.19,13.19a25.341,25.341,0,0,0,16.382-23.7C242.746,148.242,242.743,148.047,242.739,147.852Z" transform="translate(-192.08 -123.105)" fill="#5786b5"/>
    <path id="Path_1232" data-name="Path 1232" d="M136.6,132.649a1.365,1.365,0,0,1,1.832,1.551l-4.529,21.65a1.426,1.426,0,0,1-2.24.858l-6.837-5.019-3.485,3.559a1.158,1.158,0,0,1-1.931-.462L116.9,146.8l-6.74-1.991a.967.967,0,0,1-.078-1.829Zm-3.325,4.8a.321.321,0,0,0-.382-.513l-14.548,9.023a.661.661,0,0,0-.283.759l1.984,8.712a.127.127,0,0,0,.247-.024l.444-6.639a.657.657,0,0,1,.218-.423Z" transform="translate(-98.632 -119.436)" fill="#fff"/>
    <path id="Path_1233" data-name="Path 1233" d="M210.937,176.4a.321.321,0,0,1,.382.513L199,187.806a.657.657,0,0,0-.218.423l-.444,6.639a.127.127,0,0,1-.247.024l-1.984-8.712a.661.661,0,0,1,.283-.759Z" transform="translate(-176.672 -158.895)" fill="#9ec2e5"/>
    <path id="Path_1234" data-name="Path 1234" d="M120.122,155.525a1.138,1.138,0,0,1-.708-.739L116.9,146.8l-6.74-1.991a.967.967,0,0,1-.078-1.829L136.6,132.65a1.36,1.36,0,0,1,1.648.539,1.426,1.426,0,0,0-.217-.258l-17.994,14.69v.643l-.1-.072.1,4.05v3.248a.641.641,0,0,0,.08.031v0Z" transform="translate(-98.633 -119.437)" fill="#fff"/>
    <g id="Group_338" data-name="Group 338" transform="translate(21.409 13.494)">
      <path id="Path_1235" data-name="Path 1235" d="M234.767,137.27a1.482,1.482,0,0,1-.029.363l-4.529,21.65a1.426,1.426,0,0,1-2.24.858l-6.837-5.019-4.789-3.426v-.643l17.994-14.69a1.423,1.423,0,0,1,.217.258c.012.02.024.039.036.058s.022.041.032.06.02.041.029.061.019.043.027.065.015.039.022.061a1.355,1.355,0,0,1,.051.206C234.759,137.178,234.764,137.222,234.767,137.27Z" transform="translate(-216.343 -136.364)" fill="#d1d1d1"/>
      <path id="Path_1236" data-name="Path 1236" d="M221.132,294.735l-3.485,3.559c-.029.029-.06.058-.09.084s-.061.048-.094.07l0,0a1.2,1.2,0,0,1-.2.107.852.852,0,0,1-.106.036,1.155,1.155,0,0,1-.45.041c-.039,0-.078-.01-.116-.017a.051.051,0,0,1-.015,0c-.038-.01-.075-.021-.113-.032a.151.151,0,0,1-.036-.014l-.08-3.279V291.31Z" transform="translate(-216.344 -275.977)" fill="#d1d1d1"/>
    </g>
    <g id="Group_339" data-name="Group 339" transform="translate(21.769 35.895)">
      <path id="Path_1237" data-name="Path 1237" d="M227.746,362.73c-.031.026-.061.049-.094.072v0C227.684,362.778,227.715,362.756,227.746,362.73Z" transform="translate(-226.893 -362.73)" fill="#dadde0"/>
      <path id="Path_1238" data-name="Path 1238" d="M227.637,363.437v0s0,0,0,0Z" transform="translate(-226.878 -363.367)" fill="#dadde0"/>
      <path id="Path_1239" data-name="Path 1239" d="M225.6,363.562a1.2,1.2,0,0,0,.2-.107A1.292,1.292,0,0,1,225.6,363.562Z" transform="translate(-225.045 -363.383)" fill="#dadde0"/>
      <path id="Path_1240" data-name="Path 1240" d="M219.981,364.943a1.155,1.155,0,0,0,.45-.041,1.085,1.085,0,0,1-.329.049.958.958,0,0,1-.1-.005A.041.041,0,0,1,219.981,364.943Z" transform="translate(-219.981 -364.687)" fill="#dadde0"/>
    </g>
    <g id="Group_340" data-name="Group 340" transform="translate(21.687 36.141)">
      <path id="Path_1241" data-name="Path 1241" d="M220.289,365.355a.958.958,0,0,1-.1-.005A.958.958,0,0,0,220.289,365.355Z" transform="translate(-220.086 -365.336)" fill="#fff"/>
      <path id="Path_1242" data-name="Path 1242" d="M219.236,365.222a.044.044,0,0,0,.02,0,.665.665,0,0,1-.1-.014A.639.639,0,0,0,219.236,365.222Z" transform="translate(-219.154 -365.212)" fill="#fff"/>
    </g>
    <g id="Group_341" data-name="Group 341" transform="translate(21.525 36.098)">
      <path id="Path_1243" data-name="Path 1243" d="M218.925,365.161a.673.673,0,0,1-.082-.01.193.193,0,0,1-.034-.007C218.847,365.151,218.886,365.158,218.925,365.161Z" transform="translate(-218.681 -365.108)" fill="#dadde0"/>
      <path id="Path_1244" data-name="Path 1244" d="M217.516,364.782c.038.012.075.022.113.032l-.046-.01a.059.059,0,0,1-.019-.007A.261.261,0,0,1,217.516,364.782Z" transform="translate(-217.516 -364.782)" fill="#dadde0"/>
    </g>
    <g id="Group_342" data-name="Group 342" transform="translate(21.496 36.09)">
      <path id="Path_1245" data-name="Path 1245" d="M218.188,365.006l.046.01A.219.219,0,0,1,218.188,365.006Z" transform="translate(-218.093 -364.975)" fill="#fff"/>
      <path id="Path_1246" data-name="Path 1246" d="M217.252,364.7a.256.256,0,0,0,.048.015.446.446,0,0,1-.077-.024A.19.19,0,0,0,217.252,364.7Z" transform="translate(-217.223 -364.696)" fill="#fff"/>
    </g>
    <path id="Path_1247" data-name="Path 1247" d="M217.19,364.659a.189.189,0,0,1-.029-.009s-.005,0-.007,0v0A.159.159,0,0,0,217.19,364.659Z" transform="translate(-195.665 -328.56)" fill="#dadde0"/>
    <path id="Path_1248" data-name="Path 1248" d="M216.343,331.511l.08,3.279a.651.651,0,0,1-.08-.031Z" transform="translate(-194.934 -298.705)" fill="#d1d1d1"/>
    <path id="Path_1249" data-name="Path 1249" d="M215.442,290.657v3.978l-.1-4.05Z" transform="translate(-194.033 -261.829)" fill="#dadde0"/>
    <path id="Path_1250" data-name="Path 1250" d="M211.318,176.912,199,187.806a.657.657,0,0,0-.218.423l-.443,6.64a.128.128,0,0,1-.249.024l-1.983-8.713a.661.661,0,0,1,.283-.759l14.548-9.023A.321.321,0,0,1,211.318,176.912Z" transform="translate(-176.671 -158.895)" fill="#adbcc9"/>
  </g>
</svg>
