<svg xmlns="http://www.w3.org/2000/svg" xmlns:xlink="http://www.w3.org/1999/xlink" width="130" height="130" viewBox="0 0 130 130">
  <defs>
    <filter id="Ellipse_92" x="0" y="0" width="130" height="130" filterUnits="userSpaceOnUse">
      <feOffset dy="3" input="SourceAlpha"/>
      <feGaussianBlur stdDeviation="3" result="blur"/>
      <feFlood flood-opacity="0.161"/>
      <feComposite operator="in" in2="blur"/>
      <feComposite in="SourceGraphic"/>
    </filter>
  </defs>
  <g id="Group_331" data-name="Group 331" transform="translate(-1198 -1677)">
    <g transform="matrix(1, 0, 0, 1, 1198, 1677)" filter="url(#Ellipse_92)">
      <circle id="Ellipse_92-2" data-name="Ellipse 92" cx="56" cy="56" r="56" transform="translate(9 6)" fill="#fff"/>
    </g>
    <g id="Group_328" data-name="Group 328" transform="translate(1226.714 1711)">
      <path id="Path_1201" data-name="Path 1201" d="M-792.17,532.485q15.846,0,31.692,0c.889,0,1.779-.055,2.667-.02a2.4,2.4,0,0,1,2.363,2.385q-.023,13.622-.046,27.245-.012,11.44,0,22.88c0,.754.024,1.509.059,2.262a2.651,2.651,0,0,1-2.872,3.014c-8.219-.019-16.438-.058-24.657-.061q-21.141-.006-42.283.023a4,4,0,0,1-2.854-.573,2.509,2.509,0,0,1-.864-2.082q.01-23.929.018-47.858c0-1.509-.016-3.018-.026-4.526a2.409,2.409,0,0,1,2.682-2.708h34.117Zm.015,2.38v-.056q-16.692,0-33.383,0c-.806,0-1.068.252-1.049,1.066.012.511.067,1.022.068,1.533q0,14.833,0,29.667c-.01,6.519-.052,13.038-.084,19.557,0,.856.278,1.161,1.16,1.162,1.374,0,2.748-.015,4.122-.015q18.309,0,36.619,0,12.893.005,25.785.024c.786,0,1.045-.29,1.042-1.177-.009-2.936-.024-5.872-.023-8.809q0-20.9.013-41.792c0-1.095-.174-1.257-1.286-1.2-.322.018-.646.03-.969.03Q-776.15,534.867-792.155,534.866Z" transform="translate(828.97 -532.453)" fill="#158aff"/>
      <path id="Path_1202" data-name="Path 1202" d="M-775.872,559.3h23.679a2.516,2.516,0,0,1,2.463,2.731c0,4.014-.012,8.027-.012,12.041q0,13.092,0,26.184c0,.619.047,1.241-.008,1.855a2.48,2.48,0,0,1-2.621,2.391l-46.954.007c-1.847,0-2.725-.98-2.721-3.011q.024-11.677.041-23.355c0-5.414-.02-10.828-.029-16.243a2.4,2.4,0,0,1,2.723-2.593q11.718,0,23.436,0Zm-.073,2.43v.054q-11.236,0-22.471,0c-1.057,0-1.179.083-1.179,1.118q0,9.3,0,18.593-.009,9.82-.04,19.641c0,.653.269.952.906.949,1.32-.007,2.639-.021,3.959-.021q20.736,0,41.472.013c.929,0,1.124-.185,1.122-1.054q-.014-6.426-.022-12.853,0-12.691.015-25.383c0-.675-.188-1.062-.961-1.061Q-764.547,561.745-775.945,561.733Z" transform="translate(808.309 -553.054)" fill="#158aff"/>
      <path id="Path_1203" data-name="Path 1203" d="M-558.211,724.112a3.989,3.989,0,0,1-3.8,3.836,3.865,3.865,0,0,1-4.009-3.865,3.869,3.869,0,0,1,3.971-3.933A3.945,3.945,0,0,1-558.211,724.112Zm-3.866,1.347a1.67,1.67,0,0,0,1.4-1.516,1.824,1.824,0,0,0-1.484-1.372,1.871,1.871,0,0,0-1.4,1.457A1.686,1.686,0,0,0-562.077,725.46Z" transform="translate(627.209 -676.469)" fill="#158aff"/>
      <path id="Path_1204" data-name="Path 1204" d="M-558.863,587.562c.456-.026.912-.075,1.368-.071a1.532,1.532,0,0,1,1.587,1.5,1.535,1.535,0,0,1-1.289,1.836,20.442,20.442,0,0,1-3.378.02c-.956-.077-1.331-.8-1.225-2,.082-.924.495-1.3,1.484-1.323.484-.012.968,0,1.452,0Z" transform="translate(623.986 -574.683)" fill="#158aff"/>
      <path id="Path_1205" data-name="Path 1205" d="M-558.976,659.757c-.483,0-.97.036-1.449-.007-1-.09-1.4-.605-1.376-1.707s.448-1.608,1.446-1.646c.965-.037,1.933-.047,2.9-.022a1.582,1.582,0,0,1,1.561,1.779,1.5,1.5,0,0,1-1.55,1.593c-.509.025-1.02,0-1.531,0Z" transform="translate(623.975 -627.526)" fill="#158aff"/>
      <path id="Path_1206" data-name="Path 1206" d="M-558.911,610.725c.456,0,.912.01,1.367,0a1.542,1.542,0,0,1,1.637,1.587,1.52,1.52,0,0,1-1.441,1.69c-1.018.045-2.039.072-3.057.053-.979-.019-1.477-.689-1.439-1.839.034-1.032.484-1.487,1.484-1.494.483,0,.966,0,1.448,0Z" transform="translate(624.007 -592.505)" fill="#158aff"/>
      <path id="Path_1207" data-name="Path 1207" d="M-558.875,636.863c-.509,0-1.019.008-1.529,0-.951-.018-1.43-.529-1.461-1.543-.035-1.131.419-1.739,1.4-1.772,1.045-.035,2.092-.029,3.137,0a1.563,1.563,0,0,1,1.4,1.752,1.473,1.473,0,0,1-1.412,1.541c-.509.012-1.019,0-1.529,0Z" transform="translate(624.024 -610.002)" fill="#158aff"/>
      <path id="Path_1208" data-name="Path 1208" d="M-558.9,564.784c.482-.023.965-.061,1.447-.067a1.473,1.473,0,0,1,1.522,1.45,1.541,1.541,0,0,1-1.236,1.8,28.062,28.062,0,0,1-3.461.021c-.874-.05-1.276-.718-1.216-1.766.059-1.023.406-1.421,1.33-1.468.536-.027,1.075,0,1.613,0Z" transform="translate(624.012 -557.208)" fill="#158aff"/>
      <path id="Path_1209" data-name="Path 1209" d="M-780.811,631.984c.674,0,1.348-.019,2.021.006a.867.867,0,0,0,.957-.675c.6-1.76,1.21-3.513,1.816-5.269.053-.153.095-.309.153-.46.215-.553.55-1.147,1.167-1.038a1.7,1.7,0,0,1,1.01.988c1.089,2.838,2.1,5.707,3.165,8.552.112.3.462.505.7.755a3.545,3.545,0,0,0,.573-.842c.22-.689.311-1.419.53-2.108a1.089,1.089,0,0,1,1.25-.777c2.323.137,2.3.109,3.068-2.147,1.149-3.361,2.319-6.716,3.547-10.049a1.889,1.889,0,0,1,1.116-1.083c.664-.143.919.567,1.067,1.1.734,2.674,1.439,5.357,2.136,8.041.575,2.216,1.107,4.443,1.706,6.653.081.3.445.518.678.775.168-.277.353-.546.5-.835a1.588,1.588,0,0,0,.083-.475c.25-1.766.513-1.907,2.291-1.883,2.4.033,2.375.508,3.213-2.1.354-1.1.745-2.192,1.154-3.275a2.39,2.39,0,0,1,.552-.868.759.759,0,0,1,1.293.159,8.129,8.129,0,0,1,.689,1.455c.5,1.362.949,2.747,1.485,4.1a1.477,1.477,0,0,0,.8.653,2.348,2.348,0,0,0,.877-.012.922.922,0,0,1,1.087.929c.022.641-.422.88-1.016.88-.108,0-.216,0-.323,0-2.63-.062-2.207.534-3.367-2.446-.175-.449-.2-.962-.415-1.388-.117-.236-.472-.352-.72-.523a2.882,2.882,0,0,0-.4.63c-.27.844-.471,1.711-.756,2.549a1.384,1.384,0,0,1-1.6,1.053c-.667-.074-1.35-.017-2.016-.1-.743-.087-1.078.235-1.259.92-.344,1.3-.743,2.588-1.122,3.88a1.264,1.264,0,0,1-.2.524c-.336.339-.738.9-1.071.875-.372-.032-.854-.56-1.008-.976a32.751,32.751,0,0,1-.888-3.188c-.35-1.354-.678-2.714-1.029-4.068q-.98-3.789-1.977-7.573a2.2,2.2,0,0,0-.219-.684.692.692,0,0,0-.511-.293.646.646,0,0,0-.433.382c-.957,2.827-1.91,5.656-2.828,8.5-.512,1.586-.8,1.814-2.42,1.647-1.262-.131-1.38-.044-1.727,1.2-.375,1.348-.7,2.713-1.168,4.031a1.991,1.991,0,0,1-1.023,1.081c-.592.23-.907-.355-1.095-.833-.618-1.577-1.2-3.166-1.793-4.754-.551-1.488-1.071-2.988-1.65-4.464a.866.866,0,0,0-.646-.471c-.178.005-.426.35-.5.59-.358,1.1-.641,2.221-1,3.318-.318.969-.733,1.184-1.757,1.163-1.508-.031-3.016-.015-4.525-.026-.24,0-.559.052-.7-.076a1.775,1.775,0,0,1-.665-.954c-.017-.2.5-.612.816-.651a18.978,18.978,0,0,1,2.34-.031Z" transform="translate(794.439 -597.952)" fill="#158aff"/>
      <path id="Path_1210" data-name="Path 1210" d="M-778.715,578.058c1,.675,2.106.361,3.3.14a2.334,2.334,0,0,1,2.522,1.64,2.448,2.448,0,0,1-.719,2.791q-1.508,1.517-3.1,2.949a.8.8,0,0,1-.778-.008c-1.1-1.029-2.151-2.11-3.224-3.169a2.216,2.216,0,0,1-.534-2.6A3.1,3.1,0,0,1-778.715,578.058Z" transform="translate(792.511 -567.445)" fill="#158aff"/>
    </g>
  </g>
</svg>
