<svg xmlns="http://www.w3.org/2000/svg" width="1115.603" height="504.773" viewBox="0 0 1115.603 504.773">
  <g id="Group_457" data-name="Group 457" transform="translate(-124.636 -109.799)">
    <g id="Comments">
      <rect id="Rectangle_101" data-name="Rectangle 101" width="34.157" height="27.967" transform="matrix(0.613, -0.79, 0.79, 0.613, 1197.208, 210.396)" fill="none"/>
      <g id="Group_353" data-name="Group 353">
        <path id="Path_1354" data-name="Path 1354" d="M1235.242,206.261a5.351,5.351,0,0,0-.576-4.087l-5.935-10.07a5.393,5.393,0,0,0-7.385-1.907l-14.717,8.674a5.4,5.4,0,0,0-1.907,7.387l10.77,18.236a.9.9,0,0,0,1.645-.236c.731-2.871,1.835-6.257,2.266-6.719l13.356-7.98a5.356,5.356,0,0,0,2.483-3.3Zm-19.29,15.475-9.682-16.392a3.6,3.6,0,0,1,1.272-4.925l14.717-8.674a3.6,3.6,0,0,1,4.924,1.272h0l5.935,10.07a3.6,3.6,0,0,1-1.277,4.926l-13.356,7.98a1.59,1.59,0,0,0-.423.4A18.3,18.3,0,0,0,1215.952,221.736Z" fill="#646667"/>
      </g>
      <g id="Group_354" data-name="Group 354">
        <rect id="Rectangle_102" data-name="Rectangle 102" width="15.434" height="0.899" transform="matrix(0.863, -0.506, 0.506, 0.863, 1210.995, 204.835)" fill="#646667"/>
      </g>
      <g id="Group_355" data-name="Group 355">
        <rect id="Rectangle_103" data-name="Rectangle 103" width="15.434" height="0.899" transform="matrix(0.863, -0.506, 0.506, 0.863, 1214.476, 210.769)" fill="#646667"/>
      </g>
    </g>
    <g id="Comments-2" data-name="Comments">
      <rect id="Rectangle_104" data-name="Rectangle 104" width="34.157" height="27.967" transform="translate(1182.897 481.774) rotate(-3.558)" fill="none"/>
      <g id="Group_356" data-name="Group 356">
        <path id="Path_1355" data-name="Path 1355" d="M1211.128,507.6a5.362,5.362,0,0,0,2.688-3.133l3.638-11.108a5.394,5.394,0,0,0-3.447-6.8l-16.234-5.317a5.4,5.4,0,0,0-6.806,3.449l-6.574,20.133a.9.9,0,0,0,1.263,1.079c2.639-1.348,5.91-2.757,6.541-2.738l14.814,4.754a5.354,5.354,0,0,0,4.117-.314Zm-24.361-4.258,5.909-18.1a3.6,3.6,0,0,1,4.537-2.3l16.234,5.318a3.6,3.6,0,0,1,2.3,4.537h0l-3.638,11.108a3.6,3.6,0,0,1-4.543,2.295l-14.814-4.753a1.559,1.559,0,0,0-.581-.053A18.293,18.293,0,0,0,1186.767,503.337Z" fill="#646667"/>
      </g>
      <g id="Group_357" data-name="Group 357">
        <rect id="Rectangle_105" data-name="Rectangle 105" width="0.899" height="15.434" transform="translate(1195.898 489.303) rotate(-71.75)" fill="#646667"/>
      </g>
      <g id="Group_358" data-name="Group 358">
        <rect id="Rectangle_106" data-name="Rectangle 106" width="0.899" height="15.434" transform="translate(1193.743 495.837) rotate(-71.75)" fill="#646667"/>
      </g>
    </g>
    <g id="Comments-3" data-name="Comments">
      <rect id="Rectangle_107" data-name="Rectangle 107" width="27.967" height="34.157" transform="translate(1009.104 386.33) rotate(-82.188)" fill="none"/>
      <g id="Group_359" data-name="Group 359">
        <path id="Path_1356" data-name="Path 1356" d="M1020.358,360.092a5.36,5.36,0,0,0-3.254,2.542l-5.756,10.172a5.392,5.392,0,0,0,2.038,7.351l14.867,8.413a5.4,5.4,0,0,0,7.352-2.039l10.414-18.441a.9.9,0,0,0-1.026-1.308c-2.852.8-6.336,1.538-6.952,1.395l-13.586-7.581a5.355,5.355,0,0,0-4.1-.5Zm23.043,8.977-9.362,16.578a3.6,3.6,0,0,1-4.9,1.359l-14.867-8.413a3.6,3.6,0,0,1-1.359-4.9h0l5.757-10.172a3.6,3.6,0,0,1,4.906-1.355l13.586,7.581a1.6,1.6,0,0,0,.559.166A18.3,18.3,0,0,0,1043.4,369.069Z" fill="#646667"/>
      </g>
      <g id="Group_360" data-name="Group 360">
        <rect id="Rectangle_108" data-name="Rectangle 108" width="0.899" height="15.434" transform="matrix(0.494, -0.869, 0.869, 0.494, 1017.821, 374.181)" fill="#646667"/>
      </g>
      <g id="Group_361" data-name="Group 361">
        <rect id="Rectangle_109" data-name="Rectangle 109" width="0.899" height="15.434" transform="matrix(0.494, -0.869, 0.869, 0.494, 1021.222, 368.199)" fill="#646667"/>
      </g>
    </g>
    <g id="Comments-4" data-name="Comments">
      <rect id="Rectangle_110" data-name="Rectangle 110" width="34.157" height="27.967" transform="translate(928.91 456.569) rotate(-47.367)" fill="none"/>
      <g id="Group_362" data-name="Group 362">
        <path id="Path_1357" data-name="Path 1357" d="M967.158,455.66a5.354,5.354,0,0,0-.229-4.122L961.865,441a5.393,5.393,0,0,0-7.2-2.524l-15.4,7.4a5.4,5.4,0,0,0-2.524,7.2l9.192,19.08a.9.9,0,0,0,1.659-.1c.971-2.8,2.356-6.081,2.825-6.5l13.982-6.825a5.354,5.354,0,0,0,2.753-3.076ZM946.63,469.451,938.367,452.3a3.6,3.6,0,0,1,1.683-4.8l15.4-7.4a3.6,3.6,0,0,1,4.8,1.684h0l5.064,10.534a3.6,3.6,0,0,1-1.688,4.8l-13.982,6.824a1.581,1.581,0,0,0-.456.364A18.317,18.317,0,0,0,946.63,469.451Z" fill="#646667"/>
      </g>
      <g id="Group_363" data-name="Group 363">
        <rect id="Rectangle_111" data-name="Rectangle 111" width="15.434" height="0.899" transform="translate(943.117 452.192) rotate(-25.558)" fill="#646667"/>
      </g>
      <g id="Group_364" data-name="Group 364">
        <rect id="Rectangle_112" data-name="Rectangle 112" width="15.434" height="0.899" transform="translate(946.086 458.399) rotate(-25.558)" fill="#646667"/>
      </g>
    </g>
    <g id="Comments-5" data-name="Comments">
      <rect id="Rectangle_113" data-name="Rectangle 113" width="34.157" height="27.967" transform="matrix(0.182, -0.983, 0.983, 0.182, 828.231, 550.394)" fill="none"/>
      <g id="Group_365" data-name="Group 365">
        <path id="Path_1358" data-name="Path 1358" d="M860.125,529.264a5.353,5.353,0,0,0-2.388-3.367l-9.9-6.222a5.394,5.394,0,0,0-7.437,1.694l-9.094,14.461a5.4,5.4,0,0,0,1.7,7.439l17.938,11.258a.9.9,0,0,0,1.354-.964c-.669-2.887-1.243-6.4-1.071-7.009l8.2-13.22a5.361,5.361,0,0,0,.693-4.07Zm-10.036,22.6-16.125-10.12a3.6,3.6,0,0,1-1.131-4.959l9.094-14.461a3.6,3.6,0,0,1,4.959-1.13h0l9.894,6.222a3.6,3.6,0,0,1,1.127,4.964l-8.2,13.22a1.562,1.562,0,0,0-.192.551A18.305,18.305,0,0,0,850.089,551.866Z" fill="#646667"/>
      </g>
      <g id="Group_366" data-name="Group 366">
        <rect id="Rectangle_114" data-name="Rectangle 114" width="15.434" height="0.899" transform="matrix(0.534, -0.845, 0.845, 0.534, 837.927, 539.126)" fill="#646667"/>
      </g>
      <g id="Group_367" data-name="Group 367">
        <rect id="Rectangle_115" data-name="Rectangle 115" width="15.434" height="0.899" transform="matrix(0.534, -0.845, 0.845, 0.534, 843.744, 542.8)" fill="#646667"/>
      </g>
    </g>
    <g id="Comments-6" data-name="Comments">
      <rect id="Rectangle_116" data-name="Rectangle 116" width="34.157" height="27.967" transform="translate(587.366 590.968) rotate(-32.435)" fill="none"/>
      <g id="Group_368" data-name="Group 368">
        <path id="Path_1359" data-name="Path 1359" d="M624.556,599.944a5.355,5.355,0,0,0,.841-4.041l-2.179-11.484a5.391,5.391,0,0,0-6.3-4.293l-16.784,3.183a5.4,5.4,0,0,0-4.293,6.307l3.966,20.8a.9.9,0,0,0,1.627.335c1.66-2.455,3.843-5.268,4.405-5.556l15.268-2.991a5.35,5.35,0,0,0,3.453-2.264Zm-23.388,8.037-3.565-18.7a3.6,3.6,0,0,1,2.863-4.205l16.783-3.184a3.6,3.6,0,0,1,4.2,2.864h0l2.178,11.483a3.6,3.6,0,0,1-2.869,4.2l-15.267,2.992a1.568,1.568,0,0,0-.534.234A18.294,18.294,0,0,0,601.168,607.981Z" fill="#646667"/>
      </g>
      <g id="Group_369" data-name="Group 369">
        <rect id="Rectangle_117" data-name="Rectangle 117" width="15.434" height="0.899" transform="translate(602.221 590.399) rotate(-10.627)" fill="#646667"/>
      </g>
      <g id="Group_370" data-name="Group 370">
        <rect id="Rectangle_118" data-name="Rectangle 118" width="15.434" height="0.899" transform="translate(603.49 597.161) rotate(-10.627)" fill="#646667"/>
      </g>
    </g>
    <g id="Comments-7" data-name="Comments">
      <rect id="Rectangle_119" data-name="Rectangle 119" width="27.967" height="34.157" transform="matrix(0.629, -0.777, 0.777, 0.629, 873.403, 281.231)" fill="none"/>
      <g id="Group_371" data-name="Group 371">
        <path id="Path_1360" data-name="Path 1360" d="M896.617,264.613a5.353,5.353,0,0,0-4.1.49l-10.192,5.721a5.394,5.394,0,0,0-2.064,7.344l8.362,14.9a5.4,5.4,0,0,0,7.346,2.063l18.459-10.384a.9.9,0,0,0-.2-1.649c-2.855-.792-6.218-1.966-6.67-2.407l-7.7-13.521a5.356,5.356,0,0,0-3.245-2.553Zm15.064,19.613-16.593,9.333a3.6,3.6,0,0,1-4.9-1.375l-8.361-14.9a3.6,3.6,0,0,1,1.376-4.9h0L893.4,266.67a3.6,3.6,0,0,1,4.9,1.381l7.7,13.521a1.6,1.6,0,0,0,.393.432A18.319,18.319,0,0,0,911.681,284.226Z" fill="#646667"/>
      </g>
      <g id="Group_372" data-name="Group 372">
        <rect id="Rectangle_120" data-name="Rectangle 120" width="0.899" height="15.434" transform="translate(887.151 275.352) rotate(-29.192)" fill="#646667"/>
      </g>
      <g id="Group_373" data-name="Group 373">
        <rect id="Rectangle_121" data-name="Rectangle 121" width="0.899" height="15.434" transform="translate(893.158 271.996) rotate(-29.192)" fill="#646667"/>
      </g>
    </g>
    <g id="Comments-8" data-name="Comments">
      <rect id="Rectangle_122" data-name="Rectangle 122" width="34.157" height="27.967" transform="matrix(0.217, -0.976, 0.976, 0.217, 593.504, 371.818)" fill="none"/>
      <g id="Group_374" data-name="Group 374">
        <path id="Path_1361" data-name="Path 1361" d="M626.134,351.842a5.358,5.358,0,0,0-2.266-3.451L614.2,341.82a5.392,5.392,0,0,0-7.493,1.427l-9.6,14.127a5.4,5.4,0,0,0,1.429,7.494l17.525,11.893a.9.9,0,0,0,1.387-.915c-.565-2.909-1.013-6.442-.82-7.043l8.671-12.918a5.361,5.361,0,0,0,.838-4.043ZM615.3,374.071l-15.753-10.69a3.6,3.6,0,0,1-.952-5l9.6-14.126a3.6,3.6,0,0,1,5-.952h0l9.666,6.572a3.6,3.6,0,0,1,.948,5L615.135,367.8a1.582,1.582,0,0,0-.211.544A18.283,18.283,0,0,0,615.3,374.071Z" fill="#646667"/>
      </g>
      <g id="Group_375" data-name="Group 375">
        <rect id="Rectangle_123" data-name="Rectangle 123" width="15.434" height="0.899" transform="translate(603.598 360.904) rotate(-55.672)" fill="#646667"/>
      </g>
      <g id="Group_376" data-name="Group 376">
        <rect id="Rectangle_124" data-name="Rectangle 124" width="15.434" height="0.899" transform="translate(609.28 364.784) rotate(-55.672)" fill="#646667"/>
      </g>
    </g>
    <rect id="Rectangle_125" data-name="Rectangle 125" width="27.967" height="34.157" transform="matrix(0.588, -0.809, 0.809, 0.588, 430.99, 247.928)" fill="none"/>
    <g id="Group_377" data-name="Group 377">
      <path id="Path_1362" data-name="Path 1362" d="M453.309,230.127a5.357,5.357,0,0,0-4.068.7l-9.881,6.243a5.393,5.393,0,0,0-1.679,7.441l9.124,14.442a5.4,5.4,0,0,0,7.443,1.678l17.9-11.328a.9.9,0,0,0-.286-1.637c-2.893-.642-6.312-1.64-6.786-2.057l-8.389-13.1a5.35,5.35,0,0,0-3.373-2.38Zm16.063,18.8-16.085,10.183a3.6,3.6,0,0,1-4.962-1.119L439.2,243.552a3.6,3.6,0,0,1,1.119-4.961h0l9.882-6.243a3.6,3.6,0,0,1,4.963,1.124l8.389,13.1a1.577,1.577,0,0,0,.414.411A18.316,18.316,0,0,0,469.372,248.93Z" fill="#646667"/>
    </g>
    <g id="Group_378" data-name="Group 378">
      <rect id="Rectangle_126" data-name="Rectangle 126" width="0.899" height="15.434" transform="translate(444.415 241.342) rotate(-32.169)" fill="#646667"/>
    </g>
    <g id="Group_379" data-name="Group 379">
      <rect id="Rectangle_127" data-name="Rectangle 127" width="0.899" height="15.434" transform="translate(450.239 237.679) rotate(-32.169)" fill="#646667"/>
    </g>
    <g id="Comments-9" data-name="Comments">
      <rect id="Rectangle_128" data-name="Rectangle 128" width="34.157" height="27.967" transform="translate(462.446 527.81) rotate(-42.835)" fill="none"/>
      <g id="Group_380" data-name="Group 380">
        <path id="Path_1363" data-name="Path 1363" d="M500.646,529.926a5.36,5.36,0,0,0,.1-4.127l-4.216-10.9a5.394,5.394,0,0,0-6.976-3.086l-15.933,6.162a5.4,5.4,0,0,0-3.085,6.978L478.19,544.7a.9.9,0,0,0,1.661.036c1.189-2.714,2.829-5.875,3.33-6.26l14.477-5.7a5.349,5.349,0,0,0,2.988-2.849Zm-21.554,12.126L472.21,524.3a3.6,3.6,0,0,1,2.057-4.652l15.933-6.161a3.6,3.6,0,0,1,4.651,2.057h0l4.216,10.9A3.6,3.6,0,0,1,497,531.1l-14.477,5.7a1.583,1.583,0,0,0-.483.327A18.282,18.282,0,0,0,479.092,542.052Z" fill="#646667"/>
      </g>
      <g id="Group_381" data-name="Group 381">
        <rect id="Rectangle_129" data-name="Rectangle 129" width="15.434" height="0.899" transform="matrix(0.933, -0.359, 0.359, 0.933, 476.954, 524.569)" fill="#646667"/>
      </g>
      <g id="Group_382" data-name="Group 382">
        <rect id="Rectangle_130" data-name="Rectangle 130" width="15.434" height="0.899" transform="matrix(0.933, -0.359, 0.359, 0.933, 479.423, 530.992)" fill="#646667"/>
      </g>
    </g>
    <g id="Comments-10" data-name="Comments">
      <rect id="Rectangle_131" data-name="Rectangle 131" width="34.157" height="27.967" transform="matrix(0.896, -0.443, 0.443, 0.896, 200.719, 396.517)" fill="none"/>
      <g id="Group_383" data-name="Group 383">
        <path id="Path_1364" data-name="Path 1364" d="M236.738,409.414a5.358,5.358,0,0,0,1.268-3.929l-.94-11.65a5.395,5.395,0,0,0-5.811-4.943l-17.027,1.374a5.4,5.4,0,0,0-4.942,5.812l1.721,21.109a.9.9,0,0,0,1.583.507c1.912-2.264,4.384-4.828,4.973-5.055l15.5-1.344a5.362,5.362,0,0,0,3.675-1.881Zm-24.112,5.493-1.548-18.975a3.6,3.6,0,0,1,3.295-3.875l17.027-1.373a3.6,3.6,0,0,1,3.874,3.3h0l.94,11.651a3.6,3.6,0,0,1-3.3,3.874l-15.5,1.344a1.57,1.57,0,0,0-.556.176A18.294,18.294,0,0,0,212.626,414.907Z" fill="#646667"/>
      </g>
      <g id="Group_384" data-name="Group 384">
        <rect id="Rectangle_132" data-name="Rectangle 132" width="15.434" height="0.899" transform="matrix(0.997, -0.078, 0.078, 0.997, 215.549, 397.538)" fill="#646667"/>
      </g>
      <g id="Group_385" data-name="Group 385">
        <rect id="Rectangle_133" data-name="Rectangle 133" width="15.434" height="0.899" transform="matrix(0.997, -0.078, 0.078, 0.997, 216.089, 404.397)" fill="#646667"/>
      </g>
    </g>
    <g id="Comments-11" data-name="Comments">
      <rect id="Rectangle_134" data-name="Rectangle 134" width="34.157" height="27.967" transform="matrix(0.613, -0.79, 0.79, 0.613, 1122.973, 304.486)" fill="none"/>
      <g id="Group_386" data-name="Group 386">
        <path id="Path_1365" data-name="Path 1365" d="M1161.007,300.352a5.353,5.353,0,0,0-.576-4.088l-5.935-10.07a5.394,5.394,0,0,0-7.386-1.907l-14.716,8.674a5.4,5.4,0,0,0-1.907,7.387l10.77,18.236a.9.9,0,0,0,1.645-.236c.731-2.871,1.834-6.257,2.266-6.719l13.355-7.98a5.354,5.354,0,0,0,2.484-3.3Zm-19.29,15.474-9.682-16.392a3.6,3.6,0,0,1,1.272-4.925l14.716-8.674a3.6,3.6,0,0,1,4.925,1.272h0l5.935,10.07a3.6,3.6,0,0,1-1.278,4.926l-13.355,7.98a1.59,1.59,0,0,0-.423.4A18.3,18.3,0,0,0,1141.717,315.826Z" fill="#646667"/>
      </g>
      <g id="Group_387" data-name="Group 387">
        <rect id="Rectangle_135" data-name="Rectangle 135" width="15.434" height="0.899" transform="matrix(0.863, -0.506, 0.506, 0.863, 1136.759, 298.925)" fill="#646667"/>
      </g>
      <g id="Group_388" data-name="Group 388">
        <rect id="Rectangle_136" data-name="Rectangle 136" width="15.434" height="0.899" transform="matrix(0.863, -0.506, 0.506, 0.863, 1140.241, 304.859)" fill="#646667"/>
      </g>
    </g>
    <g id="Comments-12" data-name="Comments">
      <rect id="Rectangle_137" data-name="Rectangle 137" width="34.157" height="27.967" transform="translate(960.473 192.258) rotate(-3.558)" fill="none"/>
      <g id="Group_389" data-name="Group 389">
        <path id="Path_1366" data-name="Path 1366" d="M988.7,218.079a5.36,5.36,0,0,0,2.689-3.133l3.638-11.108a5.394,5.394,0,0,0-3.448-6.8l-16.234-5.318a5.4,5.4,0,0,0-6.8,3.449L961.969,215.3a.9.9,0,0,0,1.263,1.079c2.639-1.348,5.909-2.757,6.541-2.738l14.814,4.754a5.351,5.351,0,0,0,4.116-.314Zm-24.36-4.258,5.909-18.1a3.6,3.6,0,0,1,4.537-2.3l16.234,5.317a3.6,3.6,0,0,1,2.3,4.537h0l-3.638,11.108a3.6,3.6,0,0,1-4.542,2.3l-14.814-4.754a1.583,1.583,0,0,0-.581-.053A18.323,18.323,0,0,0,964.343,213.821Z" fill="#646667"/>
      </g>
      <g id="Group_390" data-name="Group 390">
        <rect id="Rectangle_138" data-name="Rectangle 138" width="0.899" height="15.434" transform="translate(973.474 199.787) rotate(-71.75)" fill="#646667"/>
      </g>
      <g id="Group_391" data-name="Group 391">
        <rect id="Rectangle_139" data-name="Rectangle 139" width="0.899" height="15.434" transform="translate(971.319 206.321) rotate(-71.75)" fill="#646667"/>
      </g>
    </g>
    <g id="Comments-13" data-name="Comments">
      <rect id="Rectangle_140" data-name="Rectangle 140" width="27.967" height="34.157" transform="translate(822.506 364.997) rotate(-82.188)" fill="none"/>
      <g id="Group_392" data-name="Group 392">
        <path id="Path_1367" data-name="Path 1367" d="M833.76,338.76a5.359,5.359,0,0,0-3.253,2.541l-5.756,10.173a5.393,5.393,0,0,0,2.037,7.351l14.868,8.413a5.4,5.4,0,0,0,7.351-2.039l10.415-18.442a.9.9,0,0,0-1.026-1.307c-2.853.8-6.337,1.538-6.952,1.395l-13.586-7.581a5.356,5.356,0,0,0-4.1-.5Zm23.043,8.977-9.361,16.577a3.6,3.6,0,0,1-4.9,1.36l-14.868-8.414a3.6,3.6,0,0,1-1.358-4.9h0l5.756-10.172a3.6,3.6,0,0,1,4.906-1.356l13.586,7.581a1.563,1.563,0,0,0,.56.166A18.287,18.287,0,0,0,856.8,347.737Z" fill="#646667"/>
      </g>
      <g id="Group_393" data-name="Group 393">
        <rect id="Rectangle_141" data-name="Rectangle 141" width="0.899" height="15.434" transform="matrix(0.494, -0.869, 0.869, 0.494, 831.224, 352.848)" fill="#646667"/>
      </g>
      <g id="Group_394" data-name="Group 394">
        <rect id="Rectangle_142" data-name="Rectangle 142" width="0.899" height="15.434" transform="matrix(0.494, -0.869, 0.869, 0.494, 834.624, 346.867)" fill="#646667"/>
      </g>
    </g>
    <g id="Comments-14" data-name="Comments">
      <rect id="Rectangle_143" data-name="Rectangle 143" width="34.157" height="27.967" transform="translate(713.466 409.944) rotate(-47.367)" fill="none"/>
      <g id="Group_395" data-name="Group 395">
        <path id="Path_1368" data-name="Path 1368" d="M751.714,409.035a5.354,5.354,0,0,0-.229-4.122l-5.064-10.534a5.392,5.392,0,0,0-7.2-2.525l-15.4,7.4a5.4,5.4,0,0,0-2.524,7.2l9.193,19.08a.9.9,0,0,0,1.659-.1c.97-2.8,2.356-6.08,2.824-6.5l13.982-6.824a5.363,5.363,0,0,0,2.753-3.076Zm-20.528,13.791-8.263-17.151a3.6,3.6,0,0,1,1.683-4.8l15.4-7.4a3.6,3.6,0,0,1,4.8,1.684h0l5.064,10.534a3.6,3.6,0,0,1-1.688,4.8L734.2,417.318a1.549,1.549,0,0,0-.455.364A18.311,18.311,0,0,0,731.186,422.826Z" fill="#646667"/>
      </g>
      <g id="Group_396" data-name="Group 396">
        <rect id="Rectangle_144" data-name="Rectangle 144" width="15.434" height="0.899" transform="translate(727.673 405.566) rotate(-25.558)" fill="#646667"/>
      </g>
      <g id="Group_397" data-name="Group 397">
        <rect id="Rectangle_145" data-name="Rectangle 145" width="15.434" height="0.899" transform="translate(730.642 411.774) rotate(-25.558)" fill="#646667"/>
      </g>
    </g>
    <g id="Comments-15" data-name="Comments">
      <rect id="Rectangle_146" data-name="Rectangle 146" width="34.157" height="27.967" transform="matrix(0.182, -0.983, 0.983, 0.182, 593.37, 462.375)" fill="none"/>
      <g id="Group_398" data-name="Group 398">
        <path id="Path_1369" data-name="Path 1369" d="M625.264,441.245a5.355,5.355,0,0,0-2.388-3.367l-9.894-6.222a5.394,5.394,0,0,0-7.438,1.7l-9.093,14.461a5.4,5.4,0,0,0,1.7,7.438l17.939,11.259a.9.9,0,0,0,1.353-.965c-.668-2.886-1.242-6.4-1.071-7.009l8.2-13.22a5.36,5.36,0,0,0,.693-4.07Zm-10.036,22.6L599.1,453.727a3.6,3.6,0,0,1-1.131-4.959l9.094-14.461a3.6,3.6,0,0,1,4.959-1.129h0l9.895,6.222a3.6,3.6,0,0,1,1.126,4.963l-8.2,13.22a1.567,1.567,0,0,0-.192.551A18.3,18.3,0,0,0,615.228,463.847Z" fill="#646667"/>
      </g>
      <g id="Group_399" data-name="Group 399">
        <rect id="Rectangle_147" data-name="Rectangle 147" width="15.434" height="0.899" transform="matrix(0.534, -0.845, 0.845, 0.534, 603.066, 451.107)" fill="#646667"/>
      </g>
      <g id="Group_400" data-name="Group 400">
        <rect id="Rectangle_148" data-name="Rectangle 148" width="15.434" height="0.899" transform="matrix(0.534, -0.845, 0.845, 0.534, 608.884, 454.781)" fill="#646667"/>
      </g>
    </g>
    <g id="Comments-16" data-name="Comments">
      <rect id="Rectangle_149" data-name="Rectangle 149" width="34.157" height="27.967" transform="translate(355.353 429.501) rotate(-32.435)" fill="none"/>
      <g id="Group_401" data-name="Group 401">
        <path id="Path_1370" data-name="Path 1370" d="M392.543,438.478a5.357,5.357,0,0,0,.841-4.042L391.2,422.953a5.393,5.393,0,0,0-6.3-4.294l-16.784,3.184a5.4,5.4,0,0,0-4.293,6.306l3.965,20.805a.9.9,0,0,0,1.628.335c1.66-2.455,3.843-5.268,4.4-5.557l15.268-2.991a5.36,5.36,0,0,0,3.453-2.263Zm-23.388,8.036-3.565-18.7a3.6,3.6,0,0,1,2.863-4.2l16.783-3.184a3.6,3.6,0,0,1,4.2,2.863h0l2.179,11.483a3.595,3.595,0,0,1-2.869,4.2l-15.268,2.992a1.57,1.57,0,0,0-.534.235A18.311,18.311,0,0,0,369.155,446.514Z" fill="#646667"/>
      </g>
      <g id="Group_402" data-name="Group 402">
        <rect id="Rectangle_150" data-name="Rectangle 150" width="15.434" height="0.899" transform="translate(370.208 428.932) rotate(-10.627)" fill="#646667"/>
      </g>
      <g id="Group_403" data-name="Group 403">
        <rect id="Rectangle_151" data-name="Rectangle 151" width="15.434" height="0.899" transform="translate(371.476 435.695) rotate(-10.627)" fill="#646667"/>
      </g>
    </g>
    <g id="Comments-17" data-name="Comments">
      <rect id="Rectangle_152" data-name="Rectangle 152" width="27.967" height="34.157" transform="matrix(0.629, -0.777, 0.777, 0.629, 663.614, 210.578)" fill="none"/>
      <g id="Group_404" data-name="Group 404">
        <path id="Path_1371" data-name="Path 1371" d="M686.829,193.96a5.357,5.357,0,0,0-4.1.49l-10.193,5.721a5.4,5.4,0,0,0-2.063,7.344l8.362,14.9a5.4,5.4,0,0,0,7.345,2.063L704.64,214.09a.9.9,0,0,0-.2-1.649c-2.856-.792-6.218-1.966-6.67-2.407l-7.7-13.521a5.357,5.357,0,0,0-3.244-2.553Zm15.064,19.613L685.3,222.906a3.6,3.6,0,0,1-4.9-1.375l-8.362-14.9a3.6,3.6,0,0,1,1.376-4.9h0l10.193-5.721a3.6,3.6,0,0,1,4.9,1.381l7.7,13.521a1.59,1.59,0,0,0,.392.432A18.342,18.342,0,0,0,701.893,213.573Z" fill="#646667"/>
      </g>
      <g id="Group_405" data-name="Group 405">
        <rect id="Rectangle_153" data-name="Rectangle 153" width="0.899" height="15.434" transform="translate(677.363 204.699) rotate(-29.192)" fill="#646667"/>
      </g>
      <g id="Group_406" data-name="Group 406">
        <rect id="Rectangle_154" data-name="Rectangle 154" width="0.899" height="15.434" transform="translate(683.37 201.343) rotate(-29.192)" fill="#646667"/>
      </g>
    </g>
    <g id="Comments-18" data-name="Comments">
      <rect id="Rectangle_155" data-name="Rectangle 155" width="34.157" height="27.967" transform="matrix(0.217, -0.976, 0.976, 0.217, 406.907, 350.485)" fill="none"/>
      <g id="Group_407" data-name="Group 407">
        <path id="Path_1372" data-name="Path 1372" d="M439.536,330.51a5.355,5.355,0,0,0-2.265-3.451l-9.666-6.572a5.393,5.393,0,0,0-7.493,1.428l-9.605,14.127a5.4,5.4,0,0,0,1.429,7.494l17.524,11.893a.9.9,0,0,0,1.387-.916c-.564-2.908-1.012-6.441-.819-7.043l8.67-12.918a5.349,5.349,0,0,0,.838-4.042ZM428.7,352.738l-15.753-10.69a3.6,3.6,0,0,1-.953-5l9.6-14.127a3.6,3.6,0,0,1,5-.951h0l9.666,6.572a3.6,3.6,0,0,1,.948,5l-8.67,12.918a1.555,1.555,0,0,0-.211.544A18.276,18.276,0,0,0,428.7,352.738Z" fill="#646667"/>
      </g>
      <g id="Group_408" data-name="Group 408">
        <rect id="Rectangle_156" data-name="Rectangle 156" width="15.434" height="0.899" transform="translate(417 339.571) rotate(-55.672)" fill="#646667"/>
      </g>
      <g id="Group_409" data-name="Group 409">
        <rect id="Rectangle_157" data-name="Rectangle 157" width="15.434" height="0.899" transform="translate(422.682 343.451) rotate(-55.672)" fill="#646667"/>
      </g>
    </g>
    <g id="Comments-19" data-name="Comments">
      <rect id="Rectangle_158" data-name="Rectangle 158" width="27.967" height="34.157" transform="matrix(0.588, -0.809, 0.809, 0.588, 244.392, 226.595)" fill="none"/>
      <g id="Group_410" data-name="Group 410">
        <path id="Path_1373" data-name="Path 1373" d="M266.712,208.794a5.356,5.356,0,0,0-4.068.7l-9.881,6.243a5.393,5.393,0,0,0-1.679,7.441l9.124,14.442a5.4,5.4,0,0,0,7.442,1.678l17.9-11.328a.9.9,0,0,0-.286-1.637c-2.892-.642-6.311-1.64-6.786-2.057l-8.388-13.1a5.356,5.356,0,0,0-3.373-2.381Zm16.063,18.8-16.086,10.183a3.6,3.6,0,0,1-4.962-1.119L252.6,222.22a3.6,3.6,0,0,1,1.12-4.962h0l9.881-6.243a3.6,3.6,0,0,1,4.964,1.125l8.389,13.1a1.575,1.575,0,0,0,.414.411A18.335,18.335,0,0,0,282.775,227.6Z" fill="#646667"/>
      </g>
      <g id="Group_411" data-name="Group 411">
        <rect id="Rectangle_159" data-name="Rectangle 159" width="0.899" height="15.434" transform="translate(257.817 220.01) rotate(-32.169)" fill="#646667"/>
      </g>
      <g id="Group_412" data-name="Group 412">
        <rect id="Rectangle_160" data-name="Rectangle 160" width="0.899" height="15.434" transform="translate(263.641 216.347) rotate(-32.169)" fill="#646667"/>
      </g>
    </g>
    <g id="Comments-20" data-name="Comments">
      <rect id="Rectangle_161" data-name="Rectangle 161" width="34.157" height="27.967" transform="translate(187.237 526.765) rotate(-42.835)" fill="none"/>
      <g id="Group_413" data-name="Group 413">
        <path id="Path_1374" data-name="Path 1374" d="M225.437,528.881a5.355,5.355,0,0,0,.1-4.127l-4.215-10.9a5.393,5.393,0,0,0-6.977-3.085l-15.932,6.161a5.4,5.4,0,0,0-3.085,6.978l7.656,19.746a.9.9,0,0,0,1.662.036c1.188-2.714,2.828-5.875,3.329-6.26l14.477-5.7a5.349,5.349,0,0,0,2.988-2.849Zm-21.553,12.126L197,523.257a3.6,3.6,0,0,1,2.057-4.652l15.933-6.161a3.6,3.6,0,0,1,4.651,2.057h0l4.216,10.9a3.6,3.6,0,0,1-2.063,4.653l-14.477,5.7a1.581,1.581,0,0,0-.483.327A18.331,18.331,0,0,0,203.884,541.007Z" fill="#646667"/>
      </g>
      <g id="Group_414" data-name="Group 414">
        <rect id="Rectangle_162" data-name="Rectangle 162" width="15.434" height="0.899" transform="matrix(0.933, -0.359, 0.359, 0.933, 201.745, 523.524)" fill="#646667"/>
      </g>
      <g id="Group_415" data-name="Group 415">
        <rect id="Rectangle_163" data-name="Rectangle 163" width="15.434" height="0.899" transform="matrix(0.933, -0.359, 0.359, 0.933, 204.214, 529.947)" fill="#646667"/>
      </g>
    </g>
    <g id="Comments-21" data-name="Comments">
      <rect id="Rectangle_164" data-name="Rectangle 164" width="34.157" height="27.967" transform="matrix(0.896, -0.443, 0.443, 0.896, 124.636, 321.859)" fill="none"/>
      <g id="Group_416" data-name="Group 416">
        <path id="Path_1375" data-name="Path 1375" d="M160.655,334.755a5.354,5.354,0,0,0,1.268-3.928l-.94-11.651a5.395,5.395,0,0,0-5.81-4.942l-17.028,1.374a5.4,5.4,0,0,0-4.942,5.812l1.722,21.109a.9.9,0,0,0,1.582.506c1.912-2.263,4.384-4.827,4.973-5.054l15.5-1.344a5.358,5.358,0,0,0,3.675-1.882Zm-24.112,5.494-1.548-18.975a3.6,3.6,0,0,1,3.295-3.875l17.027-1.374a3.6,3.6,0,0,1,3.874,3.3h0l.94,11.651a3.6,3.6,0,0,1-3.3,3.873l-15.5,1.344a1.6,1.6,0,0,0-.556.177A18.293,18.293,0,0,0,136.543,340.249Z" fill="#646667"/>
      </g>
      <g id="Group_417" data-name="Group 417">
        <rect id="Rectangle_165" data-name="Rectangle 165" width="15.434" height="0.899" transform="matrix(0.997, -0.078, 0.078, 0.997, 139.467, 322.88)" fill="#646667"/>
      </g>
      <g id="Group_418" data-name="Group 418">
        <rect id="Rectangle_166" data-name="Rectangle 166" width="15.434" height="0.899" transform="matrix(0.997, -0.078, 0.078, 0.997, 140.006, 329.739)" fill="#646667"/>
      </g>
    </g>
    <g id="Group_421" data-name="Group 421">
      <rect id="Rectangle_167" data-name="Rectangle 167" width="35.28" height="35.279" transform="matrix(0.248, -0.969, 0.969, 0.248, 1090.693, 433.679)" fill="none"/>
      <g id="Group_419" data-name="Group 419">
        <path id="Path_1376" data-name="Path 1376" d="M1106.989,404.1a17.658,17.658,0,1,0,9.525-.225A17.666,17.666,0,0,0,1106.989,404.1Zm-9.117,21.252a14.957,14.957,0,1,1,10.6,10.1A14.963,14.963,0,0,1,1097.872,425.355Z" fill="#158aff"/>
      </g>
      <g id="Group_420" data-name="Group 420">
        <path id="Path_1377" data-name="Path 1377" d="M1112.623,416.417a7.984,7.984,0,0,1-.325.912,6.263,6.263,0,0,1-.425.826,3.7,3.7,0,0,1-.656.812,4.392,4.392,0,0,1-.9.643q-.835.47-1.649.976-.4.248-.774.531t-.714.592c-.091.078-.181.159-.268.243s-.171.171-.25.262l-.237.274c-.079.091-.154.186-.225.284s-.139.2-.2.29c-.034.052-.065.1-.092.151s-.059.1-.092.151-.065.1-.094.159-.056.107-.08.162l-.072.164-.073.163c-.024.055-.046.113-.067.173s-.04.119-.06.175-.037.114-.052.176l-.05.193a7.035,7.035,0,0,0-.2,1.164,5.656,5.656,0,0,0,.015,1.1,4.51,4.51,0,0,0,.621,1.907,5.343,5.343,0,0,0,.632.793,5,5,0,0,0,.821.681,6.327,6.327,0,0,0,1.029.553,8.479,8.479,0,0,0,1.238.416,7.3,7.3,0,0,0,2.327.232,5.122,5.122,0,0,0,2.017-.517,4.555,4.555,0,0,0,1.579-1.236,5.03,5.03,0,0,0,.935-1.752l-2.21-.566a3.02,3.02,0,0,1-.6,1.078,3.107,3.107,0,0,1-.471.442,2.512,2.512,0,0,1-.544.316,3.622,3.622,0,0,1-.605.2,3.335,3.335,0,0,1-.636.08,4.829,4.829,0,0,1-1.313-.155,3.253,3.253,0,0,1-2.2-1.538,3.651,3.651,0,0,1-.2-2.711,4.038,4.038,0,0,1,.561-1.3,5.051,5.051,0,0,1,.834-.941q.234-.2.5-.388c.18-.127.365-.246.556-.359q.56-.343,1.168-.7.864-.523,1.463-.962a5.874,5.874,0,0,0,1.007-.935,4.847,4.847,0,0,0,.72-1.176,10.716,10.716,0,0,0,.526-1.461Zm3.444-5.135a1.387,1.387,0,0,0-.928-.618,1.346,1.346,0,0,0-1.1.1,1.31,1.31,0,0,0-.576.825,1.5,1.5,0,0,0-.046.536,1.281,1.281,0,0,0,.151.479,1.351,1.351,0,0,0,.917.631,1.307,1.307,0,0,0,1.093-.115,1.357,1.357,0,0,0,.58-.839A1.337,1.337,0,0,0,1116.067,411.282Z" fill="#158aff"/>
      </g>
    </g>
    <g id="Group_424" data-name="Group 424">
      <rect id="Rectangle_168" data-name="Rectangle 168" width="35.28" height="35.279" transform="translate(847.137 455.208) rotate(-30.659)" fill="none"/>
      <g id="Group_422" data-name="Group 422">
        <path id="Path_1378" data-name="Path 1378" d="M879.566,445.8a17.658,17.658,0,1,0,6.9,6.572A17.664,17.664,0,0,0,879.566,445.8Zm-21.467,8.6a14.955,14.955,0,1,1,.366,14.638A14.963,14.963,0,0,1,858.1,454.39Z" fill="#158aff"/>
      </g>
      <g id="Group_423" data-name="Group 423">
        <path id="Path_1379" data-name="Path 1379" d="M874.852,458.489a7.859,7.859,0,0,1-.875.416,6.161,6.161,0,0,1-.884.285,3.711,3.711,0,0,1-1.038.11,4.422,4.422,0,0,1-1.093-.182q-.922-.258-1.856-.475c-.3-.07-.612-.128-.923-.171s-.619-.073-.923-.086c-.12-.009-.24-.015-.361-.017s-.242,0-.363.009l-.361.026q-.18.014-.36.042c-.12.02-.236.04-.349.062-.061.013-.118.027-.172.042s-.111.029-.172.042-.12.028-.178.046-.115.036-.171.058l-.167.065-.167.064c-.055.022-.112.047-.169.075l-.166.082c-.053.025-.107.055-.162.087l-.171.1a7.007,7.007,0,0,0-.964.683,5.569,5.569,0,0,0-.766.788,4.493,4.493,0,0,0-.908,1.788,5.3,5.3,0,0,0-.113,1.008,4.987,4.987,0,0,0,.1,1.062,6.372,6.372,0,0,0,.338,1.118,8.259,8.259,0,0,0,.582,1.17,7.273,7.273,0,0,0,1.482,1.808,5.148,5.148,0,0,0,1.792,1.06,4.551,4.551,0,0,0,1.991.24,5.042,5.042,0,0,0,1.9-.578l-1.164-1.963a3,3,0,0,1-1.183.342,3.09,3.09,0,0,1-.646-.02,2.56,2.56,0,0,1-.608-.161,3.478,3.478,0,0,1-.566-.29,3.211,3.211,0,0,1-.506-.392,4.873,4.873,0,0,1-.821-1.037,3.258,3.258,0,0,1-.473-2.647,3.655,3.655,0,0,1,1.774-2.061,4.068,4.068,0,0,1,1.315-.523,5.073,5.073,0,0,1,1.256-.077q.3.025.629.081t.647.138q.638.153,1.324.328.981.24,1.715.353a5.864,5.864,0,0,0,1.373.05,4.785,4.785,0,0,0,1.34-.324,10.807,10.807,0,0,0,1.405-.661Zm6.066-1.2a1.4,1.4,0,0,0-.22-1.094,1.345,1.345,0,0,0-.846-.705,1.309,1.309,0,0,0-.991.177,1.491,1.491,0,0,0-.411.346,1.3,1.3,0,0,0-.232.446,1.356,1.356,0,0,0,.2,1.094,1.3,1.3,0,0,0,.855.691,1.477,1.477,0,0,0,1.641-.955Z" fill="#158aff"/>
      </g>
    </g>
    <g id="Group_427" data-name="Group 427">
      <rect id="Rectangle_169" data-name="Rectangle 169" width="35.28" height="35.279" transform="translate(1069.926 556.354) rotate(-54.701)" fill="none"/>
      <g id="Group_425" data-name="Group 425">
        <path id="Path_1380" data-name="Path 1380" d="M1095.707,534.546a17.659,17.659,0,1,0,8.978,3.191A17.665,17.665,0,0,0,1095.707,534.546Zm-16.1,16.6a14.953,14.953,0,1,1,6.3,13.218A14.963,14.963,0,0,1,1079.6,551.142Z" fill="#158aff"/>
      </g>
      <g id="Group_426" data-name="Group 426">
        <path id="Path_1381" data-name="Path 1381" d="M1096.573,548.06a8.024,8.024,0,0,1-.629.736,6.362,6.362,0,0,1-.691.62,3.728,3.728,0,0,1-.9.524,4.425,4.425,0,0,1-1.072.278q-.946.141-1.888.323c-.306.059-.611.132-.913.219s-.595.186-.878.3c-.113.041-.225.085-.337.132s-.221.1-.327.156l-.319.171c-.107.057-.211.118-.312.185s-.2.133-.293.2c-.051.037-.1.073-.14.109s-.09.071-.14.108-.1.075-.144.114-.09.081-.133.123l-.126.127-.126.128c-.042.042-.083.088-.124.137l-.118.142c-.039.045-.076.094-.113.146l-.115.162a6.944,6.944,0,0,0-.6,1.016,5.536,5.536,0,0,0-.378,1.031,4.5,4.5,0,0,0-.1,2,5.34,5.34,0,0,0,.308.967,5.023,5.023,0,0,0,.524.93,6.384,6.384,0,0,0,.763.883,8.584,8.584,0,0,0,1.008.831,7.27,7.27,0,0,0,2.091,1.047,5.137,5.137,0,0,0,2.068.238,4.553,4.553,0,0,0,1.916-.591,5.022,5.022,0,0,0,1.5-1.3l-1.862-1.319a3.02,3.02,0,0,1-.941.795,3.1,3.1,0,0,1-.6.244,2.489,2.489,0,0,1-.621.1,3.483,3.483,0,0,1-.635-.034,3.247,3.247,0,0,1-.622-.152,4.86,4.86,0,0,1-1.172-.613,3.256,3.256,0,0,1-1.51-2.224,3.653,3.653,0,0,1,.78-2.6,4.066,4.066,0,0,1,.988-1.013,5,5,0,0,1,1.115-.582q.289-.1.608-.183c.213-.054.428-.1.647-.137q.645-.121,1.343-.24.993-.18,1.71-.377a5.819,5.819,0,0,0,1.274-.513,4.818,4.818,0,0,0,1.092-.842,10.65,10.65,0,0,0,1.014-1.177Zm5.051-3.567a1.392,1.392,0,0,0-.646-.909,1.347,1.347,0,0,0-1.06-.3,1.312,1.312,0,0,0-.833.565,1.532,1.532,0,0,0-.234.484,1.279,1.279,0,0,0-.03.5,1.353,1.353,0,0,0,.632.916,1.3,1.3,0,0,0,1.062.283,1.352,1.352,0,0,0,.841-.577A1.33,1.33,0,0,0,1101.624,544.493Z" fill="#158aff"/>
      </g>
    </g>
    <g id="Group_430" data-name="Group 430">
      <rect id="Rectangle_170" data-name="Rectangle 170" width="35.279" height="35.28" transform="translate(704.272 557.497) rotate(-79.661)" fill="none"/>
      <g id="Group_428" data-name="Group 428">
        <path id="Path_1382" data-name="Path 1382" d="M741.254,536.961a17.657,17.657,0,1,0,.9,9.486A17.664,17.664,0,0,0,741.254,536.961Zm-21.841-7.6a14.955,14.955,0,1,1-9.326,11.287A14.963,14.963,0,0,1,719.413,529.365Z" fill="#158aff"/>
      </g>
      <g id="Group_429" data-name="Group 429">
        <path id="Path_1383" data-name="Path 1383" d="M729.368,543.449a8.057,8.057,0,0,1-.933-.26,6.321,6.321,0,0,1-.854-.365,3.715,3.715,0,0,1-.856-.6,4.428,4.428,0,0,1-.7-.854q-.527-.8-1.089-1.576-.275-.379-.584-.735t-.641-.671c-.084-.085-.172-.168-.261-.25s-.184-.158-.28-.23l-.29-.218c-.1-.072-.2-.14-.3-.2s-.2-.124-.3-.182c-.054-.03-.106-.057-.157-.082s-.1-.051-.157-.081-.11-.057-.165-.082-.111-.048-.167-.068l-.169-.061-.168-.06c-.056-.02-.115-.039-.177-.055l-.179-.048c-.057-.015-.116-.028-.179-.04l-.2-.035a6.959,6.959,0,0,0-1.176-.118,5.671,5.671,0,0,0-1.094.092,4.512,4.512,0,0,0-1.859.754,5.348,5.348,0,0,0-.746.687,4.992,4.992,0,0,0-.622.867,6.364,6.364,0,0,0-.479,1.065,8.532,8.532,0,0,0-.328,1.264,7.289,7.289,0,0,0-.067,2.338,5.135,5.135,0,0,0,.657,1.975,4.553,4.553,0,0,0,1.345,1.488,5.031,5.031,0,0,0,1.813.809l.41-2.245a3,3,0,0,1-1.118-.518,3.135,3.135,0,0,1-.474-.438,2.573,2.573,0,0,1-.354-.521,3.566,3.566,0,0,1-.236-.589,3.23,3.23,0,0,1-.125-.629,4.859,4.859,0,0,1,.061-1.321,3.258,3.258,0,0,1,1.379-2.308,3.663,3.663,0,0,1,2.691-.392,4.068,4.068,0,0,1,1.336.469,5.057,5.057,0,0,1,1,.765c.143.146.283.3.422.474s.271.346.4.529q.383.534.785,1.116.582.825,1.063,1.391a5.873,5.873,0,0,0,1,.939,4.85,4.85,0,0,0,1.224.635,10.9,10.9,0,0,0,1.494.422Zm5.365,3.074a1.391,1.391,0,0,0,.551-.97,1.346,1.346,0,0,0-.175-1.087,1.306,1.306,0,0,0-.864-.516,1.5,1.5,0,0,0-.537-.009,1.325,1.325,0,0,0-.468.184,1.355,1.355,0,0,0-.564.96,1.3,1.3,0,0,0,.192,1.083,1.357,1.357,0,0,0,.878.519A1.335,1.335,0,0,0,734.733,546.523Z" fill="#158aff"/>
      </g>
    </g>
    <g id="Group_433" data-name="Group 433">
      <rect id="Rectangle_171" data-name="Rectangle 171" width="35.28" height="35.279" transform="matrix(0.591, -0.807, 0.807, 0.591, 323.773, 330.624)" fill="none"/>
      <g id="Group_431" data-name="Group 431">
        <path id="Path_1384" data-name="Path 1384" d="M349.909,309.243a17.659,17.659,0,1,0,8.925,3.339A17.664,17.664,0,0,0,349.909,309.243Zm-16.374,16.328a14.954,14.954,0,1,1,6.079,13.321A14.964,14.964,0,0,1,333.535,325.571Z" fill="#158aff"/>
      </g>
      <g id="Group_432" data-name="Group 432">
        <path id="Path_1385" data-name="Path 1385" d="M350.553,322.77a8.037,8.037,0,0,1-.641.725,6.4,6.4,0,0,1-.7.609,3.7,3.7,0,0,1-.912.509,4.379,4.379,0,0,1-1.076.26q-.949.126-1.893.292c-.308.054-.613.122-.917.2s-.6.177-.883.284c-.114.038-.226.08-.339.126s-.222.1-.329.151l-.323.165c-.107.055-.212.115-.314.18s-.2.13-.3.193c-.051.036-.1.072-.142.106s-.091.071-.141.107a1.817,1.817,0,0,0-.146.112c-.047.038-.092.079-.134.12l-.129.125-.128.125a1.842,1.842,0,0,0-.126.136l-.121.14c-.039.044-.077.092-.115.144l-.117.16a6.951,6.951,0,0,0-.619,1.006,5.62,5.62,0,0,0-.4,1.025,4.521,4.521,0,0,0-.134,2,5.379,5.379,0,0,0,.292.972,4.966,4.966,0,0,0,.508.938,6.377,6.377,0,0,0,.749.9,8.491,8.491,0,0,0,.994.847,7.286,7.286,0,0,0,2.073,1.082,5.17,5.17,0,0,0,2.065.272,4.558,4.558,0,0,0,1.925-.56,5.039,5.039,0,0,0,1.52-1.277l-1.84-1.349a3.034,3.034,0,0,1-.954.779,3.124,3.124,0,0,1-.6.234,2.5,2.5,0,0,1-.623.091,3.562,3.562,0,0,1-.633-.045,3.3,3.3,0,0,1-.621-.162,4.862,4.862,0,0,1-1.161-.632,3.255,3.255,0,0,1-1.473-2.249,3.652,3.652,0,0,1,.822-2.591,4.086,4.086,0,0,1,1.005-1,5.06,5.06,0,0,1,1.125-.563c.194-.065.4-.122.611-.173s.43-.092.649-.126q.646-.109,1.346-.218,1-.163,1.716-.349a5.8,5.8,0,0,0,1.283-.492,4.829,4.829,0,0,0,1.106-.823,10.777,10.777,0,0,0,1.032-1.16Zm5.109-3.484a1.4,1.4,0,0,0-.631-.919,1.345,1.345,0,0,0-1.055-.317,1.3,1.3,0,0,0-.842.551,1.488,1.488,0,0,0-.242.48,1.312,1.312,0,0,0-.039.5,1.355,1.355,0,0,0,.617.927,1.3,1.3,0,0,0,1.057.3,1.353,1.353,0,0,0,.851-.563A1.338,1.338,0,0,0,355.662,319.286Z" fill="#158aff"/>
      </g>
    </g>
    <g id="Group_436" data-name="Group 436">
      <rect id="Rectangle_172" data-name="Rectangle 172" width="35.279" height="35.28" transform="translate(350.637 544.168) rotate(-19.133)" fill="none"/>
      <g id="Group_434" data-name="Group 434">
        <path id="Path_1386" data-name="Path 1386" d="M386.711,566.26a17.657,17.657,0,1,0-7.817,5.447A17.663,17.663,0,0,0,386.711,566.26Zm-4.133-22.752a14.955,14.955,0,1,1-14.415-2.566A14.963,14.963,0,0,1,382.578,543.508Z" fill="#158aff"/>
      </g>
      <g id="Group_435" data-name="Group 435">
        <path id="Path_1387" data-name="Path 1387" d="M375.215,559.1a7.826,7.826,0,0,1-.233-.94,6.311,6.311,0,0,1-.1-.923,3.659,3.659,0,0,1,.1-1.039,4.405,4.405,0,0,1,.4-1.034q.436-.852.836-1.724.2-.426.352-.87c.106-.3.2-.592.269-.888.033-.115.062-.232.089-.35s.047-.237.063-.357l.047-.359c.015-.12.026-.24.03-.361s.008-.239.01-.354c0-.062,0-.121-.007-.177s-.006-.115-.007-.177,0-.123-.009-.184-.013-.12-.023-.179l-.03-.176-.03-.177c-.01-.059-.023-.119-.04-.181l-.046-.179c-.015-.057-.032-.116-.053-.176l-.066-.188a6.917,6.917,0,0,0-.476-1.081,5.64,5.64,0,0,0-.619-.908,4.511,4.511,0,0,0-1.57-1.247,5.311,5.311,0,0,0-.965-.312,5.014,5.014,0,0,0-1.061-.115,6.3,6.3,0,0,0-1.163.108,8.441,8.441,0,0,0-1.262.336,7.26,7.26,0,0,0-2.068,1.092,5.143,5.143,0,0,0-1.4,1.544,4.552,4.552,0,0,0-.633,1.9,5.021,5.021,0,0,0,.187,1.976l2.156-.748a3.017,3.017,0,0,1-.1-1.228,3.126,3.126,0,0,1,.149-.628,2.512,2.512,0,0,1,.279-.564,3.468,3.468,0,0,1,.4-.5,3.221,3.221,0,0,1,.486-.418,4.828,4.828,0,0,1,1.18-.6,3.257,3.257,0,0,1,2.687.065,3.654,3.654,0,0,1,1.665,2.15,4.055,4.055,0,0,1,.25,1.393,5.009,5.009,0,0,1-.175,1.246q-.086.294-.205.6t-.265.606q-.276.594-.586,1.231-.431.914-.688,1.61a5.834,5.834,0,0,0-.323,1.336,4.808,4.808,0,0,0,.049,1.378,10.675,10.675,0,0,0,.368,1.508Zm-.037,6.184a1.392,1.392,0,0,0,1.115,0,1.341,1.341,0,0,0,.86-.688,1.3,1.3,0,0,0,.025-1.006,1.49,1.49,0,0,0-.257-.472,1.294,1.294,0,0,0-.39-.316,1.35,1.35,0,0,0-1.113-.019,1.3,1.3,0,0,0-.848.7,1.354,1.354,0,0,0-.02,1.02A1.336,1.336,0,0,0,375.178,565.288Z" fill="#158aff"/>
      </g>
    </g>
    <g id="Group_439" data-name="Group 439">
      <rect id="Rectangle_173" data-name="Rectangle 173" width="35.28" height="35.279" transform="matrix(0.248, -0.969, 0.969, 0.248, 724.227, 291.122)" fill="none"/>
      <g id="Group_437" data-name="Group 437">
        <path id="Path_1388" data-name="Path 1388" d="M740.523,261.547a17.657,17.657,0,1,0,9.525-.225A17.664,17.664,0,0,0,740.523,261.547ZM731.406,282.8a14.957,14.957,0,1,1,10.6,10.1A14.963,14.963,0,0,1,731.406,282.8Z" fill="#158aff"/>
      </g>
      <g id="Group_438" data-name="Group 438">
        <path id="Path_1389" data-name="Path 1389" d="M746.157,273.861a7.838,7.838,0,0,1-.326.912,6.206,6.206,0,0,1-.424.826,3.669,3.669,0,0,1-.657.812,4.339,4.339,0,0,1-.9.643q-.834.47-1.648.976-.4.248-.775.53t-.714.593q-.137.117-.267.243c-.088.084-.171.171-.25.262l-.237.274c-.079.091-.154.186-.225.284s-.139.2-.2.29c-.033.052-.064.1-.092.151s-.058.1-.092.151-.064.1-.093.159-.056.107-.08.162l-.072.163-.073.164c-.024.055-.046.112-.067.173s-.04.119-.06.175-.037.114-.053.176l-.049.193a7.029,7.029,0,0,0-.2,1.164,5.569,5.569,0,0,0,.015,1.1,4.5,4.5,0,0,0,.621,1.907,5.252,5.252,0,0,0,.632.793,4.968,4.968,0,0,0,.821.682,6.406,6.406,0,0,0,1.029.553,8.433,8.433,0,0,0,1.238.416,7.3,7.3,0,0,0,2.327.232,5.144,5.144,0,0,0,2.017-.517,4.542,4.542,0,0,0,1.578-1.236,5.025,5.025,0,0,0,.936-1.752l-2.211-.566a3,3,0,0,1-.595,1.078,3.114,3.114,0,0,1-.471.442,2.58,2.58,0,0,1-.544.316,3.621,3.621,0,0,1-.6.2,3.335,3.335,0,0,1-.636.08,4.829,4.829,0,0,1-1.313-.155,3.252,3.252,0,0,1-2.2-1.538,3.655,3.655,0,0,1-.2-2.711,4.053,4.053,0,0,1,.562-1.3,4.98,4.98,0,0,1,.834-.941c.155-.133.323-.262.5-.388s.365-.246.556-.359q.56-.343,1.168-.7.864-.523,1.463-.962a5.876,5.876,0,0,0,1.007-.935,4.809,4.809,0,0,0,.719-1.176,10.715,10.715,0,0,0,.527-1.461Zm3.444-5.135a1.387,1.387,0,0,0-.928-.618,1.346,1.346,0,0,0-1.1.1,1.309,1.309,0,0,0-.576.825,1.5,1.5,0,0,0-.046.536,1.3,1.3,0,0,0,.15.479,1.351,1.351,0,0,0,.918.63,1.3,1.3,0,0,0,1.093-.114,1.357,1.357,0,0,0,.58-.84A1.334,1.334,0,0,0,749.6,268.726Z" fill="#158aff"/>
      </g>
    </g>
    <g id="Group_442" data-name="Group 442">
      <rect id="Rectangle_174" data-name="Rectangle 174" width="35.28" height="35.279" transform="translate(807.055 148.544) rotate(-30.659)" fill="none"/>
      <g id="Group_440" data-name="Group 440">
        <path id="Path_1390" data-name="Path 1390" d="M839.483,139.131a17.656,17.656,0,1,0,6.9,6.571A17.663,17.663,0,0,0,839.483,139.131Zm-21.467,8.6a14.957,14.957,0,1,1,.366,14.637A14.964,14.964,0,0,1,818.016,147.726Z" fill="#158aff"/>
      </g>
      <g id="Group_441" data-name="Group 441">
        <path id="Path_1391" data-name="Path 1391" d="M834.769,151.825a7.954,7.954,0,0,1-.875.416,6.282,6.282,0,0,1-.884.284,3.675,3.675,0,0,1-1.038.111,4.378,4.378,0,0,1-1.092-.183q-.922-.257-1.856-.474-.456-.106-.923-.172c-.311-.043-.619-.072-.924-.085-.119-.009-.24-.015-.361-.017s-.242,0-.362.009l-.362.026c-.12.008-.24.023-.36.042s-.235.04-.348.061l-.172.042c-.054.015-.112.029-.172.042s-.12.029-.178.046-.116.037-.171.059l-.167.064-.167.065c-.056.022-.112.047-.17.075l-.166.081c-.053.026-.107.055-.162.088l-.171.1a6.985,6.985,0,0,0-.964.683,5.668,5.668,0,0,0-.765.787,4.522,4.522,0,0,0-.909,1.788,5.4,5.4,0,0,0-.113,1.008,4.945,4.945,0,0,0,.1,1.063,6.366,6.366,0,0,0,.337,1.118,8.52,8.52,0,0,0,.582,1.169,7.262,7.262,0,0,0,1.483,1.808,5.139,5.139,0,0,0,1.792,1.06,4.535,4.535,0,0,0,1.991.241,5.018,5.018,0,0,0,1.9-.579l-1.163-1.963a3.027,3.027,0,0,1-1.184.343,3.146,3.146,0,0,1-.645-.02,2.579,2.579,0,0,1-.609-.161,3.549,3.549,0,0,1-.565-.29,3.274,3.274,0,0,1-.507-.393,4.845,4.845,0,0,1-.82-1.037,3.251,3.251,0,0,1-.473-2.646,3.657,3.657,0,0,1,1.773-2.061,4.058,4.058,0,0,1,1.316-.523,5.015,5.015,0,0,1,1.255-.077q.306.024.63.08c.216.038.431.084.647.139q.637.153,1.323.328.981.24,1.716.352a5.758,5.758,0,0,0,1.373.05,4.8,4.8,0,0,0,1.34-.323,10.748,10.748,0,0,0,1.4-.662Zm6.066-1.2a1.392,1.392,0,0,0-.22-1.093,1.345,1.345,0,0,0-.846-.705,1.3,1.3,0,0,0-.99.176,1.494,1.494,0,0,0-.411.347,1.3,1.3,0,0,0-.233.445,1.357,1.357,0,0,0,.2,1.1,1.3,1.3,0,0,0,.855.691,1.354,1.354,0,0,0,1-.184A1.333,1.333,0,0,0,840.835,150.625Z" fill="#158aff"/>
      </g>
    </g>
    <g id="Group_445" data-name="Group 445">
      <rect id="Rectangle_175" data-name="Rectangle 175" width="35.28" height="35.279" transform="translate(505.122 435.643) rotate(-54.701)" fill="none"/>
      <g id="Group_443" data-name="Group 443">
        <path id="Path_1392" data-name="Path 1392" d="M530.9,413.835a17.659,17.659,0,1,0,8.978,3.191A17.664,17.664,0,0,0,530.9,413.835Zm-16.1,16.6a14.957,14.957,0,1,1,6.3,13.218A14.965,14.965,0,0,1,514.8,430.431Z" fill="#158aff"/>
      </g>
      <g id="Group_444" data-name="Group 444">
        <path id="Path_1393" data-name="Path 1393" d="M531.769,427.349a7.9,7.9,0,0,1-.629.736,6.267,6.267,0,0,1-.692.62,3.687,3.687,0,0,1-.9.524,4.379,4.379,0,0,1-1.072.278q-.948.141-1.888.323c-.307.059-.611.133-.913.219s-.595.187-.878.3c-.113.041-.225.085-.337.132s-.221.1-.327.156l-.319.171c-.107.057-.211.119-.312.185s-.2.133-.294.2c-.05.037-.1.073-.139.109s-.09.071-.14.108-.1.075-.145.115-.09.08-.132.122l-.126.128-.126.127c-.042.042-.083.088-.124.137l-.119.142c-.038.045-.075.094-.112.146l-.115.162a6.948,6.948,0,0,0-.6,1.017,5.588,5.588,0,0,0-.379,1.031,4.513,4.513,0,0,0-.1,2,5.337,5.337,0,0,0,.308.966,5.017,5.017,0,0,0,.523.93,6.391,6.391,0,0,0,.764.883,8.392,8.392,0,0,0,1.008.831,7.3,7.3,0,0,0,2.091,1.048,5.133,5.133,0,0,0,2.068.237,4.538,4.538,0,0,0,1.916-.591,5.019,5.019,0,0,0,1.5-1.3l-1.862-1.319a3,3,0,0,1-.942.8,3.139,3.139,0,0,1-.6.245,2.59,2.59,0,0,1-.621.1,3.576,3.576,0,0,1-.635-.035,3.23,3.23,0,0,1-.622-.152,4.861,4.861,0,0,1-1.172-.613,3.251,3.251,0,0,1-1.51-2.224,3.65,3.65,0,0,1,.78-2.6,4.038,4.038,0,0,1,.988-1.014,5.05,5.05,0,0,1,1.115-.582c.193-.068.4-.129.608-.183s.428-.1.647-.137q.645-.12,1.343-.24.993-.18,1.71-.377a5.791,5.791,0,0,0,1.274-.513,4.816,4.816,0,0,0,1.092-.842,10.713,10.713,0,0,0,1.014-1.176Zm5.051-3.567a1.392,1.392,0,0,0-.646-.909,1.346,1.346,0,0,0-1.06-.3,1.3,1.3,0,0,0-.833.565,1.514,1.514,0,0,0-.234.483,1.281,1.281,0,0,0-.03.5,1.348,1.348,0,0,0,.632.916,1.3,1.3,0,0,0,1.062.283,1.352,1.352,0,0,0,.841-.577A1.334,1.334,0,0,0,536.82,423.782Z" fill="#158aff"/>
      </g>
    </g>
    <g id="Group_448" data-name="Group 448">
      <rect id="Rectangle_176" data-name="Rectangle 176" width="35.279" height="35.28" transform="matrix(0.983, -0.183, 0.183, 0.983, 566.477, 249.363)" fill="none"/>
      <g id="Group_446" data-name="Group 446">
        <path id="Path_1394" data-name="Path 1394" d="M598.85,276.593a17.659,17.659,0,1,0-8.543,4.219A17.665,17.665,0,0,0,598.85,276.593Zm-.691-23.114a14.955,14.955,0,1,1-13.871-4.689A14.962,14.962,0,0,1,598.159,253.479Z" fill="#158aff"/>
      </g>
      <g id="Group_447" data-name="Group 447">
        <path id="Path_1395" data-name="Path 1395" d="M588.55,267.8a8.016,8.016,0,0,1-.09-.964,6.245,6.245,0,0,1,.037-.928,3.718,3.718,0,0,1,.253-1.013,4.4,4.4,0,0,1,.547-.963q.559-.779,1.084-1.58.257-.391.478-.808c.149-.277.281-.556.4-.838.049-.109.1-.22.14-.333s.082-.227.115-.343l.1-.348a3.562,3.562,0,0,0,.084-.353c.023-.119.044-.235.063-.349.008-.061.015-.12.019-.175s.012-.115.02-.176.015-.123.018-.183.005-.121,0-.181l0-.179,0-.179c0-.06-.005-.121-.012-.185s-.013-.125-.019-.184-.015-.119-.026-.182l-.037-.2a6.92,6.92,0,0,0-.309-1.141,5.551,5.551,0,0,0-.477-.989,4.509,4.509,0,0,0-1.366-1.468,5.266,5.266,0,0,0-.908-.452,4.979,4.979,0,0,0-1.032-.273,6.438,6.438,0,0,0-1.165-.067,8.5,8.5,0,0,0-1.3.144,7.283,7.283,0,0,0-2.208.771,5.14,5.14,0,0,0-1.611,1.319,4.538,4.538,0,0,0-.91,1.786,5.019,5.019,0,0,0-.11,1.983l2.243-.418a3,3,0,0,1,.086-1.229,3.048,3.048,0,0,1,.24-.6,2.557,2.557,0,0,1,.361-.516,3.551,3.551,0,0,1,.466-.432,3.252,3.252,0,0,1,.543-.34,4.863,4.863,0,0,1,1.256-.414,3.255,3.255,0,0,1,2.647.465,3.652,3.652,0,0,1,1.326,2.374,4.065,4.065,0,0,1,.039,1.416,5.009,5.009,0,0,1-.36,1.2c-.085.186-.182.373-.291.563s-.227.377-.353.56q-.363.547-.763,1.131-.562.839-.921,1.489a5.934,5.934,0,0,0-.519,1.272,4.818,4.818,0,0,0-.157,1.37,10.684,10.684,0,0,0,.139,1.547Zm-.959,6.109a1.4,1.4,0,0,0,1.1.169,1.34,1.34,0,0,0,.953-.552,1.3,1.3,0,0,0,.175-.991,1.5,1.5,0,0,0-.184-.505,1.3,1.3,0,0,0-.338-.371,1.355,1.355,0,0,0-1.1-.185,1.306,1.306,0,0,0-.943.565,1.357,1.357,0,0,0-.172,1.006A1.336,1.336,0,0,0,587.591,273.91Z" fill="#158aff"/>
      </g>
    </g>
    <g id="Group_451" data-name="Group 451">
      <rect id="Rectangle_177" data-name="Rectangle 177" width="35.28" height="35.279" transform="matrix(0.591, -0.807, 0.807, 0.591, 304.751, 138.253)" fill="none"/>
      <g id="Group_449" data-name="Group 449">
        <path id="Path_1396" data-name="Path 1396" d="M330.887,116.872a17.658,17.658,0,1,0,8.924,3.338A17.664,17.664,0,0,0,330.887,116.872ZM314.512,133.2a14.956,14.956,0,1,1,6.08,13.321A14.963,14.963,0,0,1,314.512,133.2Z" fill="#158aff"/>
      </g>
      <g id="Group_450" data-name="Group 450">
        <path id="Path_1397" data-name="Path 1397" d="M331.531,130.4a7.929,7.929,0,0,1-.642.726,6.279,6.279,0,0,1-.7.608,3.7,3.7,0,0,1-.912.509,4.332,4.332,0,0,1-1.077.261q-.949.126-1.893.292c-.307.054-.613.122-.916.2s-.6.176-.883.284q-.171.057-.339.126c-.113.045-.222.1-.33.15l-.322.166q-.16.083-.315.18c-.1.065-.2.129-.3.193-.051.036-.1.071-.142.106s-.091.07-.142.106-.1.074-.146.112-.091.079-.134.121l-.128.125-.128.125c-.043.042-.085.087-.127.136l-.12.139c-.039.045-.077.093-.115.144l-.118.161a7.037,7.037,0,0,0-.619,1.006,5.586,5.586,0,0,0-.395,1.025,4.506,4.506,0,0,0-.134,2,5.266,5.266,0,0,0,.292.971,4.942,4.942,0,0,0,.508.939,6.372,6.372,0,0,0,.748.9,8.413,8.413,0,0,0,.995.848,7.257,7.257,0,0,0,2.073,1.081,5.127,5.127,0,0,0,2.064.272,4.529,4.529,0,0,0,1.926-.56,5.01,5.01,0,0,0,1.52-1.277l-1.84-1.349a3,3,0,0,1-.955.779,3.032,3.032,0,0,1-.6.235,2.542,2.542,0,0,1-.623.091,3.58,3.58,0,0,1-.634-.045,3.307,3.307,0,0,1-.62-.162,4.9,4.9,0,0,1-1.161-.632,3.256,3.256,0,0,1-1.474-2.249,3.657,3.657,0,0,1,.823-2.591,4.052,4.052,0,0,1,1.005-1,5.06,5.06,0,0,1,1.125-.563c.193-.065.4-.122.61-.173s.43-.092.65-.126q.646-.111,1.346-.218,1-.165,1.716-.349a5.872,5.872,0,0,0,1.283-.492,4.8,4.8,0,0,0,1.105-.824,10.753,10.753,0,0,0,1.033-1.159Zm5.109-3.483a1.394,1.394,0,0,0-.632-.919,1.339,1.339,0,0,0-1.054-.317,1.3,1.3,0,0,0-.842.551,1.512,1.512,0,0,0-.243.48,1.293,1.293,0,0,0-.038.5,1.348,1.348,0,0,0,.617.926,1.3,1.3,0,0,0,1.057.3,1.36,1.36,0,0,0,.851-.563A1.339,1.339,0,0,0,336.64,126.915Z" fill="#158aff"/>
      </g>
    </g>
    <g id="Group_454" data-name="Group 454">
      <rect id="Rectangle_178" data-name="Rectangle 178" width="35.279" height="35.28" transform="translate(146.143 186.764) rotate(-19.133)" fill="none"/>
      <g id="Group_452" data-name="Group 452">
        <path id="Path_1398" data-name="Path 1398" d="M182.217,208.857A17.659,17.659,0,1,0,174.4,214.3,17.665,17.665,0,0,0,182.217,208.857ZM178.084,186.1a14.956,14.956,0,1,1-14.415-2.566A14.963,14.963,0,0,1,178.084,186.1Z" fill="#158aff"/>
      </g>
      <g id="Group_453" data-name="Group 453">
        <path id="Path_1399" data-name="Path 1399" d="M170.72,201.7a7.862,7.862,0,0,1-.232-.94,6.057,6.057,0,0,1-.1-.923,3.666,3.666,0,0,1,.1-1.04,4.378,4.378,0,0,1,.4-1.034q.437-.852.836-1.723.2-.426.352-.871t.269-.887c.032-.116.062-.232.088-.351s.048-.237.064-.357l.046-.359c.016-.12.026-.24.031-.361s.008-.239.01-.354c0-.062,0-.121-.007-.177s-.006-.115-.007-.177,0-.123-.009-.184-.013-.12-.023-.178l-.03-.177-.031-.177c-.01-.058-.023-.119-.039-.181s-.032-.121-.046-.178-.033-.116-.054-.177l-.065-.187a7.024,7.024,0,0,0-.476-1.082,5.633,5.633,0,0,0-.619-.907,4.524,4.524,0,0,0-1.57-1.248,5.371,5.371,0,0,0-.966-.311,4.934,4.934,0,0,0-1.06-.115,6.378,6.378,0,0,0-1.163.107,8.379,8.379,0,0,0-1.262.336,7.273,7.273,0,0,0-2.068,1.092,5.142,5.142,0,0,0-1.4,1.544,4.543,4.543,0,0,0-.633,1.9A5.018,5.018,0,0,0,161.24,194l2.156-.748a3.017,3.017,0,0,1-.1-1.228,3.123,3.123,0,0,1,.148-.628,2.557,2.557,0,0,1,.28-.564,3.589,3.589,0,0,1,.4-.5,3.229,3.229,0,0,1,.487-.418,4.827,4.827,0,0,1,1.18-.6,3.25,3.25,0,0,1,2.687.065,3.652,3.652,0,0,1,1.665,2.149,4.06,4.06,0,0,1,.25,1.394,5.009,5.009,0,0,1-.176,1.245c-.056.2-.125.4-.2.6s-.168.406-.265.606q-.277.6-.586,1.232-.431.913-.688,1.61a5.87,5.87,0,0,0-.324,1.335,4.808,4.808,0,0,0,.05,1.378,10.774,10.774,0,0,0,.367,1.509Zm-.036,6.183a1.391,1.391,0,0,0,1.115,0,1.343,1.343,0,0,0,.86-.688,1.3,1.3,0,0,0,.025-1.006,1.5,1.5,0,0,0-.257-.472,1.3,1.3,0,0,0-.39-.316,1.354,1.354,0,0,0-1.113-.019,1.306,1.306,0,0,0-.849.7,1.359,1.359,0,0,0-.02,1.02A1.334,1.334,0,0,0,170.684,207.884Z" fill="#158aff"/>
      </g>
    </g>
  </g>
</svg>
