<svg xmlns="http://www.w3.org/2000/svg" xmlns:xlink="http://www.w3.org/1999/xlink" width="1091.463" height="776.365" viewBox="0 0 1091.463 776.365">
  <defs>
    <linearGradient id="linear-gradient" x1="0.121" y1="0.269" x2="0.903" y2="0.724" gradientUnits="objectBoundingBox">
      <stop offset="0" stop-color="#b0daff"/>
      <stop offset="1" stop-color="#1484ef"/>
    </linearGradient>
  </defs>
  <path id="Path_1631" data-name="Path 1631" d="M1737.434,1029.234c-26.959-52.937-97.539-66.647-157.775-64.1S1455.69,979.4,1401.278,953.9c-26.295-12.318-47.937-32.423-73-47.011-75.086-43.717-178.251-27.069-242.387,31.6-4.782-68.614,26.624-136.784,78.712-182.777,31.7-27.992,70.493-46.8,106.123-69.787s69.722-52.3,83.9-91.771c12.674-35.278,7.967-74.587,18.907-110.421,13.988-45.818,53.3-81.76,98.728-99.072s96.214-17.524,143.962-7.987c25.129,5.019,51.374,12.625,75.83,5.054,24.866-7.7,103.97-124.023,228.819-128.708s209.52,99.364,256,169.333l-4.933,606.879Z" transform="translate(-1085.415 -252.869)" opacity="0.56" fill="url(#linear-gradient)"/>
</svg>
