<svg xmlns="http://www.w3.org/2000/svg" width="51" height="51" viewBox="0 0 51 51">
  <g id="instagram" transform="translate(0 0.016)">
    <circle id="Ellipse_97" data-name="Ellipse 97" cx="25.5" cy="25.5" r="25.5" transform="translate(0 -0.016)" fill="#a527b3"/>
    <path id="Path_1225" data-name="Path 1225" d="M147.277,126.135a42.646,42.646,0,0,1-9.359.067c-4.436-.341-10.918-2.388-13.306,1.706-3.837,6.555-1.944,14.946-1.05,22.372l13.333,13.33a25.335,25.335,0,0,0,23.931-23.927Z" transform="translate(-110.196 -112.982)" fill="#7c1987"/>
    <g id="Group_336" data-name="Group 336" transform="translate(10.833 10.833)">
      <path id="Path_1226" data-name="Path 1226" d="M129.829,109.468H118.107a8.649,8.649,0,0,0-8.639,8.639v11.722a8.649,8.649,0,0,0,8.64,8.64H129.83a8.649,8.649,0,0,0,8.64-8.64V118.107a8.649,8.649,0,0,0-8.64-8.639Zm5.722,20.362a5.722,5.722,0,0,1-5.722,5.722H118.108a5.722,5.722,0,0,1-5.722-5.722V118.108a5.722,5.722,0,0,1,5.722-5.722H129.83a5.722,5.722,0,0,1,5.722,5.722V129.83Z" transform="translate(-109.468 -109.468)" fill="#fff"/>
      <path id="Path_1227" data-name="Path 1227" d="M187.7,180.2a7.5,7.5,0,1,0,7.5,7.5,7.509,7.509,0,0,0-7.5-7.5Zm0,12.084a4.583,4.583,0,1,1,4.583-4.583,4.583,4.583,0,0,1-4.583,4.583Z" transform="translate(-173.202 -173.202)" fill="#fff"/>
    </g>
    <g id="Group_337" data-name="Group 337" transform="translate(25.276 10.833)">
      <path id="Path_1228" data-name="Path 1228" d="M317.372,164.408a1.8,1.8,0,1,1-1.8-1.8,1.8,1.8,0,0,1,1.8,1.8Z" transform="translate(-308.003 -157.352)" fill="#d1d1d1"/>
      <path id="Path_1229" data-name="Path 1229" d="M261.344,109.468h-5.918v2.917h5.918a5.722,5.722,0,0,1,5.722,5.722V129.83a5.722,5.722,0,0,1-5.722,5.722h-5.918v2.917h5.918a8.649,8.649,0,0,0,8.639-8.64V118.107A8.649,8.649,0,0,0,261.344,109.468Z" transform="translate(-255.426 -109.468)" fill="#d1d1d1"/>
      <path id="Path_1230" data-name="Path 1230" d="M255.483,180.2h-.057v2.917h.057a4.583,4.583,0,0,1,0,9.166h-.057V195.2h.057a7.5,7.5,0,0,0,0-15Z" transform="translate(-255.426 -173.202)" fill="#d1d1d1"/>
    </g>
  </g>
</svg>
