<svg id="link-24px" xmlns="http://www.w3.org/2000/svg" width="37" height="37" viewBox="0 0 37 37">
  <path id="Path_1254" data-name="Path 1254" d="M0,0H37V37H0Z" fill="none"/>
  <path id="Path_1255" data-name="Path 1255" d="M4.929,14.708A4.783,4.783,0,0,1,9.708,9.929h6.167V7H9.708a7.708,7.708,0,0,0,0,15.417h6.167V19.488H9.708A4.783,4.783,0,0,1,4.929,14.708ZM11.25,16.25H23.583V13.167H11.25ZM25.125,7H18.958V9.929h6.167a4.779,4.779,0,0,1,0,9.558H18.958v2.929h6.167A7.708,7.708,0,1,0,25.125,7Z" transform="translate(1.083 3.792)" fill="#598c9d"/>
</svg>
