<svg id="call-24px" xmlns="http://www.w3.org/2000/svg" width="36.16" height="36.16" viewBox="0 0 36.16 36.16">
  <path id="Path_1680" data-name="Path 1680" d="M36.16,0H0V36.16H36.16Z" fill="none"/>
  <path id="Path_1681" data-name="Path 1681" d="M4.492,21.653a17.241,17.241,0,0,0,5.319-.844,1.472,1.472,0,0,1,1.522.362L13.7,24.139A22.876,22.876,0,0,0,24.078,13.848l-2.938-2.5a1.538,1.538,0,0,1-.362-1.537,16.8,16.8,0,0,0,.844-5.319A1.5,1.5,0,0,1,23.114,3h5.213c.814,0,1.793.362,1.793,1.492A25.842,25.842,0,0,1,4.492,30.12,1.581,1.581,0,0,1,3,28.342v-5.2a1.5,1.5,0,0,1,1.492-1.492Z" transform="translate(1.52 1.52)" fill="#0e68d1"/>
</svg>
