<svg xmlns="http://www.w3.org/2000/svg" xmlns:xlink="http://www.w3.org/1999/xlink" width="117" height="118" viewBox="0 0 117 118">
  <defs>
    <filter id="Ellipse_104" x="0" y="0" width="117" height="118" filterUnits="userSpaceOnUse">
      <feOffset dy="3" input="SourceAlpha"/>
      <feGaussianBlur stdDeviation="3" result="blur"/>
      <feFlood flood-opacity="0.161"/>
      <feComposite operator="in" in2="blur"/>
      <feComposite in="SourceGraphic"/>
    </filter>
  </defs>
  <g id="_04" data-name="04" transform="translate(8.517 6.25)">
    <g transform="matrix(1, 0, 0, 1, -8.52, -6.25)" filter="url(#Ellipse_104)">
      <ellipse id="Ellipse_104-2" data-name="Ellipse 104" cx="49.5" cy="50" rx="49.5" ry="50" transform="translate(9 6)" fill="#fff"/>
    </g>
    <g id="Group_228" data-name="Group 228" transform="translate(21.162 19.648)">
      <path id="Path_694" data-name="Path 694" d="M-928.727,924.947l-34.329-.2h-.06a9.742,9.742,0,0,0-6.893,2.832,9.743,9.743,0,0,0-2.915,6.919l-.185,30.969a11.415,11.415,0,0,0-2.892,7.6,11.475,11.475,0,0,0,11.462,11.462,11.409,11.409,0,0,0,7.3-2.635l28.169.167h.06a9.742,9.742,0,0,0,6.893-2.832,9.744,9.744,0,0,0,2.914-6.919l.223-37.491A9.821,9.821,0,0,0-928.727,924.947Zm-35.812,57.6a9.5,9.5,0,0,1-9.485-9.486,9.451,9.451,0,0,1,2.661-6.579l.225,0v-.228a9.451,9.451,0,0,1,6.6-2.68,9.5,9.5,0,0,1,9.486,9.485A9.5,9.5,0,0,1-964.538,982.548Zm43.363-10.254a7.78,7.78,0,0,1-2.327,5.525,7.733,7.733,0,0,1-5.553,2.261l-26.308-.156a11.4,11.4,0,0,0,2.286-6.862,11.41,11.41,0,0,0-.7-3.952h22.564v-1.976h-22.849v1.281a11.527,11.527,0,0,0-3.5-4.443h26.081V962H-958.14v1.561a11.4,11.4,0,0,0-6.4-1.956,11.394,11.394,0,0,0-6.583,2.088l.174-29.183a7.782,7.782,0,0,1,2.327-5.525,7.781,7.781,0,0,1,5.5-2.261h.048l34.329.2a7.842,7.842,0,0,1,7.786,7.88Z" transform="translate(976 -924.742)" fill="#437374"/>
      <path id="Path_695" data-name="Path 695" d="M-919.828,952.4a8.4,8.4,0,0,0,5.933-8.017A8.393,8.393,0,0,0-922.278,936a8.393,8.393,0,0,0-8.383,8.383,8.4,8.4,0,0,0,5.933,8.017c-6.981,1.126-12.272,6.865-12.272,11.7h1.976c0-4.469,5.881-9.929,12.746-9.929s12.746,5.46,12.746,9.929h1.976C-907.555,959.265-912.847,953.525-919.828,952.4Zm-8.857-8.017a6.414,6.414,0,0,1,6.407-6.407,6.414,6.414,0,0,1,6.407,6.407,6.415,6.415,0,0,1-6.407,6.407A6.415,6.415,0,0,1-928.685,944.383Z" transform="translate(952.414 -931.551)" fill="#437374"/>
      <path id="Path_696" data-name="Path 696" d="M-951.526,1029.974l-1.4-1.4-7.642,7.642-3.305-3.305-1.4,1.4,4.7,4.7Z" transform="translate(969.509 -987.538)" fill="#437374"/>
      <path id="Path_697" data-name="Path 697" d="M-960.3,1047.926l-3.305-3.3-1.4,1.4,4.7,4.7,9.039-9.04-1.4-1.4Z" transform="translate(969.348 -994.619)" fill="#437374"/>
    </g>
  </g>
</svg>
