<svg xmlns="http://www.w3.org/2000/svg" xmlns:xlink="http://www.w3.org/1999/xlink" width="118" height="118" viewBox="0 0 118 118">
  <defs>
    <filter id="Ellipse_107" x="0" y="0" width="118" height="118" filterUnits="userSpaceOnUse">
      <feOffset dy="3" input="SourceAlpha"/>
      <feGaussianBlur stdDeviation="3" result="blur"/>
      <feFlood flood-opacity="0.161"/>
      <feComposite operator="in" in2="blur"/>
      <feComposite in="SourceGraphic"/>
    </filter>
  </defs>
  <g id="_01" data-name="01" transform="translate(9 6.25)">
    <g transform="matrix(1, 0, 0, 1, -9, -6.25)" filter="url(#Ellipse_107)">
      <circle id="Ellipse_107-2" data-name="Ellipse 107" cx="50" cy="50" r="50" transform="translate(9 6)" fill="#fff"/>
    </g>
    <g id="Group_232" data-name="Group 232" transform="translate(23 21.159)">
      <path id="Path_713" data-name="Path 713" d="M-299.361,932h-34.33a9.821,9.821,0,0,0-9.81,9.81V979.3a9.821,9.821,0,0,0,9.81,9.81h34.33a9.821,9.821,0,0,0,9.81-9.81V941.81A9.821,9.821,0,0,0-299.361,932Zm-34.33,55.135a7.8,7.8,0,0,1-5.4-2.174h.532c0-2.021,2.885-5.138,6.719-5.138s6.719,3.117,6.719,5.138h1.976c0-2.021,2.885-5.138,6.719-5.138s6.719,3.117,6.719,5.138h1.976c0-2.021,2.885-5.138,6.719-5.138s6.719,3.117,6.719,5.138h.334a7.8,7.8,0,0,1-5.4,2.174Zm1.85-10.078A3.165,3.165,0,0,1-335,973.894a3.166,3.166,0,0,1,3.162-3.162,3.166,3.166,0,0,1,3.162,3.162A3.165,3.165,0,0,1-331.841,977.056Zm15.414,0a3.166,3.166,0,0,1-3.162-3.162,3.166,3.166,0,0,1,3.162-3.162,3.166,3.166,0,0,1,3.162,3.162A3.166,3.166,0,0,1-316.427,977.056Zm15.414,0a3.165,3.165,0,0,1-3.162-3.162,3.166,3.166,0,0,1,3.162-3.162,3.166,3.166,0,0,1,3.162,3.162A3.165,3.165,0,0,1-301.013,977.056Zm9.486,2.245a7.774,7.774,0,0,1-1.109,4,8.925,8.925,0,0,0-5.682-5.038,5.134,5.134,0,0,0,2.443-4.366,5.144,5.144,0,0,0-5.138-5.138,5.144,5.144,0,0,0-5.138,5.138,5.134,5.134,0,0,0,2.443,4.366,9.362,9.362,0,0,0-5.012,3.715,9.362,9.362,0,0,0-5.012-3.715,5.134,5.134,0,0,0,2.443-4.366,5.144,5.144,0,0,0-5.138-5.138,5.144,5.144,0,0,0-5.138,5.138,5.134,5.134,0,0,0,2.443,4.366,9.362,9.362,0,0,0-5.012,3.715,9.362,9.362,0,0,0-5.012-3.715,5.134,5.134,0,0,0,2.443-4.366,5.144,5.144,0,0,0-5.138-5.138,5.144,5.144,0,0,0-5.138,5.138,5.134,5.134,0,0,0,2.443,4.366,8.839,8.839,0,0,0-5.754,5.244,7.776,7.776,0,0,1-1.234-4.2V941.81a7.842,7.842,0,0,1,7.833-7.833h34.33a7.842,7.842,0,0,1,7.833,7.833Z" transform="translate(343.5 -932)" fill="#437374"/>
      <path id="Path_714" data-name="Path 714" d="M-314.7,961.9a5.141,5.141,0,0,0-4.743,5.118A5.134,5.134,0,0,0-317,971.385c-3.489,1.084-6,4.108-6,6.7h1.976c0-2.015,2.869-5.12,6.686-5.138l6.068.418,6.247-4.777.517.647-6.7,9.671,1.625,1.125,3.262-4.712h19.441V952H-314.7Zm.4,1.956a3.166,3.166,0,0,1,3.162,3.162,3.166,3.166,0,0,1-3.162,3.162,3.166,3.166,0,0,1-3.162-3.162A3.166,3.166,0,0,1-314.3,963.857Zm28.456-9.881v19.366h-16.1l2.9-4.193-2.644-3.306-7.19,5.5-2.42-.167a5.13,5.13,0,0,0,2.131-4.157,5.145,5.145,0,0,0-3.557-4.887v-8.156Z" transform="translate(331.102 -944.095)" fill="#437374"/>
      <rect id="Rectangle_63" data-name="Rectangle 63" width="10.58" height="2.267" transform="translate(29.728 13.479)" fill="#437374"/>
      <rect id="Rectangle_64" data-name="Rectangle 64" width="14.426" height="1.976" transform="translate(26.085 17.785)" fill="#437374"/>
    </g>
  </g>
</svg>
