<svg xmlns="http://www.w3.org/2000/svg" xmlns:xlink="http://www.w3.org/1999/xlink" width="117" height="118" viewBox="0 0 117 118">
  <defs>
    <filter id="Ellipse_103" x="0" y="0" width="117" height="118" filterUnits="userSpaceOnUse">
      <feOffset dy="3" input="SourceAlpha"/>
      <feGaussianBlur stdDeviation="3" result="blur"/>
      <feFlood flood-opacity="0.161"/>
      <feComposite operator="in" in2="blur"/>
      <feComposite in="SourceGraphic"/>
    </filter>
  </defs>
  <g id="_05" data-name="05" transform="translate(8.732 6.25)">
    <g transform="matrix(1, 0, 0, 1, -8.73, -6.25)" filter="url(#Ellipse_103)">
      <ellipse id="Ellipse_103-2" data-name="Ellipse 103" cx="49.5" cy="50" rx="49.5" ry="50" transform="translate(9 6)" fill="#fff"/>
    </g>
    <path id="Path_707" data-name="Path 707" d="M-299.361,748h-34.33a9.821,9.821,0,0,0-9.81,9.81V795.3a9.821,9.821,0,0,0,9.81,9.81h34.33a9.821,9.821,0,0,0,9.81-9.81V757.81A9.821,9.821,0,0,0-299.361,748Zm-34.33,1.976h34.33a7.842,7.842,0,0,1,7.833,7.834V772.9h-1.207c-.236-2.5-2.665-5.276-5.979-6.305a5.134,5.134,0,0,0,2.443-4.366,5.144,5.144,0,0,0-5.138-5.138,5.144,5.144,0,0,0-5.138,5.138,5.134,5.134,0,0,0,2.443,4.366,9.363,9.363,0,0,0-5.012,3.714,9.363,9.363,0,0,0-5.012-3.714,5.134,5.134,0,0,0,2.443-4.366,5.144,5.144,0,0,0-5.138-5.138,5.144,5.144,0,0,0-5.138,5.138,5.134,5.134,0,0,0,2.443,4.366,9.363,9.363,0,0,0-5.012,3.714,9.363,9.363,0,0,0-5.012-3.714,5.134,5.134,0,0,0,2.443-4.366,5.144,5.144,0,0,0-5.138-5.138,5.144,5.144,0,0,0-5.138,5.138,5.134,5.134,0,0,0,2.443,4.366c-3.313,1.03-5.742,3.808-5.979,6.305h-.614V757.81A7.842,7.842,0,0,1-333.69,749.976Zm1.454,15.414a3.166,3.166,0,0,1-3.162-3.162,3.166,3.166,0,0,1,3.162-3.162,3.166,3.166,0,0,1,3.162,3.162A3.166,3.166,0,0,1-332.236,765.39Zm6.685,7.509H-338.92c.334-2.007,3.093-4.743,6.685-4.743S-325.886,770.892-325.551,772.9Zm8.729-7.509a3.166,3.166,0,0,1-3.162-3.162,3.166,3.166,0,0,1,3.162-3.162,3.166,3.166,0,0,1,3.162,3.162A3.166,3.166,0,0,1-316.822,765.39Zm6.685,7.509h-13.369c.334-2.007,3.093-4.743,6.684-4.743S-310.472,770.892-310.137,772.9Zm8.729-7.509a3.166,3.166,0,0,1-3.162-3.162,3.166,3.166,0,0,1,3.162-3.162,3.166,3.166,0,0,1,3.162,3.162A3.166,3.166,0,0,1-301.408,765.39Zm6.685,7.509h-13.369c.334-2.007,3.093-4.743,6.685-4.743S-295.058,770.892-294.724,772.9Zm-21.7,13.438a3.166,3.166,0,0,1-3.162-3.162,3.166,3.166,0,0,1,3.162-3.162,3.166,3.166,0,0,1,3.162,3.162A3.166,3.166,0,0,1-316.427,786.337Zm6.442,6.719h-12.884a7.246,7.246,0,0,1,6.442-3.952A7.246,7.246,0,0,1-309.985,793.056Zm4.624,1.976v7.9h-22.528v-7.9Zm6,8.1h-4.023V793.056H-307.9a8.719,8.719,0,0,0-5.835-5.515,5.134,5.134,0,0,0,2.443-4.366,5.144,5.144,0,0,0-5.138-5.138,5.144,5.144,0,0,0-5.138,5.138,5.134,5.134,0,0,0,2.443,4.366,8.719,8.719,0,0,0-5.835,5.515h-4.908v10.078h-3.826a7.842,7.842,0,0,1-7.833-7.833V774.876h50V795.3A7.842,7.842,0,0,1-299.361,803.135Z" transform="translate(365.637 -726.841)" fill="#437374"/>
  </g>
</svg>
