<svg xmlns="http://www.w3.org/2000/svg" width="252.298" height="553.08" viewBox="0 0 252.298 553.08">
  <defs>
    <style>
      .cls-1 {
        fill: #fff;
      }
    </style>
  </defs>
  <g id="SciFI" transform="translate(-275.93 775.56) rotate(-90)">
    <path id="Path_1256" data-name="Path 1256" class="cls-1" d="M293.066,412.46a2.1,2.1,0,1,0,.612,1.482c0-.04-.021-.075-.024-.118l13.021-5.836V302.041a2.105,2.105,0,1,0-1.487,0V407.028Z" transform="translate(165.674 36.935)"/>
    <path id="Path_1258" data-name="Path 1258" class="cls-1" d="M360.78,354.88a2.1,2.1,0,1,0,1.487,0V315.087L243.892,395.482a2.036,2.036,0,0,0-1.177-.407,2.1,2.1,0,1,0,2.105,2.1,1.967,1.967,0,0,0-.1-.468L360.78,317.89Z" transform="translate(83.845 65.581)"/>
    <path id="Path_1259" data-name="Path 1259" class="cls-1" d="M225.282,358.533a2.1,2.1,0,1,0,0,1.485h13.024v-8.193a2.105,2.105,0,1,0-1.487,0v6.708Z" transform="translate(51.377 120.315)"/>
    <path id="Path_1268" data-name="Path 1268" class="cls-1" d="M251.264,356.09a3.343,3.343,0,0,0,3.341-3.344,3.279,3.279,0,0,0-.324-1.391l75.09-57.94a3.274,3.274,0,0,0,2.089.794,3.342,3.342,0,1,0-3.344-3.341,3.268,3.268,0,0,0,.324,1.388L253.35,350.2a3.284,3.284,0,0,0-2.086-.792,3.342,3.342,0,0,0,0,6.684Z" transform="translate(96.088 19.421)"/>
    <path id="Path_1269" data-name="Path 1269" class="cls-1" d="M217.211,369.386a3.342,3.342,0,0,0,3.341-3.344,3.26,3.26,0,0,0-.4-1.5l35.423-29.832v-18.44a3.294,3.294,0,0,0,2.6-3.191,3.342,3.342,0,0,0-6.684,0,3.294,3.294,0,0,0,2.6,3.191v17.75l-34.912,29.4a3.255,3.255,0,0,0-1.969-.714,3.342,3.342,0,0,0,0,6.684Z" transform="translate(39.055 56.618)"/>
    <path id="Path_1270" data-name="Path 1270" class="cls-1" d="M216.286,408.752a3.34,3.34,0,0,0,3.341-3.341,3.272,3.272,0,0,0-.375-1.466l64.827-52.908.273-.222V312.568a3.3,3.3,0,0,0,2.6-3.191,3.342,3.342,0,1,0-6.684,0,3.3,3.3,0,0,0,2.6,3.191v37.544l-64.568,52.7a3.278,3.278,0,0,0-2.011-.741,3.341,3.341,0,0,0,0,6.682Z" transform="translate(37.506 50.417)"/>
    <path id="Path_1271" data-name="Path 1271" class="cls-1" d="M222.023,448.125a3.341,3.341,0,1,0,3.341,3.341,3.3,3.3,0,0,0-.308-1.367l211.068-160V435.086L398.1,447.307a3.291,3.291,0,0,0-2.819-1.656,3.341,3.341,0,1,0,3.341,3.341c0-.1-.048-.182-.056-.276l39.039-12.55V287.106L224.136,448.936A3.289,3.289,0,0,0,222.023,448.125Z" transform="translate(47.115 18.718)"/>
    <path id="Path_1272" data-name="Path 1272" class="cls-1" d="M325.948,355.916H243.721a3.292,3.292,0,0,0-3.191-2.6,3.341,3.341,0,1,0,0,6.682,3.292,3.292,0,0,0,3.191-2.6h82.227a3.3,3.3,0,0,0,3.194,2.6,3.341,3.341,0,0,0,0-6.682A3.3,3.3,0,0,0,325.948,355.916Z" transform="translate(78.111 129.613)"/>
    <path id="Path_1273" data-name="Path 1273" class="cls-1" d="M328.67,334.463a3.342,3.342,0,1,0-3.344-3.344,3.245,3.245,0,0,0,.2.995l-70.185,41.519a3.306,3.306,0,0,0-2.413-1.054,3.341,3.341,0,1,0,3.341,3.341,3.259,3.259,0,0,0-.2-1l70.188-41.516A3.312,3.312,0,0,0,328.67,334.463Z" transform="translate(98.879 86.838)"/>
    <path id="Path_1274" data-name="Path 1274" class="cls-1" d="M326.7,354.426l-35.966,11.427a3.291,3.291,0,0,0-2.825-1.667,3.342,3.342,0,1,0,3.341,3.341c0-.094-.045-.171-.053-.265l35.966-11.424a3.292,3.292,0,0,0,2.825,1.666,3.342,3.342,0,1,0-3.341-3.341C326.645,354.257,326.69,354.335,326.7,354.426Z" transform="translate(157.461 125.428)"/>
    <path id="Path_1290" data-name="Path 1290" class="cls-1" d="M243.22,367.706a2.1,2.1,0,1,0-1.955-2.849H221.907a2.105,2.105,0,1,0,0,1.487h19.358A2.1,2.1,0,0,0,243.22,367.706Z" transform="translate(45.719 146.661)"/>
    <path id="Path_1291" data-name="Path 1291" class="cls-1" d="M278.367,367.509a2.1,2.1,0,0,0,4.2.054l49.289-17.274a2.076,2.076,0,0,0,1.586.76,2.1,2.1,0,1,0-2.092-2.156l-49.292,17.274a2.073,2.073,0,0,0-1.583-.762A2.106,2.106,0,0,0,278.367,367.509Z" transform="translate(147.077 118.764)"/>
    <path id="Path_1292" data-name="Path 1292" class="cls-1" d="M250.488,340.46a2.1,2.1,0,0,0,.744-4.058v-10.06l42.754-33.73a2.038,2.038,0,0,0,1.054.324,2.1,2.1,0,1,0-2.1-2.1,2.06,2.06,0,0,0,.123.615L250.028,325.4l-.284.222V336.4a2.1,2.1,0,0,0,.744,4.058Z" transform="translate(96.864 21.436)"/>
    <path id="Path_1293" data-name="Path 1293" class="cls-1" d="M347.813,285.571v19.457l-92.715,69.9a2.035,2.035,0,0,0-1.094-.35,2.1,2.1,0,1,0,2.105,2.1,2.056,2.056,0,0,0-.115-.57L349.3,305.766v-20.2a2.1,2.1,0,1,0-1.487,0Z" transform="translate(102.752 9.347)"/>
    <path id="Path_1294" data-name="Path 1294" class="cls-1" d="M273.948,315.181V345.54L229.7,380.746a2.047,2.047,0,0,0-1.049-.318,2.1,2.1,0,1,0,2.1,2.1,2.019,2.019,0,0,0-.126-.623l44.8-35.65V315.181a2.1,2.1,0,1,0-1.485,0Z" transform="translate(60.287 58.942)"/>
    <path id="Path_1295" data-name="Path 1295" class="cls-1" d="M267.672,318.882v13.034l-50.19,40.155a2.045,2.045,0,0,0-1.046-.318,2.1,2.1,0,1,0,2.105,2.105,2.072,2.072,0,0,0-.128-.631l50.747-40.6V318.882a2.105,2.105,0,1,0-1.487,0Z" transform="translate(39.831 65.141)"/>
    <path id="Path_1296" data-name="Path 1296" class="cls-1" d="M237.258,374.844a2.094,2.094,0,0,0,1.9-1.238h43.081l63.3-33.823a2.073,2.073,0,0,0,1.367.532,2.1,2.1,0,1,0-2.105-2.1,2.04,2.04,0,0,0,.051.254l-62.982,33.655H239.235a2.078,2.078,0,0,0-1.977-1.485,2.1,2.1,0,1,0,0,4.208Z" transform="translate(74.701 100.786)"/>
    <path id="Path_1297" data-name="Path 1297" class="cls-1" d="M204.593,403.652a2.1,2.1,0,0,0,2.1-2.105,2.07,2.07,0,0,0-.944-1.709l10.817-46.678H238.28a2.105,2.105,0,1,0,0-1.487H215.389L204.3,399.5a2.081,2.081,0,0,0-1.816,2.046A2.1,2.1,0,0,0,204.593,403.652Z" transform="translate(19.992 124.575)"/>
    <path id="Path_1304" data-name="Path 1304" class="cls-1" d="M444.048,396.712a1.945,1.945,0,0,0-.094.465,2.1,2.1,0,1,0,2.1-2.1,2.036,2.036,0,0,0-1.177.407L326.508,315.087v39.791a2.1,2.1,0,1,0,1.485,0V317.89Z" transform="translate(225.424 65.581)"/>
    <path id="Path_1305" data-name="Path 1305" class="cls-1" d="M398.42,351.673a2.1,2.1,0,1,0,0,1.487h21.712l10.817,46.678a2.066,2.066,0,0,0-.944,1.709,2.1,2.1,0,1,0,4.208,0A2.081,2.081,0,0,0,432.4,399.5l-11.084-47.829Z" transform="translate(341.349 124.575)"/>
    <path id="Path_1310" data-name="Path 1310" class="cls-1" d="M334.687,294.21a3.272,3.272,0,0,0,2.086-.794l75.09,57.94a3.289,3.289,0,0,0-.324,1.391,3.341,3.341,0,1,0,3.341-3.341,3.284,3.284,0,0,0-2.086.792L337.7,292.258a3.267,3.267,0,0,0,.324-1.388,3.341,3.341,0,1,0-3.341,3.341Z" transform="translate(235.808 19.421)"/>
    <path id="Path_1311" data-name="Path 1311" class="cls-1" d="M311.489,279.271a3.341,3.341,0,0,0-6.682,0,3.294,3.294,0,0,0,2.6,3.191V485.185a3.3,3.3,0,0,0-2.6,3.194,3.341,3.341,0,0,0,6.682,0,3.3,3.3,0,0,0-2.6-3.194V282.462A3.292,3.292,0,0,0,311.489,279.271Z" transform="translate(191.359 0)"/>
    <path id="Path_1312" data-name="Path 1312" class="cls-1" d="M373.733,312.568v38.247l65.1,53.13a3.281,3.281,0,0,0-.375,1.466,3.342,3.342,0,1,0,3.341-3.341,3.277,3.277,0,0,0-2.009.741l-64.573-52.7V312.568a3.3,3.3,0,0,0,2.6-3.191,3.341,3.341,0,1,0-6.682,0A3.294,3.294,0,0,0,373.733,312.568Z" transform="translate(302.449 50.417)"/>
    <path id="Path_1313" data-name="Path 1313" class="cls-1" d="M383.912,316.267v18.44l35.425,29.832a3.231,3.231,0,0,0-.4,1.5,3.341,3.341,0,1,0,3.341-3.341,3.261,3.261,0,0,0-1.969.714l-34.912-29.4v-17.75a3.292,3.292,0,0,0,2.6-3.191,3.341,3.341,0,1,0-6.682,0A3.292,3.292,0,0,0,383.912,316.267Z" transform="translate(319.497 56.618)"/>
    <path id="Path_1314" data-name="Path 1314" class="cls-1" d="M350.2,448.992a3.342,3.342,0,1,0,3.344-3.341,3.288,3.288,0,0,0-2.819,1.656L312.7,435.086V290.1l211.068,160a3.3,3.3,0,0,0-.308,1.367,3.341,3.341,0,1,0,3.341-3.341,3.293,3.293,0,0,0-2.11.808L311.22,287.106v149.06l39.036,12.548C350.248,448.81,350.2,448.893,350.2,448.992Z" transform="translate(202.1 18.718)"/>
    <path id="Path_1315" data-name="Path 1315" class="cls-1" d="M342.277,360a3.294,3.294,0,0,0,3.191-2.6h82.227a3.292,3.292,0,0,0,3.191,2.6,3.341,3.341,0,0,0,0-6.682,3.294,3.294,0,0,0-3.191,2.6H345.468a3.294,3.294,0,0,0-3.191-2.6,3.341,3.341,0,1,0,0,6.682Z" transform="translate(248.515 129.613)"/>
    <path id="Path_1316" data-name="Path 1316" class="cls-1" d="M334.687,334.463a3.317,3.317,0,0,0,2.413-1.054l70.185,41.519a3.228,3.228,0,0,0-.2.992,3.377,3.377,0,1,0,.928-2.29l-70.185-41.516a3.245,3.245,0,0,0,.2-.995,3.341,3.341,0,1,0-3.341,3.344Z" transform="translate(235.808 86.838)"/>
    <path id="Path_1317" data-name="Path 1317" class="cls-1" d="M312.293,357.5a3.292,3.292,0,0,0,2.827-1.666l35.963,11.424c-.008.094-.053.171-.053.265a3.341,3.341,0,1,0,3.341-3.341,3.294,3.294,0,0,0-2.825,1.664L315.58,354.428c.008-.094.054-.171.054-.265a3.341,3.341,0,1,0-3.341,3.341Z" transform="translate(198.301 125.428)"/>
    <path id="Path_1339" data-name="Path 1339" class="cls-1" d="M387.686,366.344h19.358a2.1,2.1,0,1,0,0-1.487H387.686a2.105,2.105,0,1,0,0,1.487Z" transform="translate(323.371 146.661)"/>
    <path id="Path_1340" data-name="Path 1340" class="cls-1" d="M387.836,349.869a2.1,2.1,0,1,0-2.846,1.955v8.193h13.021a2.1,2.1,0,1,0,0-1.485H386.471v-6.708A2.094,2.094,0,0,0,387.836,349.869Z" transform="translate(323.371 120.315)"/>
    <path id="Path_1341" data-name="Path 1341" class="cls-1" d="M336.134,340.315a2.072,2.072,0,0,0,1.364-.532l63.134,33.735,43.241.086a2.1,2.1,0,1,0,1.91-2.966,2.078,2.078,0,0,0-1.979,1.485H401.167l-62.982-33.655a2.029,2.029,0,0,0,.051-.254,2.1,2.1,0,1,0-2.1,2.1Z" transform="translate(240.301 100.786)"/>
    <path id="Path_1342" data-name="Path 1342" class="cls-1" d="M331.8,416.047a2.1,2.1,0,1,0-1.493-3.587l-12.125-5.433V302.041a2.1,2.1,0,1,0-1.482,0V407.988l13.018,5.836c0,.043-.024.078-.024.118A2.1,2.1,0,0,0,331.8,416.047Z" transform="translate(208.995 36.935)"/>
    <path id="Path_1343" data-name="Path 1343" class="cls-1" d="M367.078,369.615a2.105,2.105,0,0,0,0-4.21,2.074,2.074,0,0,0-1.586.762L316.2,348.893a2.1,2.1,0,1,0-2.094,2.156,2.077,2.077,0,0,0,1.586-.76l49.289,17.274A2.1,2.1,0,0,0,367.078,369.615Z" transform="translate(203.416 118.764)"/>
    <path id="Path_1344" data-name="Path 1344" class="cls-1" d="M347.238,292.937a2.055,2.055,0,0,0,1.057-.324l42.754,33.73V336.4a2.1,2.1,0,1,0,1.484,0V325.62l-43.316-34.171a2.06,2.06,0,0,0,.123-.615,2.1,2.1,0,1,0-2.1,2.1Z" transform="translate(258.898 21.436)"/>
    <path id="Path_1345" data-name="Path 1345" class="cls-1" d="M324.286,285.571v20.2l93.3,70.345a2.052,2.052,0,0,0-.115.57,2.1,2.1,0,1,0,2.105-2.1,2.043,2.043,0,0,0-1.094.35l-92.718-69.9V285.571a2.1,2.1,0,1,0-1.482,0Z" transform="translate(221.704 9.347)"/>
    <path id="Path_1346" data-name="Path 1346" class="cls-1" d="M367.78,315.181v31.076l44.8,35.65a2.019,2.019,0,0,0-.126.623,2.1,2.1,0,1,0,2.1-2.1,2.024,2.024,0,0,0-1.048.321L369.262,345.54V315.181a2.105,2.105,0,1,0-1.482,0Z" transform="translate(294.544 58.942)"/>
    <path id="Path_1347" data-name="Path 1347" class="cls-1" d="M377.772,318.882V332.63l50.744,40.6a2.069,2.069,0,0,0-.126.631,2.1,2.1,0,1,0,2.1-2.105,2.036,2.036,0,0,0-1.043.318l-50.193-40.155V318.882a2.1,2.1,0,1,0-1.484,0Z" transform="translate(311.282 65.141)"/>
  </g>
</svg>
