<svg xmlns="http://www.w3.org/2000/svg" width="146.53" height="483.769" viewBox="0 0 146.53 483.769">
  <defs>
    <style>
      .cls-1 {
        fill: #fff;
      }
    </style>
  </defs>
  <g id="SciFI" transform="translate(337.081 840.22) rotate(180)">
    <path id="Path_1259" data-name="Path 1259" class="cls-1" d="M225.282,358.533a2.1,2.1,0,1,0,0,1.485h13.024v-8.193a2.105,2.105,0,1,0-1.487,0v6.708Z" transform="translate(51.377 120.315)"/>
    <path id="Path_1260" data-name="Path 1260" class="cls-1" d="M246.246,375.677a3.3,3.3,0,0,0,2.6-3.194,3.341,3.341,0,0,0-6.682,0,3.3,3.3,0,0,0,2.6,3.194v29.054l-32.175,18.81v14.067a3.294,3.294,0,0,0-2.6,3.191,3.342,3.342,0,0,0,6.684,0,3.294,3.294,0,0,0-2.6-3.191V424.393l32.176-18.812Z" transform="translate(32.545 156.114)"/>
    <path id="Path_1261" data-name="Path 1261" class="cls-1" d="M216.563,402.534a2.059,2.059,0,0,0-1.051-.321,2.1,2.1,0,1,0,2.1,2.1,2.066,2.066,0,0,0-.123-.618l10.646-8.428V374.588a2.105,2.105,0,1,0-1.487,0v19.965Z" transform="translate(38.28 158.439)"/>
    <path id="Path_1263" data-name="Path 1263" class="cls-1" d="M234.048,409.046a2.047,2.047,0,0,0,1.022.3,2.105,2.105,0,1,0-2.105-2.105,2.076,2.076,0,0,0,.134.661L213.559,424l-.27.222v22.653a2.108,2.108,0,1,0,1.484,0V424.918Z" transform="translate(35.801 216.401)"/>
    <path id="Path_1264" data-name="Path 1264" class="cls-1" d="M215.129,426.57a2.044,2.044,0,0,0-1.1-.356,2.105,2.105,0,1,0,2.105,2.1,1.98,1.98,0,0,0-.115-.564l8.653-6.489V396.612a2.1,2.1,0,1,0-1.485,0v23.913Z" transform="translate(35.801 195.325)"/>
    <path id="Path_1269" data-name="Path 1269" class="cls-1" d="M217.211,369.386a3.342,3.342,0,0,0,3.341-3.344,3.26,3.26,0,0,0-.4-1.5l35.423-29.832v-18.44a3.294,3.294,0,0,0,2.6-3.191,3.342,3.342,0,0,0-6.684,0,3.294,3.294,0,0,0,2.6,3.191v17.75l-34.912,29.4a3.255,3.255,0,0,0-1.969-.714,3.342,3.342,0,0,0,0,6.684Z" transform="translate(39.055 56.618)"/>
    <path id="Path_1270" data-name="Path 1270" class="cls-1" d="M216.286,408.752a3.34,3.34,0,0,0,3.341-3.341,3.272,3.272,0,0,0-.375-1.466l64.827-52.908.273-.222V312.568a3.3,3.3,0,0,0,2.6-3.191,3.342,3.342,0,1,0-6.684,0,3.3,3.3,0,0,0,2.6,3.191v37.544l-64.568,52.7a3.278,3.278,0,0,0-2.011-.741,3.341,3.341,0,0,0,0,6.682Z" transform="translate(37.506 50.417)"/>
    <path id="Path_1275" data-name="Path 1275" class="cls-1" d="M204.071,465.512a3.34,3.34,0,0,0,3.341-3.341,3.12,3.12,0,0,0-.142-.706L216.2,457.2V435.148l23.656-39.922.1-.174V367.346a3.29,3.29,0,0,0,2.6-3.191,3.341,3.341,0,1,0-6.682,0,3.29,3.29,0,0,0,2.6,3.191v27.3l-23.656,39.924-.1.174V456.26l-8.07,3.86a3.28,3.28,0,0,0-2.573-1.289,3.341,3.341,0,1,0,0,6.682Z" transform="translate(17.048 142.166)"/>
    <path id="Path_1276" data-name="Path 1276" class="cls-1" d="M195.465,411.637a3.255,3.255,0,0,0,1.739-.556l22.5,22.5a3.3,3.3,0,0,0-1.094,2.439,3.624,3.624,0,1,0,2.466-3.167L198.252,410.03a3.244,3.244,0,0,0,.556-1.733,3.342,3.342,0,1,0-3.344,3.341Z" transform="translate(2.635 216.091)"/>
    <path id="Path_1277" data-name="Path 1277" class="cls-1" d="M215.37,408.757a3.341,3.341,0,1,0-6.682,0,3.29,3.29,0,0,0,2.6,3.191v46.587a3.292,3.292,0,0,0-2.6,3.191,3.341,3.341,0,1,0,6.682,0,3.29,3.29,0,0,0-2.6-3.191V411.948A3.29,3.29,0,0,0,215.37,408.757Z" transform="translate(30.376 216.867)"/>
    <path id="Path_1278" data-name="Path 1278" class="cls-1" d="M224.987,611.2V503.471l25.74-12.374V369.567a3.292,3.292,0,0,0,2.6-3.191,3.342,3.342,0,0,0-6.684,0,3.292,3.292,0,0,0,2.6,3.191v120.6L223.5,502.535V611.2a3.294,3.294,0,0,0-2.6,3.191,3.341,3.341,0,1,0,6.682,0A3.294,3.294,0,0,0,224.987,611.2Z" transform="translate(50.834 145.886)"/>
    <path id="Path_1279" data-name="Path 1279" class="cls-1" d="M219.25,533.774v-74.66l22.279-17.328v-48.16a3.29,3.29,0,0,0,2.6-3.191,3.341,3.341,0,0,0-6.682,0,3.29,3.29,0,0,0,2.6,3.191v47.435l-22.276,17.325v75.387a3.294,3.294,0,0,0-2.6,3.191,3.342,3.342,0,0,0,6.684,0A3.294,3.294,0,0,0,219.25,533.774Z" transform="translate(41.224 186.181)"/>
    <path id="Path_1280" data-name="Path 1280" class="cls-1" d="M252.307,465.379a3.206,3.206,0,0,0-3.146,4.32l-52.847,30.9a3.991,3.991,0,1,0,.722,1.295L249.884,471a3.334,3.334,0,1,0,2.423-5.617Z" transform="translate(0 317.295)"/>
    <path id="Path_1281" data-name="Path 1281" class="cls-1" d="M261.226,529.813a3.341,3.341,0,1,0,3.341-3.341,3.131,3.131,0,0,0-.744.15l-30.276-61.46a3.284,3.284,0,0,0,1.257-2.549,3.342,3.342,0,1,0-3.341,3.341,3.3,3.3,0,0,0,.744-.15l30.276,61.46A3.284,3.284,0,0,0,261.226,529.813Z" transform="translate(62.922 307.066)"/>
    <path id="Path_1285" data-name="Path 1285" class="cls-1" d="M227.843,510.968a2.1,2.1,0,1,0,2.846-1.953v-85.2a2.1,2.1,0,1,0-1.484,0v85.2A2.088,2.088,0,0,0,227.843,510.968Z" transform="translate(62.458 240.889)"/>
    <path id="Path_1286" data-name="Path 1286" class="cls-1" d="M239.824,421.864a2.1,2.1,0,1,0-2.846,1.953v63.912a2.1,2.1,0,1,0,1.484,0V423.817A2.1,2.1,0,0,0,239.824,421.864Z" transform="translate(75.476 240.889)"/>
    <path id="Path_1287" data-name="Path 1287" class="cls-1" d="M228.721,419.088a2.105,2.105,0,1,0-2.849,1.953V531.484a2.105,2.105,0,1,0,1.487,0V421.041A2.1,2.1,0,0,0,228.721,419.088Z" transform="translate(56.877 236.24)"/>
    <path id="Path_1288" data-name="Path 1288" class="cls-1" d="M232.051,376.7a2.1,2.1,0,1,0-2.846,1.955v74.8a2.1,2.1,0,1,0,1.484,0v-74.8A2.1,2.1,0,0,0,232.051,376.7Z" transform="translate(62.458 165.259)"/>
    <path id="Path_1289" data-name="Path 1289" class="cls-1" d="M239.824,376.7a2.1,2.1,0,1,0-2.846,1.955v65.4a2.1,2.1,0,1,0,1.484,0v-65.4A2.1,2.1,0,0,0,239.824,376.7Z" transform="translate(75.476 165.259)"/>
    <path id="Path_1290" data-name="Path 1290" class="cls-1" d="M243.22,367.706a2.1,2.1,0,1,0-1.955-2.849H221.907a2.105,2.105,0,1,0,0,1.487h19.358A2.1,2.1,0,0,0,243.22,367.706Z" transform="translate(45.719 146.661)"/>
    <path id="Path_1294" data-name="Path 1294" class="cls-1" d="M273.948,315.181V345.54L229.7,380.746a2.047,2.047,0,0,0-1.049-.318,2.1,2.1,0,1,0,2.1,2.1,2.019,2.019,0,0,0-.126-.623l44.8-35.65V315.181a2.1,2.1,0,1,0-1.485,0Z" transform="translate(60.287 58.942)"/>
    <path id="Path_1295" data-name="Path 1295" class="cls-1" d="M267.672,318.882v13.034l-50.19,40.155a2.045,2.045,0,0,0-1.046-.318,2.1,2.1,0,1,0,2.105,2.105,2.072,2.072,0,0,0-.128-.631l50.747-40.6V318.882a2.105,2.105,0,1,0-1.487,0Z" transform="translate(39.831 65.141)"/>
    <path id="Path_1297" data-name="Path 1297" class="cls-1" d="M204.593,403.652a2.1,2.1,0,0,0,2.1-2.105,2.07,2.07,0,0,0-.944-1.709l10.817-46.678H238.28a2.105,2.105,0,1,0,0-1.487H215.389L204.3,399.5a2.081,2.081,0,0,0-1.816,2.046A2.1,2.1,0,0,0,204.593,403.652Z" transform="translate(19.992 124.575)"/>
  </g>
</svg>
