<svg id="Group_214" data-name="Group 214" xmlns="http://www.w3.org/2000/svg" width="131.433" height="112.171" viewBox="0 0 131.433 112.171">
  <path id="Path_684" data-name="Path 684" d="M999.246,1204.269h8.709v4.374c-1.449.091-2.767.243-4.085.246-8.527.018,3.031.028-5.5-.011-3.7-.015-4.337-.651-4.338-4.323q-.018-39.669,0-79.337a21.274,21.274,0,0,1,.082-2.22,2.572,2.572,0,0,1,2.937-2.6c2.1.048,4.2,0,6.3,0h108.628c.618,0,1.236-.022,1.853.011,2.724.145,3.129.522,3.334,3.316.091,1.23.059,2.47.057,3.705q-.019,38-.056,76c-.008,5.228-.334,5.477-5.406,5.468-7.907-.014,2.724-.009-5.185-.011-1.468,0-1.391,0-3.274,0-.08-1.578-.144-2.837-.23-4.556,10.036-.046-.38-.091,9.357-.136v-79.169H999.382c-.173.165-.267.241-.345.332a.742.742,0,0,0-.2.306,15.666,15.666,0,0,0-.258,2.185q.028,37.625.1,75.251C998.677,1203.316,998.88,1203.533,999.246,1204.269Z" transform="translate(-990.677 -1120.391)" fill="#158aff"/>
  <path id="Path_685" data-name="Path 685" d="M1068.839,1170.254c3.469.046,6.4.283,9.31.08,4.725-.331,7.2.76,3.88,6.44-1.8,3.081-3.292,6.356-4.79,9.6-1.108,2.4-2.67,3.745-5.466,3.374a11.663,11.663,0,0,0-2.809.4v9.269l-4.654.3V1185h-34.864v14.437l-4.442.225v-9.7c-1.894-.117-3.323-.252-4.754-.28a3.024,3.024,0,0,1-2.919-1.857c-2.175-4.428-4.511-8.781-6.562-13.264-1.35-2.954-.53-4.077,2.75-4.187,2.713-.09,5.432.011,8.148-.019,3.052-.032,3.311-.322,3.319-3.456,0-1.235.011-2.469-.034-3.7a6.3,6.3,0,0,1,4.505-6.539c3.937-1.355,8.062-2.158,12.113-3.175.581-.145,1.2-.156,2.781-.349-1.514-1.007-2.308-1.615-3.172-2.1-6.719-3.756-8.838-16.144-2.817-21.678,3.257-2.993,9.031-4.377,13.426-2.41a11.393,11.393,0,0,1,7.191,10.772c.079,6.029-1.84,11.2-7.8,13.967a11.138,11.138,0,0,1-1.431.454l.6.961c.91.144,1.837.219,2.727.445,3.694.938,7.449,1.714,11.042,2.949,3.219,1.106,4.872,3.615,4.734,7.166C1068.777,1165.629,1068.839,1167.592,1068.839,1170.254Zm-39.466-.6c3.363,1,32.127.95,34.743.054a2.641,2.641,0,0,0,.223-.7c.04-1.353.079-2.707.063-4.06-.034-3.136-.411-3.73-3.464-4.87a39.679,39.679,0,0,0-20.717-1.86,70.462,70.462,0,0,0-8.175,2.222,3.439,3.439,0,0,0-2.693,3.861C1029.447,1166.117,1029.373,1167.943,1029.373,1169.652Zm-13.327,5.445c1.712,3.419,3.081,6.4,4.725,9.23.351.6,1.744.905,2.589.8a2.315,2.315,0,0,0,1.48-1.689c.09-2.427,1.34-3.2,3.561-3.189q18.519.07,37.039.053c2.031,0,3.254.593,3.475,2.86.073.746,1.015,1.958,1.593,1.978a3.492,3.492,0,0,0,2.747-1.236c1.457-2.551,2.588-5.29,3.81-7.974.073-.159-.138-.447-.272-.834Zm38.541-36.324c-.1-4.782-3.144-8.138-7.181-8.277a7.592,7.592,0,0,0-8.144,6.9,10.855,10.855,0,0,0,2.508,8.272,6.425,6.425,0,0,0,9.758.436C1053.718,1144,1054.334,1141.274,1054.586,1138.773Z" transform="translate(-981.892 -1117.313)" fill="#158aff"/>
  <path id="Path_686" data-name="Path 686" d="M1036.912,1186.4c.814.066,1.414.144,2.013.159.972.023,1.945.006,3.121.006,2.276-7.6,6.978-12.521,15.112-12.382,7.762.135,12.334,4.833,14.347,12.229h5.153c2.368-7.481,7.109-12.56,15.438-12.23,7.575.3,12,5.055,14.02,12.111,2.237.266,4.338.34,6.356.787a14.009,14.009,0,0,1,10.659,11.529,6.835,6.835,0,0,1,0,2.925,2.63,2.63,0,0,1-1.686,1.607,2.88,2.88,0,0,1-2.118-1.038c-.42-.48-.379-1.376-.511-2.094-1.551-8.4-9.811-11.6-16.6-6.555a7.808,7.808,0,0,0-3.41,6.107c-.223,2.809-1.085,3.83-2.619,3.7-1.554-.128-2.154-1.472-1.851-4.17.438-3.907,2.494-6.889,5.344-9.44,2.063-1.846,2.117-3.754,1.068-6.291-1.557-3.767-5.592-4.822-9.674-4.692a10.317,10.317,0,0,0-9.048,6.6c-.74,1.863-.555,3.22,1.168,4.487a12.879,12.879,0,0,1,5.375,9.347,5.29,5.29,0,0,1-.131,2.545,2.028,2.028,0,0,1-3.8.371,6.763,6.763,0,0,1-.569-2.475,10.1,10.1,0,0,0-9.738-8.555,10.331,10.331,0,0,0-10.087,8.229c-.161.72.025,1.644-.368,2.155a4.276,4.276,0,0,1-2.379,1.8c-1.24.121-1.857-1.061-1.9-2.29a12.952,12.952,0,0,1,2.5-7.988,17.566,17.566,0,0,1,2.444-2.769c2.661-2.467,2.792-3.045,1.1-6.217a10.036,10.036,0,0,0-9.895-5.188,10.654,10.654,0,0,0-8.715,7.563c-.416,1.489.164,2.266,1.239,3.11a14.259,14.259,0,0,1,5.582,8.887c.022.121.073.236.1.358.531,2.813-.037,4.311-1.735,4.572-1.528.235-2.43-.709-2.843-3.557a9.723,9.723,0,0,0-5.647-7.671c-5.582-2.888-12.821.933-14.046,7.175-.117.6-.142,1.228-.261,1.832-.269,1.367-1.052,2.361-2.5,2.217-1.727-.173-2.129-1.588-1.979-3.025a14.649,14.649,0,0,1,3.874-9.014c.256-.266.531-.517.8-.768,3-2.741,3.152-4.113.837-7.475a10.033,10.033,0,0,0-16.816.706c-.663,1.168-1.091,2.469-1.757,4,1,.936,1.95,1.854,2.928,2.747a14.092,14.092,0,0,1,4.709,9.755c.094,1.377,0,2.773-2.1,2.916-1.307-2.42-2.535-4.859-3.915-7.212a10.017,10.017,0,0,0-15.372-2.089,28.421,28.421,0,0,0-2.2,2.607l-4.082-1.539c2.052-4.311,5.241-7.192,9.491-7.639,4.346-.456,6.78-1.812,8.671-6.018,2.3-5.114,7.37-7.337,12.913-7.007a14.054,14.054,0,0,1,12.853,9.134c.19.456.3.942.465,1.407S1036.606,1185.618,1036.912,1186.4Z" transform="translate(-991.86 -1091.103)" fill="#158aff"/>
</svg>
