<svg id="Group_211" data-name="Group 211" xmlns="http://www.w3.org/2000/svg" width="129.66" height="112.75" viewBox="0 0 129.66 112.75">
  <path id="Path_667" data-name="Path 667" d="M644.028,1154.666c0-5.545-.117-11.095.026-16.635.232-8.973,7.56-13.343,15.438-9.313,3.452,1.766,6.722,4.309,10.386,5.151a190.349,190.349,0,0,0,23.193,3.717c6.525.666,8.47,2.73,6.593,9.126a4.255,4.255,0,0,1-3.252,2.226c-8.869.161-17.786.575-26.595-.184-4.508-.389-8.85-2.96-13.2-4.719-.636-.258-.887-1.477-1.315-2.251a10.13,10.13,0,0,1,2.715-1.213,4.273,4.273,0,0,1,2.339.749c10.647,5.965,22.293,2.368,33.445,3.455.647.062,1.4-.95,2.1-1.461-.66-.592-1.251-1.565-1.995-1.7a29.029,29.029,0,0,0-6.2-.507c-10.305.38-19.543-2.765-28.384-7.842-7.293-4.187-11.426-1.533-11.432,6.912q-.014,14.765-.011,29.529c0,6.319,2.756,9.2,9.051,9.256a152.748,152.748,0,0,0,15.376-.244c3.8-.349,5.184,1.33,6.083,4.558,1.893,6.795,3.985,13.534,6.027,20.286.36,1.191.6,2.588,1.392,3.428a4.189,4.189,0,0,0,3.141,1.071c.536-.059,1.44-1.713,1.276-2.446-2.225-10-4.495-19.99-7.085-29.9-.337-1.289-2.382-2.6-3.883-3.025-4.124-1.151-8.368-1.9-12.587-2.678-3.271-.6-5.275-1.829-4.765-5.761.4-3.135-.108-6.381.161-9.545.09-1.051,1.341-2,2.061-3,.7,1.027,1.871,2,2,3.1a29.729,29.729,0,0,1-.076,7.048c-.34,2.826.868,4.083,3.5,4.583a110.522,110.522,0,0,1,12.561,2.747c1.8.564,4.15,2.237,4.57,3.845,3.081,11.783,5.746,23.673,8.5,35.541a4.813,4.813,0,0,1-.068,2.3,55.9,55.9,0,0,1-9.584,1.133,4.662,4.662,0,0,1-3.353-2.657c-2.382-6.926-4.607-13.921-6.545-20.985-1.081-3.938-2.46-6.372-7.3-5.775-4.507.556-9.139.215-13.711.093a10.455,10.455,0,0,1-10.548-10.55c-.131-5.82-.029-11.645-.029-17.467Z" transform="translate(-634.896 -1099.496)" fill="#158aff"/>
  <path id="Path_668" data-name="Path 668" d="M718.278,1150.289c13.584,0,12.557.042,26.139-.034,3-.017,4.153,1.054,4.13,4.158q-.162,20.584.052,41.172c.034,3.141-1.14,4.093-4.121,4.071-14.417-.1-14.224-.071-28.642-.1a5.964,5.964,0,0,1-2.455-.218,8.169,8.169,0,0,1-1.876-1.811,10.673,10.673,0,0,1,2.007-1.735,4.738,4.738,0,0,1,2.046-.142c12.892.006,11.175-.083,24.064.1,3.584.051,4.921-.992,4.853-4.72-.2-10.811-.156-21.627,0-32.438.048-3.245-.977-4.343-4.292-4.307-14.693.156-14.78.179-29.473,0-3.574-.042-4.368,1.137-4.3,4.547.23,12.2.048,24.4.176,36.6.031,2.966-.838,4.365-3.994,4.249-4.845-.178-9.706.02-14.545-.23-1.213-.063-2.37-1.227-3.552-1.883,1.211-.641,2.393-1.755,3.642-1.834a105.1,105.1,0,0,1,10.806.016c2.613.1,3.832-.864,3.816-3.58q-.09-17.259-.014-34.519c.014-2.522-.973-3.387-3.479-3.342-7.206.128-14.42.162-21.623-.019-1.474-.037-2.922-1.174-4.38-1.8,1.423-.7,2.84-2,4.272-2.015,13.581-.155,27.165-.093,40.747-.093Z" transform="translate(-618.94 -1086.936)" fill="#158aff"/>
  <path id="Path_669" data-name="Path 669" d="M735.413,1134.018h-5.1c-6.787,0-13.613.425-20.353-.147-5.179-.44-7.509,1.553-8.936,6.188-1.42,4.612-3.537,9-5.177,13.554-.84,2.327-2.208,3.167-4.678,3.089-4.7-.15-9.425.168-14.12-.068-1.279-.065-2.494-1.412-3.737-2.171,1.29-.709,2.52-1.837,3.884-2.033a43.626,43.626,0,0,1,7.05-.059c7.619.155,7.632.17,10.39-6.716,1.7-4.235,3.095-8.613,5.134-12.674a6.347,6.347,0,0,1,4.5-3.087c10.659-.269,21.331-.168,32-.125,4.219.017,4.765,1.023,3.135,5.051-2.437,6.02-4.956,12.012-7.141,18.123-1,2.8-2.413,3.912-5.446,3.824-7.614-.219-15.239-.025-22.854-.215-1.214-.031-2.4-1.2-3.6-1.839,1.23-.783,2.443-2.211,3.691-2.242,6.644-.164,13.3-.065,19.942.125,2.9.083,4.586-.905,5.576-3.751C731.189,1144.184,733.17,1139.648,735.413,1134.018Z" transform="translate(-618.91 -1098.131)" fill="#158aff"/>
  <path id="Path_670" data-name="Path 670" d="M642.176,1153.627c0,4.712-.042,9.425.006,14.135a15.948,15.948,0,0,0,15.991,16.206c4.017.071,8.047-.175,12.051.057,1.19.07,2.313,1.276,3.467,1.961-1.055.675-2.058,1.823-3.172,1.943-5.814.627-5.826.538-5.865,6.281-.009,1.384,0,2.77.011,4.156.046,5.633.059,5.52,5.737,6.092,1.145.116,2.169,1.438,3.249,2.2-1.119.553-2.219,1.541-3.356,1.585-4.844.185-9.7.233-14.542.016-1.4-.063-2.744-1.18-4.114-1.815,1.313-.692,2.711-2.1,3.924-1.953,4.485.538,5.8-1.452,5.275-5.486-.071-.542.06-1.108.032-1.659-.145-2.752.584-6.12-.752-8.057-1.072-1.556-4.657-1.388-7.132-1.962-8.073-1.874-14.44-9.544-14.695-18.488-.3-10.385-.192-20.785-.06-31.177.014-1.168,1.335-2.319,2.05-3.478.632,1.214,1.761,2.409,1.808,3.645C642.294,1143.089,642.176,1148.359,642.176,1153.627Z" transform="translate(-638.102 -1095.693)" fill="#158aff"/>
  <path id="Path_671" data-name="Path 671" d="M649.835,1122.67a13.287,13.287,0,1,1,26.571.063,13.286,13.286,0,1,1-26.571-.063Zm22.6.151a9.735,9.735,0,0,0-9.091-9.483,9.42,9.42,0,0,0-9.412,9.5,9.242,9.242,0,0,0,9.219,9.176A9.561,9.561,0,0,0,672.433,1122.822Z" transform="translate(-631.707 -1109.272)" fill="#158aff"/>
</svg>
