<svg xmlns="http://www.w3.org/2000/svg" width="51" height="51" viewBox="0 0 51 51">
  <g id="twitter" transform="translate(0 -0.056)">
    <circle id="Ellipse_99" data-name="Ellipse 99" cx="25.5" cy="25.5" r="25.5" transform="translate(0 0.056)" fill="#65a2d9"/>
    <path id="Path_1251" data-name="Path 1251" d="M138.614,139.326c-2.642,2.293-5.27,4.3-7.417,7.11-5.282,6.37-11.738,15.408-20.523,14.061l15.7,15.675A25.333,25.333,0,0,0,150.385,151.1Z" transform="translate(-99.722 -125.539)" fill="#3a7ca5"/>
    <path id="Path_1252" data-name="Path 1252" d="M138.006,136.92a11.465,11.465,0,0,1-2,.674,6.232,6.232,0,0,0,1.646-2.621.327.327,0,0,0-.478-.381,11.536,11.536,0,0,1-3.057,1.263.773.773,0,0,1-.191.024.811.811,0,0,1-.535-.2,6.252,6.252,0,0,0-4.137-1.561,6.682,6.682,0,0,0-1.981.306,6.058,6.058,0,0,0-4.083,4.364,6.67,6.67,0,0,0-.148,2.3.224.224,0,0,1-.056.175.233.233,0,0,1-.173.078h-.022a16.394,16.394,0,0,1-11.268-6.02.327.327,0,0,0-.536.042,6.26,6.26,0,0,0,1.018,7.6,5.6,5.6,0,0,1-1.426-.552.327.327,0,0,0-.486.282,6.261,6.261,0,0,0,3.652,5.767h-.134a5.6,5.6,0,0,1-1.053-.1.327.327,0,0,0-.373.421,6.266,6.266,0,0,0,4.95,4.262A11.537,11.537,0,0,1,110.672,155h-.723a.478.478,0,0,0-.468.361.5.5,0,0,0,.237.547,17.16,17.16,0,0,0,8.623,2.325,17.391,17.391,0,0,0,7.369-1.563,16.272,16.272,0,0,0,5.392-4.04,17.711,17.711,0,0,0,3.3-5.53,17.469,17.469,0,0,0,1.122-6.052v-.1a1.065,1.065,0,0,1,.4-.828,12.361,12.361,0,0,0,2.486-2.728.327.327,0,0,0-.4-.48Z" transform="translate(-98.633 -120.842)" fill="#fff"/>
    <path id="Path_1253" data-name="Path 1253" d="M269.52,136.92a11.47,11.47,0,0,1-2,.674,6.233,6.233,0,0,0,1.646-2.621.327.327,0,0,0-.478-.381,11.535,11.535,0,0,1-3.057,1.263.774.774,0,0,1-.191.024.811.811,0,0,1-.535-.2,6.252,6.252,0,0,0-4.137-1.561,6.683,6.683,0,0,0-1.981.306,6.058,6.058,0,0,0-3.363,2.627V157.38a16.2,16.2,0,0,0,7.193-4.747,17.713,17.713,0,0,0,3.3-5.53,17.469,17.469,0,0,0,1.122-6.052v-.1a1.065,1.065,0,0,1,.4-.828,12.361,12.361,0,0,0,2.486-2.728A.327.327,0,0,0,269.52,136.92Z" transform="translate(-230.148 -120.842)" fill="#d1d1d1"/>
  </g>
</svg>
